<ttFont>
<head>
    <!-- Most of this table will be recalculated by the compiler -->
    <tableVersion value="1.0"/>
    <fontRevision value="1.437"/>
    <checkSumAdjustment value="0xfa242c67"/>
    <magicNumber value="0x5f0f3cf5"/>
    <flags value="00000000 00001101"/>
    <unitsPerEm value="1000"/>
    <created value="Fri Jul 30 13:54:32 2021"/>
    <modified value="Mon Jun 15 12:00:00 2026"/>
    <xMin value="-223"/>
    <yMin value="-400"/>
    <xMax value="847"/>
    <yMax value="1120"/>
    <macStyle value="00000000 00000010"/>
    <lowestRecPPEM value="6"/>
    <fontDirectionHint value="2"/>
    <indexToLocFormat value="0"/>
    <glyphDataFormat value="0"/>
  </head>
    <TTGlyph name=".notdef" xMin="54" yMin="0" xMax="482" yMax="730">
      <contour>
        <pt x="54" y="0" on="1"/>
        <pt x="54" y="730" on="1"/>
        <pt x="482" y="730" on="1"/>
        <pt x="482" y="0" on="1"/>
      </contour>
      <contour>
        <pt x="105" y="109" on="1"/>
        <pt x="411" y="680" on="1"/>
        <pt x="105" y="680" on="1"/>
      </contour>
      <contour>
        <pt x="125" y="50" on="1"/>
        <pt x="431" y="50" on="1"/>
        <pt x="431" y="621" on="1"/>
      </contour>
    </TTGlyph>
    <TTGlyph name="A" xMin="54" yMin="0" xMax="640" yMax="739">
      <contour>
        <pt x="54" y="0" on="1"/>
        <pt x="426" y="739" on="1"/>
        <pt x="537" y="739" on="1"/>
        <pt x="640" y="0" on="1"/>
        <pt x="543" y="0" on="1"/>
        <pt x="523" y="162" on="1"/>
        <pt x="236" y="162" on="1"/>
        <pt x="157" y="0" on="1"/>
      </contour>
      <contour>
        <pt x="279" y="250" on="1"/>
        <pt x="512" y="250" on="1"/>
        <pt x="466" y="634" on="1"/>
      </contour>
    </TTGlyph>
    <TTGlyph name="AE" xMin="54" yMin="0" xMax="640" yMax="738">
      <contour>
        <pt x="54" y="0" on="1"/>
        <pt x="394" y="738" on="1"/>
        <pt x="640" y="738" on="1"/>
        <pt x="631" y="648" on="1"/>
        <pt x="437" y="648" on="1"/>
        <pt x="414" y="424" on="1"/>
        <pt x="558" y="424" on="1"/>
        <pt x="548" y="335" on="1"/>
        <pt x="405" y="335" on="1"/>
        <pt x="379" y="90" on="1"/>
        <pt x="573" y="90" on="1"/>
        <pt x="564" y="0" on="1"/>
        <pt x="317" y="0" on="1"/>
        <pt x="334" y="160" on="1"/>
        <pt x="187" y="160" on="1"/>
        <pt x="115" y="0" on="1"/>
      </contour>
      <contour>
        <pt x="226" y="250" on="1"/>
        <pt x="343" y="250" on="1"/>
        <pt x="378" y="585" on="1"/>
      </contour>
    </TTGlyph>
    <TTGlyph name="AEacute" xMin="54" yMin="0" xMax="640" yMax="950">
      <component glyphName="AE" x="0" y="0" flags="0x204"/>
      <component glyphName="acutecomb.case" x="290" y="0" flags="0x4"/>
    </TTGlyph>
    <TTGlyph name="Aacute" xMin="54" yMin="0" xMax="640" yMax="961">
      <contour>
        <pt x="54" y="0" on="1"/>
        <pt x="426" y="730" on="1"/>
        <pt x="537" y="730" on="1"/>
        <pt x="640" y="0" on="1"/>
        <pt x="543" y="0" on="1"/>
        <pt x="523" y="160" on="1"/>
        <pt x="236" y="160" on="1"/>
        <pt x="157" y="0" on="1"/>
      </contour>
      <contour>
        <pt x="279" y="247" on="1"/>
        <pt x="512" y="247" on="1"/>
        <pt x="466" y="626" on="1"/>
      </contour>
      <contour>
        <pt x="433" y="813" on="1"/>
        <pt x="433" y="813" on="0"/>
        <pt x="463" y="850" on="0"/>
        <pt x="505" y="900" on="0"/>
        <pt x="542" y="944" on="0"/>
        <pt x="548" y="951" on="1"/>
        <pt x="559" y="961" on="0"/>
        <pt x="572" y="961" on="1"/>
        <pt x="588" y="961" on="0"/>
        <pt x="600" y="947" on="1"/>
        <pt x="608" y="937" on="0"/>
        <pt x="608" y="919" on="1"/>
        <pt x="608" y="900" on="0"/>
        <pt x="597" y="888" on="1"/>
        <pt x="590" y="882" on="0"/>
        <pt x="560" y="857" on="0"/>
        <pt x="526" y="831" on="0"/>
        <pt x="504" y="813" on="0"/>
        <pt x="504" y="813" on="1"/>
      </contour>
    </TTGlyph>
    <TTGlyph name="Abreve" xMin="54" yMin="0" xMax="640" yMax="933">
      <contour>
        <pt x="54" y="0" on="1"/>
        <pt x="421" y="730" on="1"/>
        <pt x="530" y="730" on="1"/>
        <pt x="632" y="0" on="1"/>
        <pt x="536" y="0" on="1"/>
        <pt x="516" y="160" on="1"/>
        <pt x="233" y="160" on="1"/>
        <pt x="156" y="0" on="1"/>
      </contour>
      <contour>
        <pt x="276" y="247" on="1"/>
        <pt x="506" y="247" on="1"/>
        <pt x="460" y="626" on="1"/>
      </contour>
      <contour>
        <pt x="486" y="802" on="1"/>
        <pt x="447" y="802" on="0"/>
        <pt x="392" y="843" on="0"/>
        <pt x="365" y="904" on="0"/>
        <pt x="365" y="933" on="1"/>
        <pt x="430" y="933" on="1"/>
        <pt x="434" y="912" on="0"/>
        <pt x="463" y="875" on="0"/>
        <pt x="493" y="875" on="1"/>
        <pt x="523" y="875" on="0"/>
        <pt x="563" y="911" on="0"/>
        <pt x="576" y="933" on="1"/>
        <pt x="640" y="933" on="1"/>
        <pt x="629" y="902" on="0"/>
        <pt x="587" y="840" on="0"/>
        <pt x="526" y="802" on="0"/>
      </contour>
    </TTGlyph>
    <TTGlyph name="Acircumflex" xMin="54" yMin="0" xMax="640" yMax="947">
      <contour>
        <pt x="54" y="0" on="1"/>
        <pt x="426" y="730" on="1"/>
        <pt x="537" y="730" on="1"/>
        <pt x="640" y="0" on="1"/>
        <pt x="543" y="0" on="1"/>
        <pt x="523" y="160" on="1"/>
        <pt x="236" y="160" on="1"/>
        <pt x="157" y="0" on="1"/>
      </contour>
      <contour>
        <pt x="279" y="247" on="1"/>
        <pt x="512" y="247" on="1"/>
        <pt x="466" y="626" on="1"/>
      </contour>
      <contour>
        <pt x="333" y="816" on="1"/>
        <pt x="460" y="927" on="1"/>
        <pt x="483" y="947" on="0"/>
        <pt x="511" y="947" on="1"/>
        <pt x="538" y="947" on="0"/>
        <pt x="554" y="927" on="1"/>
        <pt x="640" y="816" on="1"/>
        <pt x="553" y="816" on="1"/>
        <pt x="500" y="883" on="1"/>
        <pt x="424" y="816" on="1"/>
      </contour>
    </TTGlyph>
    <TTGlyph name="Adieresis" xMin="54" yMin="0" xMax="640" yMax="926">
      <contour>
        <pt x="54" y="0" on="1"/>
        <pt x="422" y="730" on="1"/>
        <pt x="530" y="730" on="1"/>
        <pt x="633" y="0" on="1"/>
        <pt x="537" y="0" on="1"/>
        <pt x="516" y="160" on="1"/>
        <pt x="233" y="160" on="1"/>
        <pt x="156" y="0" on="1"/>
      </contour>
      <contour>
        <pt x="276" y="247" on="1"/>
        <pt x="507" y="247" on="1"/>
        <pt x="461" y="626" on="1"/>
      </contour>
      <contour>
        <pt x="392" y="809" on="1"/>
        <pt x="371" y="809" on="0"/>
        <pt x="341" y="844" on="0"/>
        <pt x="341" y="868" on="1"/>
        <pt x="341" y="892" on="0"/>
        <pt x="371" y="926" on="0"/>
        <pt x="392" y="926" on="1"/>
        <pt x="414" y="926" on="0"/>
        <pt x="443" y="892" on="0"/>
        <pt x="443" y="868" on="1"/>
        <pt x="443" y="844" on="0"/>
        <pt x="414" y="809" on="0"/>
      </contour>
      <contour>
        <pt x="590" y="809" on="1"/>
        <pt x="569" y="809" on="0"/>
        <pt x="540" y="844" on="0"/>
        <pt x="540" y="868" on="1"/>
        <pt x="540" y="892" on="0"/>
        <pt x="569" y="926" on="0"/>
        <pt x="590" y="926" on="1"/>
        <pt x="612" y="926" on="0"/>
        <pt x="640" y="892" on="0"/>
        <pt x="640" y="868" on="1"/>
        <pt x="640" y="844" on="0"/>
        <pt x="612" y="809" on="0"/>
      </contour>
    </TTGlyph>
    <TTGlyph name="Agrave" xMin="54" yMin="0" xMax="640" yMax="944">
      <contour>
        <pt x="54" y="0" on="1"/>
        <pt x="426" y="730" on="1"/>
        <pt x="537" y="730" on="1"/>
        <pt x="640" y="0" on="1"/>
        <pt x="543" y="0" on="1"/>
        <pt x="523" y="160" on="1"/>
        <pt x="236" y="160" on="1"/>
        <pt x="157" y="0" on="1"/>
      </contour>
      <contour>
        <pt x="279" y="247" on="1"/>
        <pt x="512" y="247" on="1"/>
        <pt x="466" y="626" on="1"/>
      </contour>
      <contour>
        <pt x="480" y="813" on="1"/>
        <pt x="448" y="840" on="0"/>
        <pt x="426" y="860" on="1"/>
        <pt x="404" y="882" on="0"/>
        <pt x="404" y="905" on="1"/>
        <pt x="404" y="915" on="0"/>
        <pt x="419" y="944" on="0"/>
        <pt x="438" y="944" on="1"/>
        <pt x="455" y="944" on="0"/>
        <pt x="468" y="927" on="1"/>
        <pt x="485" y="903" on="0"/>
        <pt x="529" y="841" on="0"/>
        <pt x="550" y="813" on="1"/>
      </contour>
    </TTGlyph>
    <TTGlyph name="Alpha" xMin="81" yMin="0" xMax="667" yMax="739">
      <component glyphName="A" x="27" y="0" flags="0x4"/>
    </TTGlyph>
    <TTGlyph name="Alphatonos" xMin="54" yMin="0" xMax="640" yMax="739">
      <component glyphName="A" x="0" y="0" flags="0x204"/>
      <component glyphName="tonos.case" x="7" y="0" flags="0x4"/>
    </TTGlyph>
    <TTGlyph name="Amacron" xMin="54" yMin="0" xMax="640" yMax="906">
      <contour>
        <pt x="54" y="0" on="1"/>
        <pt x="426" y="730" on="1"/>
        <pt x="537" y="730" on="1"/>
        <pt x="640" y="0" on="1"/>
        <pt x="543" y="0" on="1"/>
        <pt x="523" y="160" on="1"/>
        <pt x="236" y="160" on="1"/>
        <pt x="157" y="0" on="1"/>
      </contour>
      <contour>
        <pt x="279" y="247" on="1"/>
        <pt x="512" y="247" on="1"/>
        <pt x="466" y="626" on="1"/>
      </contour>
      <contour>
        <pt x="359" y="833" on="1"/>
        <pt x="373" y="906" on="1"/>
        <pt x="635" y="906" on="1"/>
        <pt x="621" y="833" on="1"/>
      </contour>
    </TTGlyph>
    <TTGlyph name="Aogonek" xMin="54" yMin="-191" xMax="640" yMax="739">
      <contour>
        <pt x="54" y="0" on="1"/>
        <pt x="426" y="739" on="1"/>
        <pt x="537" y="739" on="1"/>
        <pt x="640" y="0" on="1"/>
        <pt x="596" y="-19" on="0"/>
        <pt x="538" y="-70" on="0"/>
        <pt x="538" y="-98" on="1"/>
        <pt x="538" y="-111" on="0"/>
        <pt x="560" y="-129" on="0"/>
        <pt x="576" y="-129" on="1"/>
        <pt x="596" y="-129" on="0"/>
        <pt x="619" y="-118" on="1"/>
        <pt x="608" y="-178" on="1"/>
        <pt x="571" y="-191" on="0"/>
        <pt x="544" y="-191" on="1"/>
        <pt x="506" y="-191" on="0"/>
        <pt x="465" y="-148" on="0"/>
        <pt x="465" y="-117" on="1"/>
        <pt x="465" y="-80" on="0"/>
        <pt x="520" y="-15" on="0"/>
        <pt x="566" y="0" on="1"/>
        <pt x="543" y="0" on="1"/>
        <pt x="523" y="162" on="1"/>
        <pt x="236" y="162" on="1"/>
        <pt x="157" y="0" on="1"/>
      </contour>
      <contour>
        <pt x="279" y="250" on="1"/>
        <pt x="512" y="250" on="1"/>
        <pt x="466" y="634" on="1"/>
      </contour>
    </TTGlyph>
    <TTGlyph name="Aring" xMin="54" yMin="0" xMax="640" yMax="915">
      <contour>
        <pt x="54" y="0" on="1"/>
        <pt x="426" y="730" on="1"/>
        <pt x="537" y="730" on="1"/>
        <pt x="640" y="0" on="1"/>
        <pt x="543" y="0" on="1"/>
        <pt x="523" y="160" on="1"/>
        <pt x="236" y="160" on="1"/>
        <pt x="157" y="0" on="1"/>
      </contour>
      <contour>
        <pt x="279" y="247" on="1"/>
        <pt x="512" y="247" on="1"/>
        <pt x="466" y="626" on="1"/>
      </contour>
      <contour>
        <pt x="490" y="676" on="1"/>
        <pt x="460" y="676" on="0"/>
        <pt x="413" y="709" on="0"/>
        <pt x="384" y="764" on="0"/>
        <pt x="384" y="796" on="1"/>
        <pt x="384" y="828" on="0"/>
        <pt x="413" y="882" on="0"/>
        <pt x="460" y="915" on="0"/>
        <pt x="490" y="915" on="1"/>
        <pt x="533" y="915" on="0"/>
        <pt x="591" y="844" on="0"/>
        <pt x="591" y="796" on="1"/>
        <pt x="591" y="747" on="0"/>
        <pt x="533" y="676" on="0"/>
      </contour>
      <contour>
        <pt x="487" y="740" on="1"/>
        <pt x="509" y="740" on="0"/>
        <pt x="537" y="773" on="0"/>
        <pt x="537" y="796" on="1"/>
        <pt x="537" y="819" on="0"/>
        <pt x="509" y="851" on="0"/>
        <pt x="487" y="851" on="1"/>
        <pt x="466" y="851" on="0"/>
        <pt x="438" y="819" on="0"/>
        <pt x="438" y="796" on="1"/>
        <pt x="438" y="773" on="0"/>
        <pt x="466" y="740" on="0"/>
      </contour>
    </TTGlyph>
    <TTGlyph name="Atilde" xMin="54" yMin="0" xMax="640" yMax="931">
      <contour>
        <pt x="54" y="0" on="1"/>
        <pt x="410" y="730" on="1"/>
        <pt x="516" y="730" on="1"/>
        <pt x="615" y="0" on="1"/>
        <pt x="522" y="0" on="1"/>
        <pt x="502" y="160" on="1"/>
        <pt x="227" y="160" on="1"/>
        <pt x="153" y="0" on="1"/>
      </contour>
      <contour>
        <pt x="269" y="247" on="1"/>
        <pt x="493" y="247" on="1"/>
        <pt x="448" y="626" on="1"/>
      </contour>
      <contour>
        <pt x="542" y="816" on="1"/>
        <pt x="516" y="816" on="0"/>
        <pt x="481" y="839" on="0"/>
        <pt x="449" y="862" on="0"/>
        <pt x="425" y="862" on="1"/>
        <pt x="385" y="862" on="0"/>
        <pt x="369" y="819" on="1"/>
        <pt x="310" y="819" on="1"/>
        <pt x="328" y="876" on="0"/>
        <pt x="390" y="931" on="0"/>
        <pt x="425" y="931" on="1"/>
        <pt x="456" y="931" on="0"/>
        <pt x="493" y="908" on="0"/>
        <pt x="524" y="885" on="0"/>
        <pt x="542" y="885" on="1"/>
        <pt x="559" y="885" on="0"/>
        <pt x="579" y="906" on="0"/>
        <pt x="589" y="917" on="1"/>
        <pt x="601" y="931" on="0"/>
        <pt x="614" y="931" on="1"/>
        <pt x="625" y="931" on="0"/>
        <pt x="640" y="911" on="0"/>
        <pt x="640" y="897" on="1"/>
        <pt x="640" y="887" on="0"/>
        <pt x="636" y="879" on="1"/>
        <pt x="624" y="857" on="0"/>
        <pt x="579" y="816" on="0"/>
      </contour>
    </TTGlyph>
    <TTGlyph name="B" xMin="54" yMin="0" xMax="640" yMax="739">
      <contour>
        <pt x="54" y="0" on="1"/>
        <pt x="195" y="739" on="1"/>
        <pt x="445" y="739" on="1"/>
        <pt x="512" y="739" on="0"/>
        <pt x="599" y="692" on="0"/>
        <pt x="640" y="616" on="0"/>
        <pt x="640" y="573" on="1"/>
        <pt x="640" y="520" on="0"/>
        <pt x="583" y="418" on="0"/>
        <pt x="527" y="390" on="1"/>
        <pt x="568" y="371" on="0"/>
        <pt x="608" y="293" on="0"/>
        <pt x="608" y="245" on="1"/>
        <pt x="608" y="202" on="0"/>
        <pt x="576" y="116" on="0"/>
        <pt x="509" y="45" on="0"/>
        <pt x="407" y="0" on="0"/>
        <pt x="339" y="0" on="1"/>
      </contour>
      <contour>
        <pt x="231" y="422" on="1"/>
        <pt x="402" y="422" on="1"/>
        <pt x="448" y="422" on="0"/>
        <pt x="509" y="461" on="0"/>
        <pt x="541" y="521" on="0"/>
        <pt x="541" y="552" on="1"/>
        <pt x="541" y="591" on="0"/>
        <pt x="491" y="651" on="0"/>
        <pt x="438" y="651" on="1"/>
        <pt x="273" y="651" on="1"/>
      </contour>
      <contour>
        <pt x="166" y="87" on="1"/>
        <pt x="346" y="87" on="1"/>
        <pt x="397" y="87" on="0"/>
        <pt x="467" y="133" on="0"/>
        <pt x="506" y="201" on="0"/>
        <pt x="506" y="236" on="1"/>
        <pt x="506" y="277" on="0"/>
        <pt x="448" y="341" on="0"/>
        <pt x="386" y="341" on="1"/>
        <pt x="215" y="341" on="1"/>
      </contour>
    </TTGlyph>
    <TTGlyph name="Beta" xMin="81" yMin="0" xMax="667" yMax="739">
      <component glyphName="B" x="27" y="0" flags="0x4"/>
    </TTGlyph>
    <TTGlyph name="C" xMin="54" yMin="-13" xMax="640" yMax="752">
      <contour>
        <pt x="309" y="-13" on="1"/>
        <pt x="239" y="-13" on="0"/>
        <pt x="142" y="37" on="0"/>
        <pt x="81" y="123" on="0"/>
        <pt x="54" y="234" on="0"/>
        <pt x="54" y="290" on="1"/>
        <pt x="54" y="383" on="0"/>
        <pt x="107" y="550" on="0"/>
        <pt x="202" y="678" on="0"/>
        <pt x="333" y="752" on="0"/>
        <pt x="413" y="752" on="1"/>
        <pt x="497" y="752" on="0"/>
        <pt x="617" y="669" on="0"/>
        <pt x="640" y="584" on="1"/>
        <pt x="554" y="551" on="1"/>
        <pt x="538" y="606" on="0"/>
        <pt x="459" y="664" on="0"/>
        <pt x="403" y="664" on="1"/>
        <pt x="344" y="664" on="0"/>
        <pt x="250" y="601" on="0"/>
        <pt x="184" y="498" on="0"/>
        <pt x="147" y="368" on="0"/>
        <pt x="147" y="301" on="1"/>
        <pt x="147" y="235" on="0"/>
        <pt x="190" y="132" on="0"/>
        <pt x="267" y="74" on="0"/>
        <pt x="319" y="74" on="1"/>
        <pt x="383" y="74" on="0"/>
        <pt x="470" y="130" on="0"/>
        <pt x="505" y="189" on="1"/>
        <pt x="582" y="155" on="1"/>
        <pt x="537" y="71" on="0"/>
        <pt x="397" y="-13" on="0"/>
      </contour>
    </TTGlyph>
    <TTGlyph name="Cacute" xMin="54" yMin="-13" xMax="640" yMax="944">
      <contour>
        <pt x="309" y="-13" on="1"/>
        <pt x="239" y="-13" on="0"/>
        <pt x="142" y="37" on="0"/>
        <pt x="81" y="122" on="0"/>
        <pt x="54" y="231" on="0"/>
        <pt x="54" y="287" on="1"/>
        <pt x="54" y="378" on="0"/>
        <pt x="107" y="543" on="0"/>
        <pt x="202" y="670" on="0"/>
        <pt x="333" y="743" on="0"/>
        <pt x="413" y="743" on="1"/>
        <pt x="497" y="743" on="0"/>
        <pt x="617" y="661" on="0"/>
        <pt x="640" y="577" on="1"/>
        <pt x="554" y="544" on="1"/>
        <pt x="538" y="599" on="0"/>
        <pt x="459" y="656" on="0"/>
        <pt x="403" y="656" on="1"/>
        <pt x="344" y="656" on="0"/>
        <pt x="250" y="594" on="0"/>
        <pt x="184" y="492" on="0"/>
        <pt x="147" y="364" on="0"/>
        <pt x="147" y="297" on="1"/>
        <pt x="147" y="232" on="0"/>
        <pt x="190" y="130" on="0"/>
        <pt x="267" y="73" on="0"/>
        <pt x="319" y="73" on="1"/>
        <pt x="383" y="73" on="0"/>
        <pt x="470" y="128" on="0"/>
        <pt x="505" y="187" on="1"/>
        <pt x="582" y="153" on="1"/>
        <pt x="537" y="70" on="0"/>
        <pt x="397" y="-13" on="0"/>
      </contour>
      <contour>
        <pt x="363" y="813" on="1"/>
        <pt x="367" y="816" on="0"/>
        <pt x="403" y="850" on="0"/>
        <pt x="449" y="893" on="0"/>
        <pt x="489" y="929" on="0"/>
        <pt x="495" y="934" on="1"/>
        <pt x="509" y="944" on="0"/>
        <pt x="521" y="944" on="1"/>
        <pt x="536" y="944" on="0"/>
        <pt x="556" y="921" on="0"/>
        <pt x="556" y="905" on="1"/>
        <pt x="556" y="891" on="0"/>
        <pt x="544" y="873" on="0"/>
        <pt x="538" y="868" on="1"/>
        <pt x="531" y="863" on="0"/>
        <pt x="505" y="847" on="0"/>
        <pt x="471" y="829" on="0"/>
        <pt x="446" y="815" on="0"/>
        <pt x="441" y="813" on="1"/>
      </contour>
    </TTGlyph>
    <TTGlyph name="Ccaron" xMin="54" yMin="-13" xMax="640" yMax="933">
      <contour>
        <pt x="309" y="-13" on="1"/>
        <pt x="239" y="-13" on="0"/>
        <pt x="142" y="37" on="0"/>
        <pt x="81" y="122" on="0"/>
        <pt x="54" y="231" on="0"/>
        <pt x="54" y="287" on="1"/>
        <pt x="54" y="378" on="0"/>
        <pt x="107" y="543" on="0"/>
        <pt x="202" y="670" on="0"/>
        <pt x="333" y="743" on="0"/>
        <pt x="413" y="743" on="1"/>
        <pt x="497" y="743" on="0"/>
        <pt x="617" y="661" on="0"/>
        <pt x="640" y="577" on="1"/>
        <pt x="554" y="544" on="1"/>
        <pt x="538" y="599" on="0"/>
        <pt x="459" y="656" on="0"/>
        <pt x="403" y="656" on="1"/>
        <pt x="344" y="656" on="0"/>
        <pt x="250" y="594" on="0"/>
        <pt x="184" y="492" on="0"/>
        <pt x="147" y="364" on="0"/>
        <pt x="147" y="297" on="1"/>
        <pt x="147" y="232" on="0"/>
        <pt x="190" y="130" on="0"/>
        <pt x="267" y="73" on="0"/>
        <pt x="319" y="73" on="1"/>
        <pt x="383" y="73" on="0"/>
        <pt x="470" y="128" on="0"/>
        <pt x="505" y="187" on="1"/>
        <pt x="582" y="153" on="1"/>
        <pt x="537" y="70" on="0"/>
        <pt x="397" y="-13" on="0"/>
      </contour>
      <contour>
        <pt x="426" y="802" on="1"/>
        <pt x="397" y="802" on="0"/>
        <pt x="382" y="823" on="1"/>
        <pt x="293" y="933" on="1"/>
        <pt x="382" y="933" on="1"/>
        <pt x="434" y="867" on="1"/>
        <pt x="513" y="933" on="1"/>
        <pt x="607" y="933" on="1"/>
        <pt x="478" y="823" on="1"/>
        <pt x="453" y="802" on="0"/>
      </contour>
    </TTGlyph>
    <TTGlyph name="Ccedilla" xMin="54" yMin="-200" xMax="640" yMax="752">
      <contour>
        <pt x="309" y="-13" on="1"/>
        <pt x="239" y="-13" on="0"/>
        <pt x="142" y="37" on="0"/>
        <pt x="81" y="123" on="0"/>
        <pt x="54" y="234" on="0"/>
        <pt x="54" y="290" on="1"/>
        <pt x="54" y="383" on="0"/>
        <pt x="107" y="550" on="0"/>
        <pt x="202" y="678" on="0"/>
        <pt x="333" y="752" on="0"/>
        <pt x="413" y="752" on="1"/>
        <pt x="497" y="752" on="0"/>
        <pt x="617" y="669" on="0"/>
        <pt x="640" y="584" on="1"/>
        <pt x="554" y="551" on="1"/>
        <pt x="538" y="606" on="0"/>
        <pt x="459" y="664" on="0"/>
        <pt x="403" y="664" on="1"/>
        <pt x="344" y="664" on="0"/>
        <pt x="250" y="601" on="0"/>
        <pt x="184" y="498" on="0"/>
        <pt x="147" y="368" on="0"/>
        <pt x="147" y="301" on="1"/>
        <pt x="147" y="235" on="0"/>
        <pt x="190" y="132" on="0"/>
        <pt x="267" y="74" on="0"/>
        <pt x="319" y="74" on="1"/>
        <pt x="383" y="74" on="0"/>
        <pt x="470" y="130" on="0"/>
        <pt x="505" y="189" on="1"/>
        <pt x="582" y="155" on="1"/>
        <pt x="537" y="71" on="0"/>
        <pt x="397" y="-13" on="0"/>
      </contour>
      <contour>
        <pt x="250" y="-200" on="1"/>
        <pt x="214" y="-200" on="0"/>
        <pt x="165" y="-180" on="1"/>
        <pt x="188" y="-140" on="1"/>
        <pt x="204" y="-147" on="0"/>
        <pt x="232" y="-155" on="0"/>
        <pt x="243" y="-155" on="1"/>
        <pt x="269" y="-155" on="0"/>
        <pt x="298" y="-129" on="0"/>
        <pt x="298" y="-115" on="1"/>
        <pt x="298" y="-105" on="0"/>
        <pt x="283" y="-91" on="0"/>
        <pt x="265" y="-91" on="1"/>
        <pt x="250" y="-91" on="0"/>
        <pt x="236" y="-96" on="0"/>
        <pt x="231" y="-96" on="1"/>
        <pt x="212" y="-96" on="0"/>
        <pt x="212" y="-77" on="1"/>
        <pt x="212" y="-71" on="0"/>
        <pt x="218" y="-63" on="1"/>
        <pt x="284" y="27" on="1"/>
        <pt x="313" y="4" on="1"/>
        <pt x="273" y="-50" on="1"/>
        <pt x="280" y="-49" on="0"/>
        <pt x="291" y="-48" on="0"/>
        <pt x="297" y="-48" on="1"/>
        <pt x="329" y="-48" on="0"/>
        <pt x="360" y="-83" on="0"/>
        <pt x="360" y="-106" on="1"/>
        <pt x="360" y="-139" on="0"/>
        <pt x="304" y="-200" on="0"/>
      </contour>
    </TTGlyph>
    <TTGlyph name="Ccircumflex" xMin="54" yMin="-13" xMax="640" yMax="950">
      <component glyphName="C" x="0" y="0" flags="0x204"/>
      <component glyphName="uni0302.case" x="193" y="0" flags="0x4"/>
    </TTGlyph>
    <TTGlyph name="Cdotaccent" xMin="54" yMin="-13" xMax="640" yMax="943">
      <contour>
        <pt x="309" y="-13" on="1"/>
        <pt x="239" y="-13" on="0"/>
        <pt x="142" y="37" on="0"/>
        <pt x="81" y="122" on="0"/>
        <pt x="54" y="231" on="0"/>
        <pt x="54" y="287" on="1"/>
        <pt x="54" y="378" on="0"/>
        <pt x="107" y="543" on="0"/>
        <pt x="202" y="670" on="0"/>
        <pt x="333" y="743" on="0"/>
        <pt x="413" y="743" on="1"/>
        <pt x="497" y="743" on="0"/>
        <pt x="617" y="661" on="0"/>
        <pt x="640" y="577" on="1"/>
        <pt x="554" y="544" on="1"/>
        <pt x="538" y="599" on="0"/>
        <pt x="459" y="656" on="0"/>
        <pt x="403" y="656" on="1"/>
        <pt x="344" y="656" on="0"/>
        <pt x="250" y="594" on="0"/>
        <pt x="184" y="492" on="0"/>
        <pt x="147" y="364" on="0"/>
        <pt x="147" y="297" on="1"/>
        <pt x="147" y="232" on="0"/>
        <pt x="190" y="130" on="0"/>
        <pt x="267" y="73" on="0"/>
        <pt x="319" y="73" on="1"/>
        <pt x="383" y="73" on="0"/>
        <pt x="470" y="128" on="0"/>
        <pt x="505" y="187" on="1"/>
        <pt x="582" y="153" on="1"/>
        <pt x="537" y="70" on="0"/>
        <pt x="397" y="-13" on="0"/>
      </contour>
      <contour>
        <pt x="440" y="825" on="1"/>
        <pt x="419" y="825" on="0"/>
        <pt x="388" y="860" on="0"/>
        <pt x="388" y="884" on="1"/>
        <pt x="388" y="909" on="0"/>
        <pt x="419" y="943" on="0"/>
        <pt x="440" y="943" on="1"/>
        <pt x="463" y="943" on="0"/>
        <pt x="494" y="909" on="0"/>
        <pt x="494" y="884" on="1"/>
        <pt x="494" y="860" on="0"/>
        <pt x="463" y="825" on="0"/>
      </contour>
    </TTGlyph>
    <TTGlyph name="Chi" xMin="81" yMin="0" xMax="667" yMax="739">
      <component glyphName="X" x="27" y="0" flags="0x4"/>
    </TTGlyph>
    <TTGlyph name="D" xMin="46" yMin="0" xMax="652" yMax="739">
      <contour>
        <pt x="46" y="0" on="1"/>
        <pt x="179" y="739" on="1"/>
        <pt x="352" y="739" on="1"/>
        <pt x="519" y="739" on="0"/>
        <pt x="652" y="546" on="0"/>
        <pt x="625" y="353" on="1"/>
        <pt x="608" y="235" on="0"/>
        <pt x="497" y="77" on="0"/>
        <pt x="326" y="0" on="0"/>
        <pt x="219" y="0" on="1"/>
      </contour>
      <contour>
        <pt x="152" y="87" on="1"/>
        <pt x="232" y="87" on="1"/>
        <pt x="309" y="87" on="0"/>
        <pt x="436" y="140" on="0"/>
        <pt x="521" y="259" on="0"/>
        <pt x="535" y="359" on="1"/>
        <pt x="558" y="515" on="0"/>
        <pt x="461" y="651" on="0"/>
        <pt x="333" y="651" on="1"/>
        <pt x="254" y="651" on="1"/>
      </contour>
    </TTGlyph>
    <TTGlyph name="Dcaron" xMin="46" yMin="0" xMax="652" yMax="933">
      <contour>
        <pt x="46" y="0" on="1"/>
        <pt x="179" y="730" on="1"/>
        <pt x="352" y="730" on="1"/>
        <pt x="519" y="730" on="0"/>
        <pt x="652" y="540" on="0"/>
        <pt x="625" y="349" on="1"/>
        <pt x="608" y="232" on="0"/>
        <pt x="497" y="76" on="0"/>
        <pt x="326" y="0" on="0"/>
        <pt x="219" y="0" on="1"/>
      </contour>
      <contour>
        <pt x="152" y="86" on="1"/>
        <pt x="232" y="86" on="1"/>
        <pt x="309" y="86" on="0"/>
        <pt x="436" y="138" on="0"/>
        <pt x="521" y="256" on="0"/>
        <pt x="535" y="355" on="1"/>
        <pt x="558" y="509" on="0"/>
        <pt x="461" y="643" on="0"/>
        <pt x="333" y="643" on="1"/>
        <pt x="254" y="643" on="1"/>
      </contour>
      <contour>
        <pt x="420" y="802" on="1"/>
        <pt x="391" y="802" on="0"/>
        <pt x="376" y="823" on="1"/>
        <pt x="291" y="933" on="1"/>
        <pt x="376" y="933" on="1"/>
        <pt x="427" y="867" on="1"/>
        <pt x="503" y="933" on="1"/>
        <pt x="594" y="933" on="1"/>
        <pt x="469" y="823" on="1"/>
        <pt x="445" y="802" on="0"/>
      </contour>
    </TTGlyph>
    <TTGlyph name="Dcroat" xMin="46" yMin="0" xMax="651" yMax="739">
      <contour>
        <pt x="71" y="0" on="1"/>
        <pt x="128" y="335" on="1"/>
        <pt x="46" y="335" on="1"/>
        <pt x="61" y="424" on="1"/>
        <pt x="143" y="424" on="1"/>
        <pt x="199" y="739" on="1"/>
        <pt x="364" y="739" on="1"/>
        <pt x="523" y="739" on="0"/>
        <pt x="651" y="546" on="0"/>
        <pt x="625" y="353" on="1"/>
        <pt x="609" y="235" on="0"/>
        <pt x="503" y="77" on="0"/>
        <pt x="339" y="0" on="0"/>
        <pt x="238" y="0" on="1"/>
      </contour>
      <contour>
        <pt x="172" y="87" on="1"/>
        <pt x="249" y="87" on="1"/>
        <pt x="323" y="87" on="0"/>
        <pt x="444" y="140" on="0"/>
        <pt x="527" y="259" on="0"/>
        <pt x="539" y="359" on="1"/>
        <pt x="561" y="515" on="0"/>
        <pt x="469" y="651" on="0"/>
        <pt x="346" y="651" on="1"/>
        <pt x="270" y="651" on="1"/>
        <pt x="231" y="424" on="1"/>
        <pt x="356" y="424" on="1"/>
        <pt x="341" y="335" on="1"/>
        <pt x="216" y="335" on="1"/>
      </contour>
    </TTGlyph>
    <TTGlyph name="E" xMin="54" yMin="0" xMax="640" yMax="739">
      <contour>
        <pt x="54" y="0" on="1"/>
        <pt x="193" y="739" on="1"/>
        <pt x="640" y="739" on="1"/>
        <pt x="623" y="649" on="1"/>
        <pt x="271" y="649" on="1"/>
        <pt x="229" y="425" on="1"/>
        <pt x="490" y="425" on="1"/>
        <pt x="471" y="336" on="1"/>
        <pt x="212" y="336" on="1"/>
        <pt x="165" y="90" on="1"/>
        <pt x="517" y="90" on="1"/>
        <pt x="501" y="0" on="1"/>
      </contour>
    </TTGlyph>
    <TTGlyph name="Eacute" xMin="54" yMin="0" xMax="640" yMax="944">
      <contour>
        <pt x="54" y="0" on="1"/>
        <pt x="193" y="730" on="1"/>
        <pt x="640" y="730" on="1"/>
        <pt x="623" y="641" on="1"/>
        <pt x="271" y="641" on="1"/>
        <pt x="229" y="420" on="1"/>
        <pt x="490" y="420" on="1"/>
        <pt x="471" y="332" on="1"/>
        <pt x="212" y="332" on="1"/>
        <pt x="165" y="89" on="1"/>
        <pt x="517" y="89" on="1"/>
        <pt x="501" y="0" on="1"/>
      </contour>
      <contour>
        <pt x="365" y="813" on="1"/>
        <pt x="370" y="816" on="0"/>
        <pt x="406" y="850" on="0"/>
        <pt x="452" y="893" on="0"/>
        <pt x="492" y="929" on="0"/>
        <pt x="499" y="934" on="1"/>
        <pt x="513" y="944" on="0"/>
        <pt x="525" y="944" on="1"/>
        <pt x="539" y="944" on="0"/>
        <pt x="560" y="921" on="0"/>
        <pt x="560" y="905" on="1"/>
        <pt x="560" y="891" on="0"/>
        <pt x="548" y="873" on="0"/>
        <pt x="541" y="868" on="1"/>
        <pt x="536" y="863" on="0"/>
        <pt x="508" y="847" on="0"/>
        <pt x="475" y="829" on="0"/>
        <pt x="449" y="815" on="0"/>
        <pt x="445" y="813" on="1"/>
      </contour>
    </TTGlyph>
    <TTGlyph name="Ebreve" xMin="54" yMin="0" xMax="640" yMax="950">
      <component glyphName="E" x="0" y="0" flags="0x204"/>
      <component glyphName="uni0306.case" x="244" y="0" flags="0x4"/>
    </TTGlyph>
    <TTGlyph name="Ecaron" xMin="54" yMin="0" xMax="640" yMax="933">
      <contour>
        <pt x="54" y="0" on="1"/>
        <pt x="193" y="730" on="1"/>
        <pt x="640" y="730" on="1"/>
        <pt x="623" y="641" on="1"/>
        <pt x="271" y="641" on="1"/>
        <pt x="229" y="420" on="1"/>
        <pt x="490" y="420" on="1"/>
        <pt x="471" y="332" on="1"/>
        <pt x="212" y="332" on="1"/>
        <pt x="165" y="89" on="1"/>
        <pt x="517" y="89" on="1"/>
        <pt x="501" y="0" on="1"/>
      </contour>
      <contour>
        <pt x="430" y="802" on="1"/>
        <pt x="400" y="802" on="0"/>
        <pt x="384" y="823" on="1"/>
        <pt x="295" y="933" on="1"/>
        <pt x="384" y="933" on="1"/>
        <pt x="437" y="867" on="1"/>
        <pt x="516" y="933" on="1"/>
        <pt x="612" y="933" on="1"/>
        <pt x="481" y="823" on="1"/>
        <pt x="456" y="802" on="0"/>
      </contour>
    </TTGlyph>
    <TTGlyph name="Ecircumflex" xMin="54" yMin="0" xMax="640" yMax="947">
      <contour>
        <pt x="54" y="0" on="1"/>
        <pt x="193" y="730" on="1"/>
        <pt x="640" y="730" on="1"/>
        <pt x="623" y="641" on="1"/>
        <pt x="271" y="641" on="1"/>
        <pt x="229" y="420" on="1"/>
        <pt x="490" y="420" on="1"/>
        <pt x="471" y="332" on="1"/>
        <pt x="212" y="332" on="1"/>
        <pt x="165" y="89" on="1"/>
        <pt x="517" y="89" on="1"/>
        <pt x="501" y="0" on="1"/>
      </contour>
      <contour>
        <pt x="272" y="816" on="1"/>
        <pt x="403" y="927" on="1"/>
        <pt x="426" y="947" on="0"/>
        <pt x="455" y="947" on="1"/>
        <pt x="483" y="947" on="0"/>
        <pt x="500" y="927" on="1"/>
        <pt x="589" y="816" on="1"/>
        <pt x="499" y="816" on="1"/>
        <pt x="445" y="883" on="1"/>
        <pt x="367" y="816" on="1"/>
      </contour>
    </TTGlyph>
    <TTGlyph name="Edieresis" xMin="54" yMin="0" xMax="640" yMax="926">
      <contour>
        <pt x="54" y="0" on="1"/>
        <pt x="193" y="730" on="1"/>
        <pt x="640" y="730" on="1"/>
        <pt x="623" y="641" on="1"/>
        <pt x="271" y="641" on="1"/>
        <pt x="229" y="420" on="1"/>
        <pt x="490" y="420" on="1"/>
        <pt x="471" y="332" on="1"/>
        <pt x="212" y="332" on="1"/>
        <pt x="165" y="89" on="1"/>
        <pt x="517" y="89" on="1"/>
        <pt x="501" y="0" on="1"/>
      </contour>
      <contour>
        <pt x="337" y="809" on="1"/>
        <pt x="315" y="809" on="0"/>
        <pt x="284" y="844" on="0"/>
        <pt x="284" y="868" on="1"/>
        <pt x="284" y="892" on="0"/>
        <pt x="315" y="926" on="0"/>
        <pt x="337" y="926" on="1"/>
        <pt x="359" y="926" on="0"/>
        <pt x="390" y="892" on="0"/>
        <pt x="390" y="868" on="1"/>
        <pt x="390" y="844" on="0"/>
        <pt x="359" y="809" on="0"/>
      </contour>
      <contour>
        <pt x="544" y="809" on="1"/>
        <pt x="523" y="809" on="0"/>
        <pt x="492" y="844" on="0"/>
        <pt x="492" y="868" on="1"/>
        <pt x="492" y="892" on="0"/>
        <pt x="523" y="926" on="0"/>
        <pt x="544" y="926" on="1"/>
        <pt x="567" y="926" on="0"/>
        <pt x="598" y="892" on="0"/>
        <pt x="598" y="868" on="1"/>
        <pt x="598" y="844" on="0"/>
        <pt x="567" y="809" on="0"/>
      </contour>
    </TTGlyph>
    <TTGlyph name="Edotaccent" xMin="54" yMin="0" xMax="640" yMax="943">
      <contour>
        <pt x="54" y="0" on="1"/>
        <pt x="193" y="730" on="1"/>
        <pt x="640" y="730" on="1"/>
        <pt x="623" y="641" on="1"/>
        <pt x="271" y="641" on="1"/>
        <pt x="229" y="420" on="1"/>
        <pt x="490" y="420" on="1"/>
        <pt x="471" y="332" on="1"/>
        <pt x="212" y="332" on="1"/>
        <pt x="165" y="89" on="1"/>
        <pt x="517" y="89" on="1"/>
        <pt x="501" y="0" on="1"/>
      </contour>
      <contour>
        <pt x="444" y="825" on="1"/>
        <pt x="422" y="825" on="0"/>
        <pt x="391" y="860" on="0"/>
        <pt x="391" y="884" on="1"/>
        <pt x="391" y="909" on="0"/>
        <pt x="422" y="943" on="0"/>
        <pt x="444" y="943" on="1"/>
        <pt x="467" y="943" on="0"/>
        <pt x="497" y="909" on="0"/>
        <pt x="497" y="884" on="1"/>
        <pt x="497" y="860" on="0"/>
        <pt x="467" y="825" on="0"/>
      </contour>
    </TTGlyph>
    <TTGlyph name="Egrave" xMin="54" yMin="0" xMax="640" yMax="944">
      <contour>
        <pt x="54" y="0" on="1"/>
        <pt x="193" y="730" on="1"/>
        <pt x="640" y="730" on="1"/>
        <pt x="623" y="641" on="1"/>
        <pt x="271" y="641" on="1"/>
        <pt x="229" y="420" on="1"/>
        <pt x="490" y="420" on="1"/>
        <pt x="471" y="332" on="1"/>
        <pt x="212" y="332" on="1"/>
        <pt x="165" y="89" on="1"/>
        <pt x="517" y="89" on="1"/>
        <pt x="501" y="0" on="1"/>
      </contour>
      <contour>
        <pt x="423" y="813" on="1"/>
        <pt x="390" y="840" on="0"/>
        <pt x="369" y="860" on="1"/>
        <pt x="345" y="882" on="0"/>
        <pt x="345" y="905" on="1"/>
        <pt x="345" y="915" on="0"/>
        <pt x="360" y="944" on="0"/>
        <pt x="380" y="944" on="1"/>
        <pt x="398" y="944" on="0"/>
        <pt x="411" y="927" on="1"/>
        <pt x="430" y="903" on="0"/>
        <pt x="475" y="841" on="0"/>
        <pt x="495" y="813" on="1"/>
      </contour>
    </TTGlyph>
    <TTGlyph name="Emacron" xMin="54" yMin="0" xMax="640" yMax="906">
      <contour>
        <pt x="54" y="0" on="1"/>
        <pt x="193" y="730" on="1"/>
        <pt x="640" y="730" on="1"/>
        <pt x="623" y="641" on="1"/>
        <pt x="271" y="641" on="1"/>
        <pt x="229" y="420" on="1"/>
        <pt x="490" y="420" on="1"/>
        <pt x="471" y="332" on="1"/>
        <pt x="212" y="332" on="1"/>
        <pt x="165" y="89" on="1"/>
        <pt x="517" y="89" on="1"/>
        <pt x="501" y="0" on="1"/>
      </contour>
      <contour>
        <pt x="299" y="833" on="1"/>
        <pt x="312" y="906" on="1"/>
        <pt x="584" y="906" on="1"/>
        <pt x="570" y="833" on="1"/>
      </contour>
    </TTGlyph>
    <TTGlyph name="Eng" xMin="58" yMin="-182" xMax="632" yMax="739">
      <contour>
        <pt x="188" y="-182" on="1"/>
        <pt x="202" y="-99" on="1"/>
        <pt x="271" y="-99" on="1"/>
        <pt x="328" y="-99" on="0"/>
        <pt x="405" y="-37" on="0"/>
        <pt x="413" y="15" on="1"/>
        <pt x="248" y="633" on="1"/>
        <pt x="245" y="608" on="0"/>
        <pt x="238" y="534" on="0"/>
        <pt x="227" y="452" on="0"/>
        <pt x="221" y="415" on="1"/>
        <pt x="151" y="0" on="1"/>
        <pt x="58" y="0" on="1"/>
        <pt x="182" y="739" on="1"/>
        <pt x="309" y="739" on="1"/>
        <pt x="456" y="181" on="1"/>
        <pt x="458" y="206" on="0"/>
        <pt x="466" y="281" on="0"/>
        <pt x="476" y="365" on="0"/>
        <pt x="482" y="402" on="1"/>
        <pt x="539" y="739" on="1"/>
        <pt x="632" y="739" on="1"/>
        <pt x="510" y="15" on="1"/>
        <pt x="500" y="-45" on="0"/>
        <pt x="431" y="-134" on="0"/>
        <pt x="324" y="-182" on="0"/>
        <pt x="257" y="-182" on="1"/>
      </contour>
    </TTGlyph>
    <TTGlyph name="Eogonek" xMin="54" yMin="-191" xMax="640" yMax="739">
      <contour>
        <pt x="54" y="0" on="1"/>
        <pt x="193" y="739" on="1"/>
        <pt x="640" y="739" on="1"/>
        <pt x="623" y="649" on="1"/>
        <pt x="271" y="649" on="1"/>
        <pt x="229" y="425" on="1"/>
        <pt x="490" y="425" on="1"/>
        <pt x="471" y="336" on="1"/>
        <pt x="212" y="336" on="1"/>
        <pt x="165" y="90" on="1"/>
        <pt x="517" y="90" on="1"/>
        <pt x="501" y="0" on="1"/>
      </contour>
      <contour>
        <pt x="371" y="-191" on="1"/>
        <pt x="331" y="-191" on="0"/>
        <pt x="288" y="-148" on="0"/>
        <pt x="288" y="-117" on="1"/>
        <pt x="288" y="-80" on="0"/>
        <pt x="346" y="-15" on="0"/>
        <pt x="393" y="0" on="1"/>
        <pt x="470" y="0" on="1"/>
        <pt x="424" y="-19" on="0"/>
        <pt x="364" y="-70" on="0"/>
        <pt x="364" y="-98" on="1"/>
        <pt x="364" y="-111" on="0"/>
        <pt x="387" y="-129" on="0"/>
        <pt x="405" y="-129" on="1"/>
        <pt x="424" y="-129" on="0"/>
        <pt x="448" y="-118" on="1"/>
        <pt x="437" y="-178" on="1"/>
        <pt x="399" y="-191" on="0"/>
      </contour>
    </TTGlyph>
    <TTGlyph name="Epsilon" xMin="81" yMin="0" xMax="667" yMax="739">
      <component glyphName="E" x="27" y="0" flags="0x4"/>
    </TTGlyph>
    <TTGlyph name="Epsilontonos" xMin="-27" yMin="0" xMax="640" yMax="739">
      <component glyphName="E" x="0" y="0" flags="0x204"/>
      <component glyphName="tonos.case" x="-118" y="0" flags="0x4"/>
    </TTGlyph>
    <TTGlyph name="Eta" xMin="81" yMin="0" xMax="667" yMax="739">
      <component glyphName="H" x="27" y="0" flags="0x4"/>
    </TTGlyph>
    <TTGlyph name="Etatonos" xMin="-27" yMin="0" xMax="640" yMax="739">
      <component glyphName="tonos.case" x="-118" y="0" flags="0x4"/>
      <component glyphName="H" x="0" y="0" flags="0x204"/>
    </TTGlyph>
    <TTGlyph name="Eth" xMin="46" yMin="0" xMax="651" yMax="739">
      <contour>
        <pt x="71" y="0" on="1"/>
        <pt x="128" y="335" on="1"/>
        <pt x="46" y="335" on="1"/>
        <pt x="61" y="424" on="1"/>
        <pt x="143" y="424" on="1"/>
        <pt x="199" y="739" on="1"/>
        <pt x="364" y="739" on="1"/>
        <pt x="523" y="739" on="0"/>
        <pt x="651" y="546" on="0"/>
        <pt x="625" y="353" on="1"/>
        <pt x="609" y="235" on="0"/>
        <pt x="503" y="77" on="0"/>
        <pt x="339" y="0" on="0"/>
        <pt x="238" y="0" on="1"/>
      </contour>
      <contour>
        <pt x="172" y="87" on="1"/>
        <pt x="249" y="87" on="1"/>
        <pt x="323" y="87" on="0"/>
        <pt x="444" y="140" on="0"/>
        <pt x="527" y="259" on="0"/>
        <pt x="539" y="359" on="1"/>
        <pt x="561" y="515" on="0"/>
        <pt x="469" y="651" on="0"/>
        <pt x="346" y="651" on="1"/>
        <pt x="270" y="651" on="1"/>
        <pt x="231" y="424" on="1"/>
        <pt x="356" y="424" on="1"/>
        <pt x="341" y="335" on="1"/>
        <pt x="216" y="335" on="1"/>
      </contour>
    </TTGlyph>
    <TTGlyph name="Euro" xMin="46" yMin="-10" xMax="582" yMax="730">
      <contour>
        <pt x="356" y="-10" on="1"/>
        <pt x="252" y="-10" on="0"/>
        <pt x="129" y="107" on="0"/>
        <pt x="129" y="205" on="1"/>
        <pt x="129" y="245" on="1"/>
        <pt x="46" y="245" on="1"/>
        <pt x="46" y="310" on="1"/>
        <pt x="129" y="310" on="1"/>
        <pt x="129" y="410" on="1"/>
        <pt x="46" y="410" on="1"/>
        <pt x="46" y="475" on="1"/>
        <pt x="129" y="475" on="1"/>
        <pt x="129" y="515" on="1"/>
        <pt x="129" y="613" on="0"/>
        <pt x="252" y="730" on="0"/>
        <pt x="356" y="730" on="1"/>
        <pt x="451" y="730" on="0"/>
        <pt x="572" y="627" on="0"/>
        <pt x="582" y="535" on="1"/>
        <pt x="490" y="535" on="1"/>
        <pt x="483" y="589" on="0"/>
        <pt x="412" y="650" on="0"/>
        <pt x="356" y="650" on="1"/>
        <pt x="294" y="650" on="0"/>
        <pt x="222" y="578" on="0"/>
        <pt x="222" y="515" on="1"/>
        <pt x="222" y="475" on="1"/>
        <pt x="392" y="475" on="1"/>
        <pt x="392" y="410" on="1"/>
        <pt x="222" y="410" on="1"/>
        <pt x="222" y="310" on="1"/>
        <pt x="392" y="310" on="1"/>
        <pt x="392" y="245" on="1"/>
        <pt x="222" y="245" on="1"/>
        <pt x="222" y="205" on="1"/>
        <pt x="222" y="142" on="0"/>
        <pt x="293" y="70" on="0"/>
        <pt x="356" y="70" on="1"/>
        <pt x="412" y="70" on="0"/>
        <pt x="483" y="131" on="0"/>
        <pt x="490" y="185" on="1"/>
        <pt x="582" y="185" on="1"/>
        <pt x="572" y="94" on="0"/>
        <pt x="451" y="-10" on="0"/>
      </contour>
    </TTGlyph>
    <TTGlyph name="F" xMin="54" yMin="0" xMax="640" yMax="739">
      <contour>
        <pt x="54" y="0" on="1"/>
        <pt x="199" y="739" on="1"/>
        <pt x="640" y="739" on="1"/>
        <pt x="622" y="649" on="1"/>
        <pt x="279" y="649" on="1"/>
        <pt x="235" y="425" on="1"/>
        <pt x="578" y="425" on="1"/>
        <pt x="561" y="336" on="1"/>
        <pt x="218" y="336" on="1"/>
        <pt x="151" y="0" on="1"/>
      </contour>
    </TTGlyph>
    <TTGlyph name="G" xMin="54" yMin="-13" xMax="640" yMax="752">
      <contour>
        <pt x="294" y="-13" on="1"/>
        <pt x="218" y="-13" on="0"/>
        <pt x="111" y="64" on="0"/>
        <pt x="54" y="202" on="0"/>
        <pt x="54" y="293" on="1"/>
        <pt x="54" y="386" on="0"/>
        <pt x="105" y="552" on="0"/>
        <pt x="201" y="679" on="0"/>
        <pt x="331" y="752" on="0"/>
        <pt x="409" y="752" on="1"/>
        <pt x="500" y="752" on="0"/>
        <pt x="619" y="668" on="0"/>
        <pt x="640" y="584" on="1"/>
        <pt x="554" y="551" on="1"/>
        <pt x="544" y="593" on="0"/>
        <pt x="469" y="664" on="0"/>
        <pt x="403" y="664" on="1"/>
        <pt x="343" y="664" on="0"/>
        <pt x="249" y="603" on="0"/>
        <pt x="183" y="499" on="0"/>
        <pt x="148" y="370" on="0"/>
        <pt x="148" y="302" on="1"/>
        <pt x="148" y="195" on="0"/>
        <pt x="240" y="76" on="0"/>
        <pt x="311" y="74" on="1"/>
        <pt x="359" y="72" on="0"/>
        <pt x="447" y="106" on="0"/>
        <pt x="514" y="193" on="0"/>
        <pt x="530" y="269" on="1"/>
        <pt x="536" y="292" on="1"/>
        <pt x="344" y="292" on="1"/>
        <pt x="360" y="381" on="1"/>
        <pt x="640" y="381" on="1"/>
        <pt x="569" y="0" on="1"/>
        <pt x="513" y="0" on="1"/>
        <pt x="508" y="91" on="1"/>
        <pt x="425" y="-13" on="0"/>
      </contour>
    </TTGlyph>
    <TTGlyph name="Gamma" xMin="38" yMin="0" xMax="617" yMax="739">
      <component glyphName="uni0413" x="-19" y="0" flags="0x4"/>
    </TTGlyph>
    <TTGlyph name="Gbreve" xMin="54" yMin="-13" xMax="640" yMax="933">
      <contour>
        <pt x="294" y="-13" on="1"/>
        <pt x="218" y="-13" on="0"/>
        <pt x="111" y="63" on="0"/>
        <pt x="54" y="200" on="0"/>
        <pt x="54" y="290" on="1"/>
        <pt x="54" y="381" on="0"/>
        <pt x="105" y="545" on="0"/>
        <pt x="201" y="671" on="0"/>
        <pt x="331" y="743" on="0"/>
        <pt x="409" y="743" on="1"/>
        <pt x="500" y="743" on="0"/>
        <pt x="619" y="660" on="0"/>
        <pt x="640" y="577" on="1"/>
        <pt x="554" y="544" on="1"/>
        <pt x="544" y="586" on="0"/>
        <pt x="469" y="656" on="0"/>
        <pt x="403" y="656" on="1"/>
        <pt x="343" y="656" on="0"/>
        <pt x="249" y="596" on="0"/>
        <pt x="183" y="493" on="0"/>
        <pt x="148" y="366" on="0"/>
        <pt x="148" y="298" on="1"/>
        <pt x="148" y="193" on="0"/>
        <pt x="240" y="75" on="0"/>
        <pt x="311" y="73" on="1"/>
        <pt x="359" y="71" on="0"/>
        <pt x="447" y="105" on="0"/>
        <pt x="514" y="191" on="0"/>
        <pt x="530" y="266" on="1"/>
        <pt x="536" y="289" on="1"/>
        <pt x="344" y="289" on="1"/>
        <pt x="360" y="376" on="1"/>
        <pt x="640" y="376" on="1"/>
        <pt x="569" y="0" on="1"/>
        <pt x="513" y="0" on="1"/>
        <pt x="508" y="90" on="1"/>
        <pt x="425" y="-13" on="0"/>
      </contour>
      <contour>
        <pt x="457" y="802" on="1"/>
        <pt x="416" y="802" on="0"/>
        <pt x="359" y="843" on="0"/>
        <pt x="331" y="904" on="0"/>
        <pt x="331" y="933" on="1"/>
        <pt x="399" y="933" on="1"/>
        <pt x="403" y="912" on="0"/>
        <pt x="433" y="875" on="0"/>
        <pt x="464" y="875" on="1"/>
        <pt x="495" y="875" on="0"/>
        <pt x="538" y="911" on="0"/>
        <pt x="551" y="933" on="1"/>
        <pt x="618" y="933" on="1"/>
        <pt x="606" y="902" on="0"/>
        <pt x="562" y="840" on="0"/>
        <pt x="499" y="802" on="0"/>
      </contour>
    </TTGlyph>
    <TTGlyph name="Gcaron" xMin="54" yMin="-13" xMax="640" yMax="950">
      <component glyphName="G" x="0" y="0" flags="0x204"/>
      <component glyphName="uni030C.case" x="210" y="0" flags="0x4"/>
    </TTGlyph>
    <TTGlyph name="Gcircumflex" xMin="54" yMin="-13" xMax="640" yMax="950">
      <component glyphName="G" x="0" y="0" flags="0x204"/>
      <component glyphName="uni0302.case" x="188" y="0" flags="0x4"/>
    </TTGlyph>
    <TTGlyph name="Gdotaccent" xMin="54" yMin="-13" xMax="640" yMax="943">
      <contour>
        <pt x="294" y="-13" on="1"/>
        <pt x="218" y="-13" on="0"/>
        <pt x="111" y="63" on="0"/>
        <pt x="54" y="200" on="0"/>
        <pt x="54" y="290" on="1"/>
        <pt x="54" y="381" on="0"/>
        <pt x="105" y="545" on="0"/>
        <pt x="201" y="671" on="0"/>
        <pt x="331" y="743" on="0"/>
        <pt x="409" y="743" on="1"/>
        <pt x="500" y="743" on="0"/>
        <pt x="619" y="660" on="0"/>
        <pt x="640" y="577" on="1"/>
        <pt x="554" y="544" on="1"/>
        <pt x="544" y="586" on="0"/>
        <pt x="469" y="656" on="0"/>
        <pt x="403" y="656" on="1"/>
        <pt x="343" y="656" on="0"/>
        <pt x="249" y="596" on="0"/>
        <pt x="183" y="493" on="0"/>
        <pt x="148" y="366" on="0"/>
        <pt x="148" y="298" on="1"/>
        <pt x="148" y="193" on="0"/>
        <pt x="240" y="75" on="0"/>
        <pt x="311" y="73" on="1"/>
        <pt x="359" y="71" on="0"/>
        <pt x="447" y="105" on="0"/>
        <pt x="514" y="191" on="0"/>
        <pt x="530" y="266" on="1"/>
        <pt x="536" y="289" on="1"/>
        <pt x="344" y="289" on="1"/>
        <pt x="360" y="376" on="1"/>
        <pt x="640" y="376" on="1"/>
        <pt x="569" y="0" on="1"/>
        <pt x="513" y="0" on="1"/>
        <pt x="508" y="90" on="1"/>
        <pt x="425" y="-13" on="0"/>
      </contour>
      <contour>
        <pt x="465" y="825" on="1"/>
        <pt x="444" y="825" on="0"/>
        <pt x="413" y="860" on="0"/>
        <pt x="413" y="884" on="1"/>
        <pt x="413" y="909" on="0"/>
        <pt x="444" y="943" on="0"/>
        <pt x="465" y="943" on="1"/>
        <pt x="487" y="943" on="0"/>
        <pt x="517" y="909" on="0"/>
        <pt x="517" y="884" on="1"/>
        <pt x="517" y="860" on="0"/>
        <pt x="487" y="825" on="0"/>
      </contour>
    </TTGlyph>
    <TTGlyph name="H" xMin="54" yMin="0" xMax="640" yMax="739">
      <contour>
        <pt x="54" y="0" on="1"/>
        <pt x="176" y="739" on="1"/>
        <pt x="258" y="739" on="1"/>
        <pt x="207" y="425" on="1"/>
        <pt x="507" y="425" on="1"/>
        <pt x="558" y="739" on="1"/>
        <pt x="640" y="739" on="1"/>
        <pt x="518" y="0" on="1"/>
        <pt x="436" y="0" on="1"/>
        <pt x="492" y="336" on="1"/>
        <pt x="192" y="336" on="1"/>
        <pt x="136" y="0" on="1"/>
      </contour>
    </TTGlyph>
    <TTGlyph name="Hbar" xMin="54" yMin="0" xMax="640" yMax="739">
      <contour>
        <pt x="54" y="0" on="1"/>
        <pt x="139" y="558" on="1"/>
        <pt x="80" y="558" on="1"/>
        <pt x="93" y="645" on="1"/>
        <pt x="153" y="645" on="1"/>
        <pt x="166" y="739" on="1"/>
        <pt x="242" y="739" on="1"/>
        <pt x="229" y="645" on="1"/>
        <pt x="507" y="645" on="1"/>
        <pt x="521" y="739" on="1"/>
        <pt x="597" y="739" on="1"/>
        <pt x="583" y="645" on="1"/>
        <pt x="640" y="645" on="1"/>
        <pt x="627" y="558" on="1"/>
        <pt x="569" y="558" on="1"/>
        <pt x="484" y="0" on="1"/>
        <pt x="408" y="0" on="1"/>
        <pt x="459" y="336" on="1"/>
        <pt x="181" y="336" on="1"/>
        <pt x="130" y="0" on="1"/>
      </contour>
      <contour>
        <pt x="195" y="425" on="1"/>
        <pt x="474" y="425" on="1"/>
        <pt x="493" y="558" on="1"/>
        <pt x="216" y="558" on="1"/>
      </contour>
    </TTGlyph>
    <TTGlyph name="Hcircumflex" xMin="54" yMin="0" xMax="640" yMax="950">
      <component glyphName="H" x="0" y="0" flags="0x204"/>
      <component glyphName="uni0302.case" x="188" y="0" flags="0x4"/>
    </TTGlyph>
    <TTGlyph name="I" xMin="38" yMin="0" xMax="256" yMax="739">
      <contour>
        <pt x="38" y="0" on="1"/>
        <pt x="155" y="739" on="1"/>
        <pt x="256" y="739" on="1"/>
        <pt x="139" y="0" on="1"/>
      </contour>
    </TTGlyph>
    <TTGlyph name="Iacute" xMin="38" yMin="0" xMax="381" yMax="944">
      <contour>
        <pt x="38" y="0" on="1"/>
        <pt x="155" y="739" on="1"/>
        <pt x="256" y="739" on="1"/>
        <pt x="139" y="0" on="1"/>
      </contour>
      <contour>
        <pt x="170" y="813" on="1"/>
        <pt x="174" y="816" on="0"/>
        <pt x="213" y="850" on="0"/>
        <pt x="264" y="893" on="0"/>
        <pt x="308" y="929" on="0"/>
        <pt x="315" y="934" on="1"/>
        <pt x="330" y="944" on="0"/>
        <pt x="343" y="944" on="1"/>
        <pt x="359" y="944" on="0"/>
        <pt x="381" y="921" on="0"/>
        <pt x="381" y="905" on="1"/>
        <pt x="381" y="891" on="0"/>
        <pt x="369" y="873" on="0"/>
        <pt x="361" y="868" on="1"/>
        <pt x="355" y="863" on="0"/>
        <pt x="325" y="847" on="0"/>
        <pt x="288" y="829" on="0"/>
        <pt x="260" y="815" on="0"/>
        <pt x="256" y="813" on="1"/>
      </contour>
    </TTGlyph>
    <TTGlyph name="Ibreve" xMin="38" yMin="0" xMax="413" yMax="950">
      <component glyphName="I" x="0" y="0" flags="0x204"/>
      <component glyphName="uni0306.case" x="27" y="0" flags="0x4"/>
    </TTGlyph>
    <TTGlyph name="Icircumflex" xMin="38" yMin="0" xMax="414" yMax="947">
      <contour>
        <pt x="38" y="0" on="1"/>
        <pt x="155" y="739" on="1"/>
        <pt x="256" y="739" on="1"/>
        <pt x="139" y="0" on="1"/>
      </contour>
      <contour>
        <pt x="69" y="816" on="1"/>
        <pt x="211" y="927" on="1"/>
        <pt x="237" y="947" on="0"/>
        <pt x="269" y="947" on="1"/>
        <pt x="299" y="947" on="0"/>
        <pt x="317" y="927" on="1"/>
        <pt x="414" y="816" on="1"/>
        <pt x="316" y="816" on="1"/>
        <pt x="257" y="883" on="1"/>
        <pt x="172" y="816" on="1"/>
      </contour>
    </TTGlyph>
    <TTGlyph name="Idieresis" xMin="38" yMin="0" xMax="423" yMax="926">
      <contour>
        <pt x="38" y="0" on="1"/>
        <pt x="155" y="739" on="1"/>
        <pt x="256" y="739" on="1"/>
        <pt x="139" y="0" on="1"/>
      </contour>
      <contour>
        <pt x="139" y="809" on="1"/>
        <pt x="116" y="809" on="0"/>
        <pt x="81" y="844" on="0"/>
        <pt x="81" y="868" on="1"/>
        <pt x="81" y="892" on="0"/>
        <pt x="116" y="926" on="0"/>
        <pt x="139" y="926" on="1"/>
        <pt x="164" y="926" on="0"/>
        <pt x="197" y="892" on="0"/>
        <pt x="197" y="868" on="1"/>
        <pt x="197" y="844" on="0"/>
        <pt x="164" y="809" on="0"/>
      </contour>
      <contour>
        <pt x="365" y="809" on="1"/>
        <pt x="341" y="809" on="0"/>
        <pt x="308" y="844" on="0"/>
        <pt x="308" y="868" on="1"/>
        <pt x="308" y="892" on="0"/>
        <pt x="341" y="926" on="0"/>
        <pt x="365" y="926" on="1"/>
        <pt x="390" y="926" on="0"/>
        <pt x="423" y="892" on="0"/>
        <pt x="423" y="868" on="1"/>
        <pt x="423" y="844" on="0"/>
        <pt x="390" y="809" on="0"/>
      </contour>
    </TTGlyph>
    <TTGlyph name="Idotaccent" xMin="38" yMin="0" xMax="316" yMax="944">
      <component glyphName="I" x="0" y="0" flags="0x204"/>
      <component glyphName="uni0307.case" x="61" y="0" flags="0x4"/>
    </TTGlyph>
    <TTGlyph name="Igrave" xMin="38" yMin="0" xMax="311" yMax="944">
      <contour>
        <pt x="38" y="0" on="1"/>
        <pt x="155" y="739" on="1"/>
        <pt x="256" y="739" on="1"/>
        <pt x="139" y="0" on="1"/>
      </contour>
      <contour>
        <pt x="233" y="813" on="1"/>
        <pt x="197" y="840" on="0"/>
        <pt x="173" y="860" on="1"/>
        <pt x="147" y="882" on="0"/>
        <pt x="147" y="905" on="1"/>
        <pt x="147" y="915" on="0"/>
        <pt x="164" y="944" on="0"/>
        <pt x="186" y="944" on="1"/>
        <pt x="205" y="944" on="0"/>
        <pt x="220" y="927" on="1"/>
        <pt x="239" y="903" on="0"/>
        <pt x="289" y="841" on="0"/>
        <pt x="311" y="813" on="1"/>
      </contour>
    </TTGlyph>
    <TTGlyph name="Imacron" xMin="38" yMin="0" xMax="407" yMax="906">
      <contour>
        <pt x="38" y="0" on="1"/>
        <pt x="155" y="739" on="1"/>
        <pt x="256" y="739" on="1"/>
        <pt x="139" y="0" on="1"/>
      </contour>
      <contour>
        <pt x="97" y="833" on="1"/>
        <pt x="112" y="906" on="1"/>
        <pt x="407" y="906" on="1"/>
        <pt x="392" y="833" on="1"/>
      </contour>
    </TTGlyph>
    <TTGlyph name="Iogonek" xMin="-72" yMin="-191" xMax="256" yMax="739">
      <contour>
        <pt x="38" y="0" on="1"/>
        <pt x="155" y="739" on="1"/>
        <pt x="256" y="739" on="1"/>
        <pt x="139" y="0" on="1"/>
      </contour>
      <contour>
        <pt x="18" y="-191" on="1"/>
        <pt x="-26" y="-191" on="0"/>
        <pt x="-72" y="-148" on="0"/>
        <pt x="-72" y="-117" on="1"/>
        <pt x="-72" y="-80" on="0"/>
        <pt x="-10" y="-15" on="0"/>
        <pt x="41" y="0" on="1"/>
        <pt x="126" y="0" on="1"/>
        <pt x="76" y="-19" on="0"/>
        <pt x="10" y="-70" on="0"/>
        <pt x="10" y="-98" on="1"/>
        <pt x="10" y="-111" on="0"/>
        <pt x="35" y="-129" on="0"/>
        <pt x="54" y="-129" on="1"/>
        <pt x="76" y="-129" on="0"/>
        <pt x="101" y="-118" on="1"/>
        <pt x="90" y="-178" on="1"/>
        <pt x="48" y="-191" on="0"/>
      </contour>
    </TTGlyph>
    <TTGlyph name="Iota" xMin="38" yMin="0" xMax="256" yMax="739">
      <component glyphName="I" x="0" y="0" flags="0x204"/>
    </TTGlyph>
    <TTGlyph name="Iotadieresis" xMin="38" yMin="0" xMax="423" yMax="945">
      <component glyphName="I" x="0" y="0" flags="0x204"/>
      <component glyphName="uni0308.case" x="5" y="0" flags="0x4"/>
    </TTGlyph>
    <TTGlyph name="Iotatonos" xMin="-223" yMin="0" xMax="256" yMax="739">
      <component glyphName="tonos.case" x="-314" y="0" flags="0x4"/>
      <component glyphName="I" x="0" y="0" flags="0x204"/>
    </TTGlyph>
    <TTGlyph name="Itilde" xMin="38" yMin="0" xMax="411" yMax="945">
      <component glyphName="I" x="0" y="0" flags="0x204"/>
      <component glyphName="tildecomb.case" x="16" y="0" flags="0x4"/>
    </TTGlyph>
    <TTGlyph name="J" xMin="61" yMin="-13" xMax="629" yMax="739">
      <contour>
        <pt x="254" y="-13" on="1"/>
        <pt x="160" y="-13" on="0"/>
        <pt x="61" y="109" on="0"/>
        <pt x="72" y="210" on="1"/>
        <pt x="168" y="237" on="1"/>
        <pt x="166" y="223" on="0"/>
        <pt x="163" y="195" on="0"/>
        <pt x="163" y="183" on="1"/>
        <pt x="163" y="130" on="0"/>
        <pt x="214" y="72" on="0"/>
        <pt x="267" y="72" on="1"/>
        <pt x="301" y="72" on="0"/>
        <pt x="361" y="98" on="0"/>
        <pt x="408" y="169" on="0"/>
        <pt x="422" y="236" on="1"/>
        <pt x="526" y="739" on="1"/>
        <pt x="629" y="739" on="1"/>
        <pt x="525" y="235" on="1"/>
        <pt x="507" y="145" on="0"/>
        <pt x="442" y="44" on="0"/>
        <pt x="365" y="-2" on="0"/>
        <pt x="287" y="-13" on="0"/>
      </contour>
    </TTGlyph>
    <TTGlyph name="Jcircumflex" xMin="61" yMin="-13" xMax="670" yMax="950">
      <component glyphName="J" x="0" y="0" flags="0x204"/>
      <component glyphName="uni0302.case" x="250" y="0" flags="0x4"/>
    </TTGlyph>
    <TTGlyph name="K" xMin="54" yMin="0" xMax="640" yMax="739">
      <contour>
        <pt x="54" y="0" on="1"/>
        <pt x="181" y="739" on="1"/>
        <pt x="267" y="739" on="1"/>
        <pt x="205" y="382" on="1"/>
        <pt x="524" y="739" on="1"/>
        <pt x="640" y="739" on="1"/>
        <pt x="356" y="426" on="1"/>
        <pt x="535" y="0" on="1"/>
        <pt x="440" y="0" on="1"/>
        <pt x="293" y="358" on="1"/>
        <pt x="180" y="232" on="1"/>
        <pt x="140" y="0" on="1"/>
      </contour>
    </TTGlyph>
    <TTGlyph name="Kappa" xMin="81" yMin="0" xMax="667" yMax="739">
      <component glyphName="K" x="27" y="0" flags="0x4"/>
    </TTGlyph>
    <TTGlyph name="L" xMin="60" yMin="0" xMax="565" yMax="739">
      <contour>
        <pt x="60" y="0" on="1"/>
        <pt x="212" y="739" on="1"/>
        <pt x="314" y="739" on="1"/>
        <pt x="181" y="90" on="1"/>
        <pt x="565" y="90" on="1"/>
        <pt x="547" y="0" on="1"/>
      </contour>
    </TTGlyph>
    <TTGlyph name="Lacute" xMin="60" yMin="0" xMax="565" yMax="950">
      <component glyphName="L" x="0" y="0" flags="0x204"/>
      <component glyphName="acutecomb.case" x="136" y="0" flags="0x4"/>
    </TTGlyph>
    <TTGlyph name="Lambda" xMin="61" yMin="0" xMax="596" yMax="739">
      <contour>
        <pt x="61" y="0" on="1"/>
        <pt x="389" y="739" on="1"/>
        <pt x="518" y="739" on="1"/>
        <pt x="596" y="0" on="1"/>
        <pt x="502" y="0" on="1"/>
        <pt x="454" y="501" on="1"/>
        <pt x="447" y="573" on="0"/>
        <pt x="442" y="668" on="0"/>
        <pt x="442" y="668" on="1"/>
        <pt x="442" y="668" on="0"/>
        <pt x="409" y="574" on="0"/>
        <pt x="378" y="502" on="1"/>
        <pt x="163" y="0" on="1"/>
      </contour>
    </TTGlyph>
    <TTGlyph name="Lcaron" xMin="62" yMin="0" xMax="618" yMax="749">
      <contour>
        <pt x="62" y="0" on="1"/>
        <pt x="214" y="739" on="1"/>
        <pt x="317" y="739" on="1"/>
        <pt x="183" y="90" on="1"/>
        <pt x="567" y="90" on="1"/>
        <pt x="549" y="0" on="1"/>
      </contour>
      <contour>
        <pt x="476" y="546" on="1"/>
        <pt x="478" y="552" on="0"/>
        <pt x="494" y="597" on="0"/>
        <pt x="516" y="656" on="0"/>
        <pt x="534" y="706" on="0"/>
        <pt x="539" y="716" on="1"/>
        <pt x="543" y="726" on="0"/>
        <pt x="566" y="749" on="0"/>
        <pt x="584" y="749" on="1"/>
        <pt x="599" y="749" on="0"/>
        <pt x="618" y="731" on="0"/>
        <pt x="618" y="715" on="1"/>
        <pt x="618" y="706" on="0"/>
        <pt x="606" y="683" on="1"/>
        <pt x="529" y="546" on="1"/>
      </contour>
    </TTGlyph>
    <TTGlyph name="Ldot" xMin="60" yMin="0" xMax="565" yMax="739">
      <component glyphName="L" x="0" y="0" flags="0x204"/>
      <component glyphName="period" x="300" y="275" flags="0x4"/>
    </TTGlyph>
    <TTGlyph name="Lslash" xMin="62" yMin="0" xMax="612" yMax="739">
      <contour>
        <pt x="107" y="0" on="1"/>
        <pt x="168" y="294" on="1"/>
        <pt x="62" y="237" on="1"/>
        <pt x="78" y="318" on="1"/>
        <pt x="184" y="374" on="1"/>
        <pt x="259" y="739" on="1"/>
        <pt x="362" y="739" on="1"/>
        <pt x="301" y="438" on="1"/>
        <pt x="516" y="558" on="1"/>
        <pt x="500" y="477" on="1"/>
        <pt x="284" y="358" on="1"/>
        <pt x="228" y="91" on="1"/>
        <pt x="612" y="91" on="1"/>
        <pt x="594" y="0" on="1"/>
      </contour>
    </TTGlyph>
    <TTGlyph name="M" xMin="75" yMin="0" xMax="648" yMax="739">
      <contour>
        <pt x="75" y="0" on="1"/>
        <pt x="175" y="739" on="1"/>
        <pt x="285" y="739" on="1"/>
        <pt x="328" y="140" on="1"/>
        <pt x="534" y="739" on="1"/>
        <pt x="648" y="739" on="1"/>
        <pt x="547" y="0" on="1"/>
        <pt x="480" y="0" on="1"/>
        <pt x="564" y="618" on="1"/>
        <pt x="347" y="0" on="1"/>
        <pt x="280" y="0" on="1"/>
        <pt x="228" y="636" on="1"/>
        <pt x="143" y="0" on="1"/>
      </contour>
    </TTGlyph>
    <TTGlyph name="Mu" xMin="98" yMin="0" xMax="671" yMax="739">
      <component glyphName="M" x="23" y="0" flags="0x4"/>
    </TTGlyph>
    <TTGlyph name="N" xMin="54" yMin="0" xMax="640" yMax="739">
      <contour>
        <pt x="54" y="0" on="1"/>
        <pt x="176" y="739" on="1"/>
        <pt x="294" y="739" on="1"/>
        <pt x="453" y="104" on="1"/>
        <pt x="558" y="739" on="1"/>
        <pt x="640" y="739" on="1"/>
        <pt x="518" y="0" on="1"/>
        <pt x="401" y="0" on="1"/>
        <pt x="242" y="637" on="1"/>
        <pt x="136" y="0" on="1"/>
      </contour>
    </TTGlyph>
    <TTGlyph name="Nacute" xMin="54" yMin="0" xMax="640" yMax="944">
      <contour>
        <pt x="54" y="0" on="1"/>
        <pt x="176" y="730" on="1"/>
        <pt x="294" y="730" on="1"/>
        <pt x="453" y="103" on="1"/>
        <pt x="558" y="730" on="1"/>
        <pt x="640" y="730" on="1"/>
        <pt x="518" y="0" on="1"/>
        <pt x="401" y="0" on="1"/>
        <pt x="242" y="629" on="1"/>
        <pt x="136" y="0" on="1"/>
      </contour>
      <contour>
        <pt x="373" y="813" on="1"/>
        <pt x="377" y="816" on="0"/>
        <pt x="408" y="850" on="0"/>
        <pt x="449" y="893" on="0"/>
        <pt x="484" y="929" on="0"/>
        <pt x="491" y="934" on="1"/>
        <pt x="502" y="944" on="0"/>
        <pt x="512" y="944" on="1"/>
        <pt x="525" y="944" on="0"/>
        <pt x="543" y="921" on="0"/>
        <pt x="543" y="905" on="1"/>
        <pt x="543" y="891" on="0"/>
        <pt x="533" y="873" on="0"/>
        <pt x="527" y="868" on="1"/>
        <pt x="522" y="863" on="0"/>
        <pt x="498" y="847" on="0"/>
        <pt x="469" y="829" on="0"/>
        <pt x="447" y="815" on="0"/>
        <pt x="443" y="813" on="1"/>
      </contour>
    </TTGlyph>
    <TTGlyph name="Ncaron" xMin="54" yMin="0" xMax="640" yMax="933">
      <contour>
        <pt x="54" y="0" on="1"/>
        <pt x="176" y="730" on="1"/>
        <pt x="294" y="730" on="1"/>
        <pt x="453" y="103" on="1"/>
        <pt x="558" y="730" on="1"/>
        <pt x="640" y="730" on="1"/>
        <pt x="518" y="0" on="1"/>
        <pt x="401" y="0" on="1"/>
        <pt x="242" y="629" on="1"/>
        <pt x="136" y="0" on="1"/>
      </contour>
      <contour>
        <pt x="430" y="802" on="1"/>
        <pt x="404" y="802" on="0"/>
        <pt x="390" y="823" on="1"/>
        <pt x="312" y="933" on="1"/>
        <pt x="390" y="933" on="1"/>
        <pt x="436" y="867" on="1"/>
        <pt x="506" y="933" on="1"/>
        <pt x="589" y="933" on="1"/>
        <pt x="475" y="823" on="1"/>
        <pt x="453" y="802" on="0"/>
      </contour>
    </TTGlyph>
    <TTGlyph name="Ntilde" xMin="54" yMin="0" xMax="640" yMax="931">
      <contour>
        <pt x="54" y="0" on="1"/>
        <pt x="176" y="730" on="1"/>
        <pt x="294" y="730" on="1"/>
        <pt x="453" y="103" on="1"/>
        <pt x="558" y="730" on="1"/>
        <pt x="640" y="730" on="1"/>
        <pt x="518" y="0" on="1"/>
        <pt x="401" y="0" on="1"/>
        <pt x="242" y="629" on="1"/>
        <pt x="136" y="0" on="1"/>
      </contour>
      <contour>
        <pt x="500" y="816" on="1"/>
        <pt x="476" y="816" on="0"/>
        <pt x="443" y="839" on="0"/>
        <pt x="413" y="862" on="0"/>
        <pt x="390" y="862" on="1"/>
        <pt x="352" y="862" on="0"/>
        <pt x="337" y="819" on="1"/>
        <pt x="281" y="819" on="1"/>
        <pt x="298" y="876" on="0"/>
        <pt x="356" y="931" on="0"/>
        <pt x="391" y="931" on="1"/>
        <pt x="419" y="931" on="0"/>
        <pt x="454" y="908" on="0"/>
        <pt x="483" y="885" on="0"/>
        <pt x="500" y="885" on="1"/>
        <pt x="516" y="885" on="0"/>
        <pt x="536" y="906" on="0"/>
        <pt x="544" y="917" on="1"/>
        <pt x="556" y="931" on="0"/>
        <pt x="568" y="931" on="1"/>
        <pt x="578" y="931" on="0"/>
        <pt x="593" y="911" on="0"/>
        <pt x="593" y="897" on="1"/>
        <pt x="593" y="887" on="0"/>
        <pt x="589" y="879" on="1"/>
        <pt x="577" y="857" on="0"/>
        <pt x="536" y="816" on="0"/>
      </contour>
    </TTGlyph>
    <TTGlyph name="Nu" xMin="81" yMin="0" xMax="667" yMax="739">
      <component glyphName="N" x="27" y="0" flags="0x4"/>
    </TTGlyph>
    <TTGlyph name="O" xMin="54" yMin="-13" xMax="640" yMax="752">
      <contour>
        <pt x="291" y="-13" on="1"/>
        <pt x="217" y="-13" on="0"/>
        <pt x="111" y="68" on="0"/>
        <pt x="54" y="207" on="0"/>
        <pt x="54" y="297" on="1"/>
        <pt x="54" y="393" on="0"/>
        <pt x="104" y="558" on="0"/>
        <pt x="195" y="682" on="0"/>
        <pt x="324" y="752" on="0"/>
        <pt x="403" y="752" on="1"/>
        <pt x="478" y="752" on="0"/>
        <pt x="584" y="670" on="0"/>
        <pt x="640" y="531" on="0"/>
        <pt x="640" y="443" on="1"/>
        <pt x="640" y="348" on="0"/>
        <pt x="590" y="182" on="0"/>
        <pt x="497" y="58" on="0"/>
        <pt x="369" y="-13" on="0"/>
      </contour>
      <contour>
        <pt x="303" y="74" on="1"/>
        <pt x="361" y="74" on="0"/>
        <pt x="454" y="135" on="0"/>
        <pt x="518" y="239" on="0"/>
        <pt x="553" y="370" on="0"/>
        <pt x="553" y="441" on="1"/>
        <pt x="553" y="513" on="0"/>
        <pt x="510" y="612" on="0"/>
        <pt x="436" y="664" on="0"/>
        <pt x="390" y="664" on="1"/>
        <pt x="332" y="664" on="0"/>
        <pt x="240" y="604" on="0"/>
        <pt x="176" y="502" on="0"/>
        <pt x="142" y="370" on="0"/>
        <pt x="142" y="298" on="1"/>
        <pt x="142" y="226" on="0"/>
        <pt x="185" y="124" on="0"/>
        <pt x="257" y="74" on="0"/>
      </contour>
    </TTGlyph>
    <TTGlyph name="OE" xMin="54" yMin="-13" xMax="640" yMax="752">
      <contour>
        <pt x="196" y="-13" on="1"/>
        <pt x="151" y="-13" on="0"/>
        <pt x="87" y="68" on="0"/>
        <pt x="54" y="209" on="0"/>
        <pt x="54" y="298" on="1"/>
        <pt x="54" y="315" on="0"/>
        <pt x="56" y="352" on="0"/>
        <pt x="57" y="369" on="1"/>
        <pt x="65" y="481" on="0"/>
        <pt x="118" y="654" on="0"/>
        <pt x="205" y="752" on="0"/>
        <pt x="263" y="752" on="1"/>
        <pt x="306" y="752" on="0"/>
        <pt x="368" y="678" on="0"/>
        <pt x="385" y="616" on="1"/>
        <pt x="398" y="739" on="1"/>
        <pt x="640" y="739" on="1"/>
        <pt x="631" y="649" on="1"/>
        <pt x="433" y="649" on="1"/>
        <pt x="409" y="425" on="1"/>
        <pt x="556" y="425" on="1"/>
        <pt x="546" y="336" on="1"/>
        <pt x="400" y="336" on="1"/>
        <pt x="373" y="91" on="1"/>
        <pt x="572" y="91" on="1"/>
        <pt x="562" y="0" on="1"/>
        <pt x="319" y="0" on="1"/>
        <pt x="329" y="88" on="1"/>
        <pt x="307" y="46" on="0"/>
        <pt x="242" y="-13" on="0"/>
      </contour>
      <contour>
        <pt x="204" y="75" on="1"/>
        <pt x="260" y="75" on="0"/>
        <pt x="338" y="231" on="0"/>
        <pt x="349" y="369" on="1"/>
        <pt x="353" y="408" on="0"/>
        <pt x="353" y="440" on="1"/>
        <pt x="353" y="513" on="0"/>
        <pt x="327" y="612" on="0"/>
        <pt x="283" y="665" on="0"/>
        <pt x="255" y="665" on="1"/>
        <pt x="215" y="665" on="0"/>
        <pt x="154" y="586" on="0"/>
        <pt x="117" y="452" on="0"/>
        <pt x="110" y="369" on="1"/>
        <pt x="107" y="332" on="0"/>
        <pt x="107" y="298" on="1"/>
        <pt x="107" y="226" on="0"/>
        <pt x="132" y="127" on="0"/>
        <pt x="177" y="75" on="0"/>
      </contour>
    </TTGlyph>
    <TTGlyph name="Oacute" xMin="54" yMin="-13" xMax="640" yMax="944">
      <contour>
        <pt x="291" y="-13" on="1"/>
        <pt x="217" y="-13" on="0"/>
        <pt x="111" y="67" on="0"/>
        <pt x="54" y="205" on="0"/>
        <pt x="54" y="293" on="1"/>
        <pt x="54" y="388" on="0"/>
        <pt x="104" y="551" on="0"/>
        <pt x="195" y="674" on="0"/>
        <pt x="324" y="743" on="0"/>
        <pt x="403" y="743" on="1"/>
        <pt x="478" y="743" on="0"/>
        <pt x="584" y="662" on="0"/>
        <pt x="640" y="525" on="0"/>
        <pt x="640" y="438" on="1"/>
        <pt x="640" y="344" on="0"/>
        <pt x="590" y="180" on="0"/>
        <pt x="497" y="57" on="0"/>
        <pt x="369" y="-13" on="0"/>
      </contour>
      <contour>
        <pt x="303" y="73" on="1"/>
        <pt x="361" y="73" on="0"/>
        <pt x="454" y="133" on="0"/>
        <pt x="518" y="236" on="0"/>
        <pt x="553" y="366" on="0"/>
        <pt x="553" y="436" on="1"/>
        <pt x="553" y="507" on="0"/>
        <pt x="510" y="605" on="0"/>
        <pt x="436" y="656" on="0"/>
        <pt x="390" y="656" on="1"/>
        <pt x="332" y="656" on="0"/>
        <pt x="240" y="597" on="0"/>
        <pt x="176" y="496" on="0"/>
        <pt x="142" y="366" on="0"/>
        <pt x="142" y="294" on="1"/>
        <pt x="142" y="223" on="0"/>
        <pt x="185" y="123" on="0"/>
        <pt x="257" y="73" on="0"/>
      </contour>
      <contour>
        <pt x="368" y="813" on="1"/>
        <pt x="371" y="816" on="0"/>
        <pt x="405" y="850" on="0"/>
        <pt x="449" y="893" on="0"/>
        <pt x="486" y="929" on="0"/>
        <pt x="493" y="934" on="1"/>
        <pt x="506" y="944" on="0"/>
        <pt x="517" y="944" on="1"/>
        <pt x="530" y="944" on="0"/>
        <pt x="551" y="921" on="0"/>
        <pt x="551" y="905" on="1"/>
        <pt x="551" y="891" on="0"/>
        <pt x="539" y="873" on="0"/>
        <pt x="532" y="868" on="1"/>
        <pt x="527" y="863" on="0"/>
        <pt x="501" y="847" on="0"/>
        <pt x="470" y="829" on="0"/>
        <pt x="446" y="815" on="0"/>
        <pt x="443" y="813" on="1"/>
      </contour>
    </TTGlyph>
    <TTGlyph name="Obreve" xMin="54" yMin="-13" xMax="640" yMax="950">
      <component glyphName="O" x="0" y="0" flags="0x204"/>
      <component glyphName="uni0306.case" x="223" y="0" flags="0x4"/>
    </TTGlyph>
    <TTGlyph name="Ocircumflex" xMin="54" yMin="-13" xMax="640" yMax="947">
      <contour>
        <pt x="291" y="-13" on="1"/>
        <pt x="217" y="-13" on="0"/>
        <pt x="111" y="67" on="0"/>
        <pt x="54" y="205" on="0"/>
        <pt x="54" y="293" on="1"/>
        <pt x="54" y="388" on="0"/>
        <pt x="104" y="551" on="0"/>
        <pt x="195" y="674" on="0"/>
        <pt x="324" y="743" on="0"/>
        <pt x="403" y="743" on="1"/>
        <pt x="478" y="743" on="0"/>
        <pt x="584" y="662" on="0"/>
        <pt x="640" y="525" on="0"/>
        <pt x="640" y="438" on="1"/>
        <pt x="640" y="344" on="0"/>
        <pt x="590" y="180" on="0"/>
        <pt x="497" y="57" on="0"/>
        <pt x="369" y="-13" on="0"/>
      </contour>
      <contour>
        <pt x="303" y="73" on="1"/>
        <pt x="361" y="73" on="0"/>
        <pt x="454" y="133" on="0"/>
        <pt x="518" y="236" on="0"/>
        <pt x="553" y="366" on="0"/>
        <pt x="553" y="436" on="1"/>
        <pt x="553" y="507" on="0"/>
        <pt x="510" y="605" on="0"/>
        <pt x="436" y="656" on="0"/>
        <pt x="390" y="656" on="1"/>
        <pt x="332" y="656" on="0"/>
        <pt x="240" y="597" on="0"/>
        <pt x="176" y="496" on="0"/>
        <pt x="142" y="366" on="0"/>
        <pt x="142" y="294" on="1"/>
        <pt x="142" y="223" on="0"/>
        <pt x="185" y="123" on="0"/>
        <pt x="257" y="73" on="0"/>
      </contour>
      <contour>
        <pt x="273" y="816" on="1"/>
        <pt x="397" y="927" on="1"/>
        <pt x="418" y="947" on="0"/>
        <pt x="446" y="947" on="1"/>
        <pt x="471" y="947" on="0"/>
        <pt x="487" y="927" on="1"/>
        <pt x="571" y="816" on="1"/>
        <pt x="486" y="816" on="1"/>
        <pt x="436" y="883" on="1"/>
        <pt x="362" y="816" on="1"/>
      </contour>
    </TTGlyph>
    <TTGlyph name="Odieresis" xMin="54" yMin="-13" xMax="640" yMax="926">
      <contour>
        <pt x="291" y="-13" on="1"/>
        <pt x="217" y="-13" on="0"/>
        <pt x="111" y="67" on="0"/>
        <pt x="54" y="205" on="0"/>
        <pt x="54" y="293" on="1"/>
        <pt x="54" y="388" on="0"/>
        <pt x="104" y="551" on="0"/>
        <pt x="195" y="674" on="0"/>
        <pt x="324" y="743" on="0"/>
        <pt x="403" y="743" on="1"/>
        <pt x="478" y="743" on="0"/>
        <pt x="584" y="662" on="0"/>
        <pt x="640" y="525" on="0"/>
        <pt x="640" y="438" on="1"/>
        <pt x="640" y="344" on="0"/>
        <pt x="590" y="180" on="0"/>
        <pt x="497" y="57" on="0"/>
        <pt x="369" y="-13" on="0"/>
      </contour>
      <contour>
        <pt x="303" y="73" on="1"/>
        <pt x="361" y="73" on="0"/>
        <pt x="454" y="133" on="0"/>
        <pt x="518" y="236" on="0"/>
        <pt x="553" y="366" on="0"/>
        <pt x="553" y="436" on="1"/>
        <pt x="553" y="507" on="0"/>
        <pt x="510" y="605" on="0"/>
        <pt x="436" y="656" on="0"/>
        <pt x="390" y="656" on="1"/>
        <pt x="332" y="656" on="0"/>
        <pt x="240" y="597" on="0"/>
        <pt x="176" y="496" on="0"/>
        <pt x="142" y="366" on="0"/>
        <pt x="142" y="294" on="1"/>
        <pt x="142" y="223" on="0"/>
        <pt x="185" y="123" on="0"/>
        <pt x="257" y="73" on="0"/>
      </contour>
      <contour>
        <pt x="334" y="809" on="1"/>
        <pt x="314" y="809" on="0"/>
        <pt x="284" y="844" on="0"/>
        <pt x="284" y="868" on="1"/>
        <pt x="284" y="892" on="0"/>
        <pt x="314" y="926" on="0"/>
        <pt x="334" y="926" on="1"/>
        <pt x="356" y="926" on="0"/>
        <pt x="384" y="892" on="0"/>
        <pt x="384" y="868" on="1"/>
        <pt x="384" y="844" on="0"/>
        <pt x="356" y="809" on="0"/>
      </contour>
      <contour>
        <pt x="529" y="809" on="1"/>
        <pt x="509" y="809" on="0"/>
        <pt x="480" y="844" on="0"/>
        <pt x="480" y="868" on="1"/>
        <pt x="480" y="892" on="0"/>
        <pt x="509" y="926" on="0"/>
        <pt x="529" y="926" on="1"/>
        <pt x="551" y="926" on="0"/>
        <pt x="578" y="892" on="0"/>
        <pt x="578" y="868" on="1"/>
        <pt x="578" y="844" on="0"/>
        <pt x="551" y="809" on="0"/>
      </contour>
    </TTGlyph>
    <TTGlyph name="Ograve" xMin="54" yMin="-13" xMax="640" yMax="944">
      <contour>
        <pt x="291" y="-13" on="1"/>
        <pt x="217" y="-13" on="0"/>
        <pt x="111" y="67" on="0"/>
        <pt x="54" y="205" on="0"/>
        <pt x="54" y="293" on="1"/>
        <pt x="54" y="388" on="0"/>
        <pt x="104" y="551" on="0"/>
        <pt x="195" y="674" on="0"/>
        <pt x="324" y="743" on="0"/>
        <pt x="403" y="743" on="1"/>
        <pt x="478" y="743" on="0"/>
        <pt x="584" y="662" on="0"/>
        <pt x="640" y="525" on="0"/>
        <pt x="640" y="438" on="1"/>
        <pt x="640" y="344" on="0"/>
        <pt x="590" y="180" on="0"/>
        <pt x="497" y="57" on="0"/>
        <pt x="369" y="-13" on="0"/>
      </contour>
      <contour>
        <pt x="303" y="73" on="1"/>
        <pt x="361" y="73" on="0"/>
        <pt x="454" y="133" on="0"/>
        <pt x="518" y="236" on="0"/>
        <pt x="553" y="366" on="0"/>
        <pt x="553" y="436" on="1"/>
        <pt x="553" y="507" on="0"/>
        <pt x="510" y="605" on="0"/>
        <pt x="436" y="656" on="0"/>
        <pt x="390" y="656" on="1"/>
        <pt x="332" y="656" on="0"/>
        <pt x="240" y="597" on="0"/>
        <pt x="176" y="496" on="0"/>
        <pt x="142" y="366" on="0"/>
        <pt x="142" y="294" on="1"/>
        <pt x="142" y="223" on="0"/>
        <pt x="185" y="123" on="0"/>
        <pt x="257" y="73" on="0"/>
      </contour>
      <contour>
        <pt x="416" y="813" on="1"/>
        <pt x="384" y="840" on="0"/>
        <pt x="364" y="860" on="1"/>
        <pt x="342" y="882" on="0"/>
        <pt x="342" y="905" on="1"/>
        <pt x="342" y="915" on="0"/>
        <pt x="357" y="944" on="0"/>
        <pt x="375" y="944" on="1"/>
        <pt x="391" y="944" on="0"/>
        <pt x="404" y="927" on="1"/>
        <pt x="421" y="903" on="0"/>
        <pt x="464" y="841" on="0"/>
        <pt x="483" y="813" on="1"/>
      </contour>
    </TTGlyph>
    <TTGlyph name="Ohorn" xMin="54" yMin="-13" xMax="665" yMax="810">
      <component glyphName="O" x="0" y="0" flags="0x204"/>
      <component glyphName="uni031B" x="401" y="150" flags="0x4"/>
    </TTGlyph>
    <TTGlyph name="Ohungarumlaut" xMin="54" yMin="-13" xMax="640" yMax="962">
      <contour>
        <pt x="291" y="-13" on="1"/>
        <pt x="217" y="-13" on="0"/>
        <pt x="111" y="67" on="0"/>
        <pt x="54" y="205" on="0"/>
        <pt x="54" y="293" on="1"/>
        <pt x="54" y="388" on="0"/>
        <pt x="104" y="551" on="0"/>
        <pt x="195" y="674" on="0"/>
        <pt x="324" y="743" on="0"/>
        <pt x="403" y="743" on="1"/>
        <pt x="478" y="743" on="0"/>
        <pt x="584" y="662" on="0"/>
        <pt x="640" y="525" on="0"/>
        <pt x="640" y="438" on="1"/>
        <pt x="640" y="344" on="0"/>
        <pt x="590" y="180" on="0"/>
        <pt x="497" y="57" on="0"/>
        <pt x="369" y="-13" on="0"/>
      </contour>
      <contour>
        <pt x="303" y="73" on="1"/>
        <pt x="361" y="73" on="0"/>
        <pt x="454" y="133" on="0"/>
        <pt x="518" y="236" on="0"/>
        <pt x="553" y="366" on="0"/>
        <pt x="553" y="436" on="1"/>
        <pt x="553" y="507" on="0"/>
        <pt x="510" y="605" on="0"/>
        <pt x="436" y="656" on="0"/>
        <pt x="390" y="656" on="1"/>
        <pt x="332" y="656" on="0"/>
        <pt x="240" y="597" on="0"/>
        <pt x="176" y="496" on="0"/>
        <pt x="142" y="366" on="0"/>
        <pt x="142" y="294" on="1"/>
        <pt x="142" y="223" on="0"/>
        <pt x="185" y="123" on="0"/>
        <pt x="257" y="73" on="0"/>
      </contour>
      <contour>
        <pt x="317" y="813" on="1"/>
        <pt x="317" y="813" on="0"/>
        <pt x="337" y="837" on="0"/>
        <pt x="365" y="874" on="0"/>
        <pt x="398" y="915" on="0"/>
        <pt x="423" y="946" on="0"/>
        <pt x="429" y="952" on="1"/>
        <pt x="439" y="962" on="0"/>
        <pt x="452" y="962" on="1"/>
        <pt x="469" y="962" on="0"/>
        <pt x="478" y="949" on="1"/>
        <pt x="486" y="938" on="0"/>
        <pt x="486" y="921" on="1"/>
        <pt x="486" y="903" on="0"/>
        <pt x="476" y="890" on="1"/>
        <pt x="469" y="882" on="0"/>
        <pt x="439" y="857" on="0"/>
        <pt x="407" y="831" on="0"/>
        <pt x="385" y="813" on="0"/>
        <pt x="385" y="813" on="1"/>
      </contour>
      <contour>
        <pt x="451" y="813" on="1"/>
        <pt x="451" y="813" on="0"/>
        <pt x="480" y="850" on="0"/>
        <pt x="520" y="900" on="0"/>
        <pt x="556" y="945" on="0"/>
        <pt x="563" y="952" on="1"/>
        <pt x="574" y="962" on="0"/>
        <pt x="587" y="962" on="1"/>
        <pt x="603" y="962" on="0"/>
        <pt x="612" y="949" on="1"/>
        <pt x="620" y="935" on="0"/>
        <pt x="620" y="920" on="1"/>
        <pt x="620" y="902" on="0"/>
        <pt x="609" y="890" on="1"/>
        <pt x="603" y="882" on="0"/>
        <pt x="573" y="857" on="0"/>
        <pt x="541" y="831" on="0"/>
        <pt x="518" y="813" on="0"/>
        <pt x="518" y="813" on="1"/>
      </contour>
    </TTGlyph>
    <TTGlyph name="Omacron" xMin="54" yMin="-13" xMax="640" yMax="915">
      <component glyphName="O" x="0" y="0" flags="0x204"/>
      <component glyphName="uni0304.case" x="216" y="0" flags="0x4"/>
    </TTGlyph>
    <TTGlyph name="Omegatonos" xMin="24" yMin="0" xMax="654" yMax="749">
      <component glyphName="uni03A9" x="0" y="0" flags="0x204"/>
      <component glyphName="tonos.case" x="-67" y="0" flags="0x4"/>
    </TTGlyph>
    <TTGlyph name="Omicron" xMin="81" yMin="-13" xMax="667" yMax="752">
      <component glyphName="O" x="27" y="0" flags="0x4"/>
    </TTGlyph>
    <TTGlyph name="Omicrontonos" xMin="8" yMin="-13" xMax="640" yMax="752">
      <component glyphName="tonos.case" x="-83" y="0" flags="0x4"/>
      <component glyphName="O" x="0" y="0" flags="0x204"/>
    </TTGlyph>
    <TTGlyph name="Oslash" xMin="54" yMin="-13" xMax="640" yMax="751">
      <contour>
        <pt x="302" y="-13" on="1"/>
        <pt x="252" y="-13" on="0"/>
        <pt x="173" y="34" on="0"/>
        <pt x="146" y="77" on="1"/>
        <pt x="82" y="-4" on="1"/>
        <pt x="54" y="35" on="1"/>
        <pt x="123" y="123" on="1"/>
        <pt x="94" y="197" on="0"/>
        <pt x="94" y="298" on="1"/>
        <pt x="94" y="315" on="0"/>
        <pt x="96" y="350" on="0"/>
        <pt x="98" y="368" on="1"/>
        <pt x="110" y="480" on="0"/>
        <pt x="189" y="653" on="0"/>
        <pt x="315" y="751" on="0"/>
        <pt x="400" y="751" on="1"/>
        <pt x="448" y="751" on="0"/>
        <pt x="522" y="708" on="0"/>
        <pt x="548" y="670" on="1"/>
        <pt x="613" y="751" on="1"/>
        <pt x="640" y="710" on="1"/>
        <pt x="575" y="626" on="1"/>
        <pt x="608" y="550" on="0"/>
        <pt x="608" y="444" on="1"/>
        <pt x="608" y="427" on="0"/>
        <pt x="607" y="389" on="0"/>
        <pt x="605" y="368" on="1"/>
        <pt x="597" y="298" on="0"/>
        <pt x="552" y="160" on="0"/>
        <pt x="479" y="52" on="0"/>
        <pt x="372" y="-13" on="0"/>
      </contour>
      <contour>
        <pt x="183" y="200" on="1"/>
        <pt x="494" y="599" on="1"/>
        <pt x="454" y="664" on="0"/>
        <pt x="389" y="664" on="1"/>
        <pt x="329" y="664" on="0"/>
        <pt x="240" y="585" on="0"/>
        <pt x="186" y="451" on="0"/>
        <pt x="176" y="368" on="1"/>
        <pt x="171" y="331" on="0"/>
        <pt x="171" y="298" on="1"/>
        <pt x="171" y="245" on="0"/>
      </contour>
      <contour>
        <pt x="313" y="74" on="1"/>
        <pt x="395" y="74" on="0"/>
        <pt x="511" y="230" on="0"/>
        <pt x="528" y="368" on="1"/>
        <pt x="530" y="387" on="0"/>
        <pt x="532" y="421" on="0"/>
        <pt x="532" y="437" on="1"/>
        <pt x="532" y="502" on="0"/>
        <pt x="516" y="551" on="1"/>
        <pt x="203" y="148" on="1"/>
        <pt x="222" y="111" on="0"/>
        <pt x="279" y="74" on="0"/>
      </contour>
    </TTGlyph>
    <TTGlyph name="Oslashacute" xMin="54" yMin="-13" xMax="640" yMax="950">
      <component glyphName="Oslash" x="0" y="0" flags="0x204"/>
      <component glyphName="acutecomb.case" x="290" y="0" flags="0x4"/>
    </TTGlyph>
    <TTGlyph name="Otilde" xMin="54" yMin="-13" xMax="640" yMax="931">
      <contour>
        <pt x="291" y="-13" on="1"/>
        <pt x="217" y="-13" on="0"/>
        <pt x="111" y="67" on="0"/>
        <pt x="54" y="205" on="0"/>
        <pt x="54" y="293" on="1"/>
        <pt x="54" y="388" on="0"/>
        <pt x="104" y="551" on="0"/>
        <pt x="195" y="674" on="0"/>
        <pt x="324" y="743" on="0"/>
        <pt x="403" y="743" on="1"/>
        <pt x="478" y="743" on="0"/>
        <pt x="584" y="662" on="0"/>
        <pt x="640" y="525" on="0"/>
        <pt x="640" y="438" on="1"/>
        <pt x="640" y="344" on="0"/>
        <pt x="590" y="180" on="0"/>
        <pt x="497" y="57" on="0"/>
        <pt x="369" y="-13" on="0"/>
      </contour>
      <contour>
        <pt x="303" y="73" on="1"/>
        <pt x="361" y="73" on="0"/>
        <pt x="454" y="133" on="0"/>
        <pt x="518" y="236" on="0"/>
        <pt x="553" y="366" on="0"/>
        <pt x="553" y="436" on="1"/>
        <pt x="553" y="507" on="0"/>
        <pt x="510" y="605" on="0"/>
        <pt x="436" y="656" on="0"/>
        <pt x="390" y="656" on="1"/>
        <pt x="332" y="656" on="0"/>
        <pt x="240" y="597" on="0"/>
        <pt x="176" y="496" on="0"/>
        <pt x="142" y="366" on="0"/>
        <pt x="142" y="294" on="1"/>
        <pt x="142" y="223" on="0"/>
        <pt x="185" y="123" on="0"/>
        <pt x="257" y="73" on="0"/>
      </contour>
      <contour>
        <pt x="497" y="816" on="1"/>
        <pt x="470" y="816" on="0"/>
        <pt x="436" y="839" on="0"/>
        <pt x="403" y="862" on="0"/>
        <pt x="378" y="862" on="1"/>
        <pt x="338" y="862" on="0"/>
        <pt x="322" y="819" on="1"/>
        <pt x="262" y="819" on="1"/>
        <pt x="280" y="876" on="0"/>
        <pt x="343" y="931" on="0"/>
        <pt x="379" y="931" on="1"/>
        <pt x="410" y="931" on="0"/>
        <pt x="448" y="908" on="0"/>
        <pt x="479" y="885" on="0"/>
        <pt x="497" y="885" on="1"/>
        <pt x="515" y="885" on="0"/>
        <pt x="536" y="906" on="0"/>
        <pt x="544" y="917" on="1"/>
        <pt x="557" y="931" on="0"/>
        <pt x="570" y="931" on="1"/>
        <pt x="582" y="931" on="0"/>
        <pt x="598" y="911" on="0"/>
        <pt x="598" y="897" on="1"/>
        <pt x="598" y="887" on="0"/>
        <pt x="592" y="879" on="1"/>
        <pt x="581" y="857" on="0"/>
        <pt x="536" y="816" on="0"/>
      </contour>
    </TTGlyph>
    <TTGlyph name="P" xMin="54" yMin="0" xMax="640" yMax="739">
      <contour>
        <pt x="54" y="0" on="1"/>
        <pt x="196" y="739" on="1"/>
        <pt x="382" y="739" on="1"/>
        <pt x="424" y="739" on="0"/>
        <pt x="515" y="727" on="0"/>
        <pt x="592" y="688" on="0"/>
        <pt x="640" y="612" on="0"/>
        <pt x="640" y="550" on="1"/>
        <pt x="640" y="453" on="0"/>
        <pt x="561" y="341" on="0"/>
        <pt x="421" y="293" on="0"/>
        <pt x="327" y="293" on="1"/>
        <pt x="206" y="293" on="1"/>
        <pt x="150" y="0" on="1"/>
      </contour>
      <contour>
        <pt x="224" y="383" on="1"/>
        <pt x="350" y="383" on="1"/>
        <pt x="409" y="383" on="0"/>
        <pt x="496" y="412" on="0"/>
        <pt x="543" y="480" on="0"/>
        <pt x="543" y="539" on="1"/>
        <pt x="543" y="606" on="0"/>
        <pt x="460" y="651" on="0"/>
        <pt x="391" y="651" on="1"/>
        <pt x="275" y="651" on="1"/>
      </contour>
    </TTGlyph>
    <TTGlyph name="Phi" xMin="73" yMin="-25" xMax="673" yMax="779">
      <component glyphName="uni0424" x="25" y="0" flags="0x4"/>
    </TTGlyph>
    <TTGlyph name="Pi" xMin="70" yMin="0" xMax="634" yMax="739">
      <component glyphName="uni041F" x="8" y="0" flags="0x4"/>
    </TTGlyph>
    <TTGlyph name="Psi" xMin="47" yMin="0" xMax="649" yMax="739">
      <contour>
        <pt x="217" y="0" on="1"/>
        <pt x="246" y="172" on="1"/>
        <pt x="147" y="172" on="0"/>
        <pt x="47" y="287" on="0"/>
        <pt x="63" y="383" on="1"/>
        <pt x="123" y="739" on="1"/>
        <pt x="213" y="739" on="1"/>
        <pt x="153" y="383" on="1"/>
        <pt x="142" y="321" on="0"/>
        <pt x="199" y="249" on="0"/>
        <pt x="259" y="249" on="1"/>
        <pt x="341" y="739" on="1"/>
        <pt x="431" y="739" on="1"/>
        <pt x="349" y="249" on="1"/>
        <pt x="409" y="249" on="0"/>
        <pt x="489" y="321" on="0"/>
        <pt x="499" y="383" on="1"/>
        <pt x="559" y="739" on="1"/>
        <pt x="649" y="739" on="1"/>
        <pt x="589" y="383" on="1"/>
        <pt x="579" y="319" on="0"/>
        <pt x="508" y="225" on="0"/>
        <pt x="402" y="172" on="0"/>
        <pt x="336" y="172" on="1"/>
        <pt x="307" y="0" on="1"/>
      </contour>
    </TTGlyph>
    <TTGlyph name="Q" xMin="54" yMin="-61" xMax="640" yMax="770">
      <contour>
        <pt x="570" y="-61" on="1"/>
        <pt x="477" y="69" on="1"/>
        <pt x="440" y="38" on="0"/>
        <pt x="348" y="5" on="0"/>
        <pt x="291" y="5" on="1"/>
        <pt x="217" y="5" on="0"/>
        <pt x="111" y="86" on="0"/>
        <pt x="54" y="227" on="0"/>
        <pt x="54" y="315" on="1"/>
        <pt x="54" y="412" on="0"/>
        <pt x="104" y="576" on="0"/>
        <pt x="195" y="700" on="0"/>
        <pt x="324" y="770" on="0"/>
        <pt x="403" y="770" on="1"/>
        <pt x="478" y="770" on="0"/>
        <pt x="584" y="688" on="0"/>
        <pt x="640" y="550" on="0"/>
        <pt x="640" y="462" on="1"/>
        <pt x="640" y="406" on="0"/>
        <pt x="617" y="286" on="0"/>
        <pt x="573" y="178" on="0"/>
        <pt x="543" y="136" on="1"/>
        <pt x="634" y="8" on="1"/>
      </contour>
      <contour>
        <pt x="303" y="93" on="1"/>
        <pt x="373" y="93" on="0"/>
        <pt x="429" y="138" on="1"/>
        <pt x="303" y="314" on="1"/>
        <pt x="369" y="381" on="1"/>
        <pt x="491" y="210" on="1"/>
        <pt x="521" y="262" on="0"/>
        <pt x="553" y="398" on="0"/>
        <pt x="553" y="459" on="1"/>
        <pt x="553" y="532" on="0"/>
        <pt x="510" y="631" on="0"/>
        <pt x="436" y="682" on="0"/>
        <pt x="390" y="682" on="1"/>
        <pt x="332" y="682" on="0"/>
        <pt x="240" y="622" on="0"/>
        <pt x="176" y="520" on="0"/>
        <pt x="142" y="389" on="0"/>
        <pt x="142" y="317" on="1"/>
        <pt x="142" y="245" on="0"/>
        <pt x="185" y="144" on="0"/>
        <pt x="257" y="93" on="0"/>
      </contour>
    </TTGlyph>
    <TTGlyph name="R" xMin="54" yMin="0" xMax="640" yMax="739">
      <contour>
        <pt x="54" y="0" on="1"/>
        <pt x="196" y="739" on="1"/>
        <pt x="400" y="739" on="1"/>
        <pt x="472" y="739" on="0"/>
        <pt x="581" y="705" on="0"/>
        <pt x="640" y="628" on="0"/>
        <pt x="640" y="562" on="1"/>
        <pt x="640" y="451" on="0"/>
        <pt x="517" y="330" on="0"/>
        <pt x="410" y="319" on="1"/>
        <pt x="558" y="0" on="1"/>
        <pt x="452" y="0" on="1"/>
        <pt x="310" y="311" on="1"/>
        <pt x="210" y="311" on="1"/>
        <pt x="150" y="0" on="1"/>
      </contour>
      <contour>
        <pt x="227" y="398" on="1"/>
        <pt x="350" y="398" on="1"/>
        <pt x="407" y="398" on="0"/>
        <pt x="495" y="422" on="0"/>
        <pt x="543" y="487" on="0"/>
        <pt x="543" y="547" on="1"/>
        <pt x="543" y="609" on="0"/>
        <pt x="462" y="651" on="0"/>
        <pt x="392" y="651" on="1"/>
        <pt x="275" y="651" on="1"/>
      </contour>
    </TTGlyph>
    <TTGlyph name="Racute" xMin="54" yMin="0" xMax="640" yMax="944">
      <contour>
        <pt x="54" y="0" on="1"/>
        <pt x="196" y="730" on="1"/>
        <pt x="400" y="730" on="1"/>
        <pt x="472" y="730" on="0"/>
        <pt x="581" y="697" on="0"/>
        <pt x="640" y="621" on="0"/>
        <pt x="640" y="555" on="1"/>
        <pt x="640" y="446" on="0"/>
        <pt x="517" y="326" on="0"/>
        <pt x="410" y="315" on="1"/>
        <pt x="558" y="0" on="1"/>
        <pt x="452" y="0" on="1"/>
        <pt x="310" y="307" on="1"/>
        <pt x="210" y="307" on="1"/>
        <pt x="150" y="0" on="1"/>
      </contour>
      <contour>
        <pt x="227" y="393" on="1"/>
        <pt x="350" y="393" on="1"/>
        <pt x="407" y="393" on="0"/>
        <pt x="495" y="417" on="0"/>
        <pt x="543" y="481" on="0"/>
        <pt x="543" y="541" on="1"/>
        <pt x="543" y="602" on="0"/>
        <pt x="462" y="643" on="0"/>
        <pt x="392" y="643" on="1"/>
        <pt x="275" y="643" on="1"/>
      </contour>
      <contour>
        <pt x="374" y="813" on="1"/>
        <pt x="377" y="816" on="0"/>
        <pt x="415" y="850" on="0"/>
        <pt x="462" y="893" on="0"/>
        <pt x="502" y="929" on="0"/>
        <pt x="510" y="934" on="1"/>
        <pt x="524" y="944" on="0"/>
        <pt x="536" y="944" on="1"/>
        <pt x="551" y="944" on="0"/>
        <pt x="572" y="921" on="0"/>
        <pt x="572" y="905" on="1"/>
        <pt x="572" y="891" on="0"/>
        <pt x="559" y="873" on="0"/>
        <pt x="553" y="868" on="1"/>
        <pt x="546" y="863" on="0"/>
        <pt x="518" y="847" on="0"/>
        <pt x="484" y="829" on="0"/>
        <pt x="459" y="815" on="0"/>
        <pt x="454" y="813" on="1"/>
      </contour>
    </TTGlyph>
    <TTGlyph name="Rcaron" xMin="54" yMin="0" xMax="640" yMax="933">
      <contour>
        <pt x="54" y="0" on="1"/>
        <pt x="196" y="730" on="1"/>
        <pt x="400" y="730" on="1"/>
        <pt x="472" y="730" on="0"/>
        <pt x="581" y="697" on="0"/>
        <pt x="640" y="621" on="0"/>
        <pt x="640" y="555" on="1"/>
        <pt x="640" y="446" on="0"/>
        <pt x="517" y="326" on="0"/>
        <pt x="410" y="315" on="1"/>
        <pt x="558" y="0" on="1"/>
        <pt x="452" y="0" on="1"/>
        <pt x="310" y="307" on="1"/>
        <pt x="210" y="307" on="1"/>
        <pt x="150" y="0" on="1"/>
      </contour>
      <contour>
        <pt x="227" y="393" on="1"/>
        <pt x="350" y="393" on="1"/>
        <pt x="407" y="393" on="0"/>
        <pt x="495" y="417" on="0"/>
        <pt x="543" y="481" on="0"/>
        <pt x="543" y="541" on="1"/>
        <pt x="543" y="602" on="0"/>
        <pt x="462" y="643" on="0"/>
        <pt x="392" y="643" on="1"/>
        <pt x="275" y="643" on="1"/>
      </contour>
      <contour>
        <pt x="438" y="802" on="1"/>
        <pt x="408" y="802" on="0"/>
        <pt x="392" y="823" on="1"/>
        <pt x="302" y="933" on="1"/>
        <pt x="392" y="933" on="1"/>
        <pt x="447" y="867" on="1"/>
        <pt x="528" y="933" on="1"/>
        <pt x="624" y="933" on="1"/>
        <pt x="492" y="823" on="1"/>
        <pt x="467" y="802" on="0"/>
      </contour>
    </TTGlyph>
    <TTGlyph name="Rho" xMin="81" yMin="0" xMax="667" yMax="739">
      <component glyphName="P" x="27" y="0" flags="0x4"/>
    </TTGlyph>
    <TTGlyph name="S" xMin="62" yMin="-13" xMax="624" yMax="752">
      <contour>
        <pt x="328" y="-13" on="1"/>
        <pt x="272" y="-13" on="0"/>
        <pt x="165" y="24" on="0"/>
        <pt x="82" y="103" on="0"/>
        <pt x="62" y="163" on="1"/>
        <pt x="159" y="190" on="1"/>
        <pt x="180" y="131" on="0"/>
        <pt x="281" y="74" on="0"/>
        <pt x="337" y="74" on="1"/>
        <pt x="379" y="74" on="0"/>
        <pt x="454" y="104" on="0"/>
        <pt x="501" y="163" on="0"/>
        <pt x="501" y="203" on="1"/>
        <pt x="501" y="243" on="0"/>
        <pt x="459" y="290" on="0"/>
        <pt x="390" y="322" on="0"/>
        <pt x="309" y="346" on="0"/>
        <pt x="227" y="374" on="0"/>
        <pt x="158" y="419" on="0"/>
        <pt x="117" y="491" on="0"/>
        <pt x="117" y="547" on="1"/>
        <pt x="117" y="616" on="0"/>
        <pt x="190" y="706" on="0"/>
        <pt x="306" y="752" on="0"/>
        <pt x="370" y="752" on="1"/>
        <pt x="423" y="752" on="0"/>
        <pt x="523" y="722" on="0"/>
        <pt x="603" y="660" on="0"/>
        <pt x="624" y="614" on="1"/>
        <pt x="525" y="585" on="1"/>
        <pt x="506" y="623" on="0"/>
        <pt x="415" y="665" on="0"/>
        <pt x="366" y="665" on="1"/>
        <pt x="327" y="665" on="0"/>
        <pt x="260" y="641" on="0"/>
        <pt x="218" y="589" on="0"/>
        <pt x="218" y="551" on="1"/>
        <pt x="218" y="514" on="0"/>
        <pt x="260" y="468" on="0"/>
        <pt x="329" y="438" on="0"/>
        <pt x="412" y="414" on="0"/>
        <pt x="494" y="384" on="0"/>
        <pt x="564" y="339" on="0"/>
        <pt x="606" y="271" on="0"/>
        <pt x="606" y="218" on="1"/>
        <pt x="606" y="163" on="0"/>
        <pt x="558" y="76" on="0"/>
        <pt x="479" y="17" on="0"/>
        <pt x="381" y="-13" on="0"/>
      </contour>
    </TTGlyph>
    <TTGlyph name="Sacute" xMin="62" yMin="-13" xMax="624" yMax="944">
      <contour>
        <pt x="328" y="-13" on="1"/>
        <pt x="272" y="-13" on="0"/>
        <pt x="165" y="24" on="0"/>
        <pt x="82" y="102" on="0"/>
        <pt x="62" y="161" on="1"/>
        <pt x="159" y="188" on="1"/>
        <pt x="180" y="129" on="0"/>
        <pt x="281" y="73" on="0"/>
        <pt x="337" y="73" on="1"/>
        <pt x="379" y="73" on="0"/>
        <pt x="454" y="103" on="0"/>
        <pt x="501" y="161" on="0"/>
        <pt x="501" y="201" on="1"/>
        <pt x="501" y="240" on="0"/>
        <pt x="459" y="287" on="0"/>
        <pt x="390" y="318" on="0"/>
        <pt x="309" y="342" on="0"/>
        <pt x="227" y="370" on="0"/>
        <pt x="158" y="414" on="0"/>
        <pt x="117" y="485" on="0"/>
        <pt x="117" y="541" on="1"/>
        <pt x="117" y="609" on="0"/>
        <pt x="190" y="698" on="0"/>
        <pt x="306" y="743" on="0"/>
        <pt x="370" y="743" on="1"/>
        <pt x="423" y="743" on="0"/>
        <pt x="523" y="713" on="0"/>
        <pt x="603" y="652" on="0"/>
        <pt x="624" y="607" on="1"/>
        <pt x="525" y="578" on="1"/>
        <pt x="506" y="616" on="0"/>
        <pt x="415" y="657" on="0"/>
        <pt x="366" y="657" on="1"/>
        <pt x="327" y="657" on="0"/>
        <pt x="260" y="633" on="0"/>
        <pt x="218" y="582" on="0"/>
        <pt x="218" y="544" on="1"/>
        <pt x="218" y="508" on="0"/>
        <pt x="260" y="462" on="0"/>
        <pt x="329" y="433" on="0"/>
        <pt x="412" y="409" on="0"/>
        <pt x="494" y="379" on="0"/>
        <pt x="564" y="335" on="0"/>
        <pt x="606" y="268" on="0"/>
        <pt x="606" y="215" on="1"/>
        <pt x="606" y="161" on="0"/>
        <pt x="558" y="75" on="0"/>
        <pt x="479" y="17" on="0"/>
        <pt x="381" y="-13" on="0"/>
      </contour>
      <contour>
        <pt x="354" y="813" on="1"/>
        <pt x="358" y="816" on="0"/>
        <pt x="398" y="850" on="0"/>
        <pt x="448" y="893" on="0"/>
        <pt x="492" y="929" on="0"/>
        <pt x="500" y="934" on="1"/>
        <pt x="515" y="944" on="0"/>
        <pt x="527" y="944" on="1"/>
        <pt x="543" y="944" on="0"/>
        <pt x="566" y="921" on="0"/>
        <pt x="566" y="905" on="1"/>
        <pt x="566" y="891" on="0"/>
        <pt x="553" y="873" on="0"/>
        <pt x="546" y="868" on="1"/>
        <pt x="539" y="863" on="0"/>
        <pt x="509" y="847" on="0"/>
        <pt x="473" y="829" on="0"/>
        <pt x="445" y="815" on="0"/>
        <pt x="441" y="813" on="1"/>
      </contour>
    </TTGlyph>
    <TTGlyph name="Scaron" xMin="62" yMin="-13" xMax="624" yMax="933">
      <contour>
        <pt x="328" y="-13" on="1"/>
        <pt x="272" y="-13" on="0"/>
        <pt x="165" y="24" on="0"/>
        <pt x="82" y="102" on="0"/>
        <pt x="62" y="161" on="1"/>
        <pt x="159" y="188" on="1"/>
        <pt x="180" y="129" on="0"/>
        <pt x="281" y="73" on="0"/>
        <pt x="337" y="73" on="1"/>
        <pt x="379" y="73" on="0"/>
        <pt x="454" y="103" on="0"/>
        <pt x="501" y="161" on="0"/>
        <pt x="501" y="201" on="1"/>
        <pt x="501" y="240" on="0"/>
        <pt x="459" y="287" on="0"/>
        <pt x="390" y="318" on="0"/>
        <pt x="309" y="342" on="0"/>
        <pt x="227" y="370" on="0"/>
        <pt x="158" y="414" on="0"/>
        <pt x="117" y="485" on="0"/>
        <pt x="117" y="541" on="1"/>
        <pt x="117" y="609" on="0"/>
        <pt x="190" y="698" on="0"/>
        <pt x="306" y="743" on="0"/>
        <pt x="370" y="743" on="1"/>
        <pt x="423" y="743" on="0"/>
        <pt x="523" y="713" on="0"/>
        <pt x="603" y="652" on="0"/>
        <pt x="624" y="607" on="1"/>
        <pt x="525" y="578" on="1"/>
        <pt x="506" y="616" on="0"/>
        <pt x="415" y="657" on="0"/>
        <pt x="366" y="657" on="1"/>
        <pt x="327" y="657" on="0"/>
        <pt x="260" y="633" on="0"/>
        <pt x="218" y="582" on="0"/>
        <pt x="218" y="544" on="1"/>
        <pt x="218" y="508" on="0"/>
        <pt x="260" y="462" on="0"/>
        <pt x="329" y="433" on="0"/>
        <pt x="412" y="409" on="0"/>
        <pt x="494" y="379" on="0"/>
        <pt x="564" y="335" on="0"/>
        <pt x="606" y="268" on="0"/>
        <pt x="606" y="215" on="1"/>
        <pt x="606" y="161" on="0"/>
        <pt x="558" y="75" on="0"/>
        <pt x="479" y="17" on="0"/>
        <pt x="381" y="-13" on="0"/>
      </contour>
      <contour>
        <pt x="424" y="802" on="1"/>
        <pt x="392" y="802" on="0"/>
        <pt x="374" y="823" on="1"/>
        <pt x="277" y="933" on="1"/>
        <pt x="374" y="933" on="1"/>
        <pt x="432" y="867" on="1"/>
        <pt x="519" y="933" on="1"/>
        <pt x="623" y="933" on="1"/>
        <pt x="480" y="823" on="1"/>
        <pt x="454" y="802" on="0"/>
      </contour>
    </TTGlyph>
    <TTGlyph name="Scedilla" xMin="62" yMin="-200" xMax="624" yMax="752">
      <contour>
        <pt x="328" y="-13" on="1"/>
        <pt x="272" y="-13" on="0"/>
        <pt x="165" y="24" on="0"/>
        <pt x="82" y="103" on="0"/>
        <pt x="62" y="163" on="1"/>
        <pt x="159" y="190" on="1"/>
        <pt x="180" y="131" on="0"/>
        <pt x="281" y="74" on="0"/>
        <pt x="337" y="74" on="1"/>
        <pt x="379" y="74" on="0"/>
        <pt x="454" y="104" on="0"/>
        <pt x="501" y="163" on="0"/>
        <pt x="501" y="203" on="1"/>
        <pt x="501" y="243" on="0"/>
        <pt x="459" y="290" on="0"/>
        <pt x="390" y="322" on="0"/>
        <pt x="309" y="346" on="0"/>
        <pt x="227" y="374" on="0"/>
        <pt x="158" y="419" on="0"/>
        <pt x="117" y="491" on="0"/>
        <pt x="117" y="547" on="1"/>
        <pt x="117" y="616" on="0"/>
        <pt x="190" y="706" on="0"/>
        <pt x="306" y="752" on="0"/>
        <pt x="370" y="752" on="1"/>
        <pt x="423" y="752" on="0"/>
        <pt x="523" y="722" on="0"/>
        <pt x="603" y="660" on="0"/>
        <pt x="624" y="614" on="1"/>
        <pt x="525" y="585" on="1"/>
        <pt x="506" y="623" on="0"/>
        <pt x="415" y="665" on="0"/>
        <pt x="366" y="665" on="1"/>
        <pt x="327" y="665" on="0"/>
        <pt x="260" y="641" on="0"/>
        <pt x="218" y="589" on="0"/>
        <pt x="218" y="551" on="1"/>
        <pt x="218" y="514" on="0"/>
        <pt x="260" y="468" on="0"/>
        <pt x="329" y="438" on="0"/>
        <pt x="412" y="414" on="0"/>
        <pt x="494" y="384" on="0"/>
        <pt x="564" y="339" on="0"/>
        <pt x="606" y="271" on="0"/>
        <pt x="606" y="218" on="1"/>
        <pt x="606" y="163" on="0"/>
        <pt x="558" y="76" on="0"/>
        <pt x="479" y="17" on="0"/>
        <pt x="381" y="-13" on="0"/>
      </contour>
      <contour>
        <pt x="276" y="-200" on="1"/>
        <pt x="236" y="-200" on="0"/>
        <pt x="183" y="-180" on="1"/>
        <pt x="207" y="-140" on="1"/>
        <pt x="226" y="-147" on="0"/>
        <pt x="256" y="-155" on="0"/>
        <pt x="268" y="-155" on="1"/>
        <pt x="297" y="-155" on="0"/>
        <pt x="329" y="-129" on="0"/>
        <pt x="329" y="-115" on="1"/>
        <pt x="329" y="-105" on="0"/>
        <pt x="312" y="-91" on="0"/>
        <pt x="292" y="-91" on="1"/>
        <pt x="276" y="-91" on="0"/>
        <pt x="261" y="-96" on="0"/>
        <pt x="255" y="-96" on="1"/>
        <pt x="235" y="-96" on="0"/>
        <pt x="235" y="-77" on="1"/>
        <pt x="235" y="-71" on="0"/>
        <pt x="241" y="-63" on="1"/>
        <pt x="313" y="27" on="1"/>
        <pt x="345" y="4" on="1"/>
        <pt x="302" y="-50" on="1"/>
        <pt x="309" y="-49" on="0"/>
        <pt x="321" y="-48" on="0"/>
        <pt x="327" y="-48" on="1"/>
        <pt x="363" y="-48" on="0"/>
        <pt x="397" y="-83" on="0"/>
        <pt x="397" y="-106" on="1"/>
        <pt x="397" y="-139" on="0"/>
        <pt x="336" y="-200" on="0"/>
      </contour>
    </TTGlyph>
    <TTGlyph name="Scircumflex" xMin="62" yMin="-13" xMax="624" yMax="950">
      <component glyphName="S" x="0" y="0" flags="0x204"/>
      <component glyphName="uni0302.case" x="183" y="0" flags="0x4"/>
    </TTGlyph>
    <TTGlyph name="Sigma" xMin="35" yMin="0" xMax="668" yMax="739">
      <contour>
        <pt x="35" y="0" on="1"/>
        <pt x="49" y="81" on="1"/>
        <pt x="345" y="385" on="1"/>
        <pt x="145" y="658" on="1"/>
        <pt x="159" y="739" on="1"/>
        <pt x="668" y="739" on="1"/>
        <pt x="654" y="658" on="1"/>
        <pt x="256" y="658" on="1"/>
        <pt x="463" y="380" on="1"/>
        <pt x="167" y="81" on="1"/>
        <pt x="557" y="81" on="1"/>
        <pt x="543" y="0" on="1"/>
      </contour>
    </TTGlyph>
    <TTGlyph name="T" xMin="54" yMin="0" xMax="640" yMax="739">
      <contour>
        <pt x="156" y="0" on="1"/>
        <pt x="286" y="649" on="1"/>
        <pt x="54" y="649" on="1"/>
        <pt x="72" y="739" on="1"/>
        <pt x="640" y="739" on="1"/>
        <pt x="622" y="649" on="1"/>
        <pt x="388" y="649" on="1"/>
        <pt x="258" y="0" on="1"/>
      </contour>
    </TTGlyph>
    <TTGlyph name="Tau" xMin="81" yMin="0" xMax="667" yMax="739">
      <component glyphName="T" x="27" y="0" flags="0x4"/>
    </TTGlyph>
    <TTGlyph name="Tbar" xMin="62" yMin="0" xMax="601" yMax="739">
      <contour>
        <pt x="167" y="0" on="1"/>
        <pt x="217" y="299" on="1"/>
        <pt x="62" y="299" on="1"/>
        <pt x="75" y="374" on="1"/>
        <pt x="230" y="374" on="1"/>
        <pt x="277" y="656" on="1"/>
        <pt x="63" y="656" on="1"/>
        <pt x="77" y="739" on="1"/>
        <pt x="601" y="739" on="1"/>
        <pt x="587" y="656" on="1"/>
        <pt x="373" y="656" on="1"/>
        <pt x="326" y="374" on="1"/>
        <pt x="481" y="374" on="1"/>
        <pt x="469" y="299" on="1"/>
        <pt x="313" y="299" on="1"/>
        <pt x="263" y="0" on="1"/>
      </contour>
    </TTGlyph>
    <TTGlyph name="Tcaron" xMin="54" yMin="0" xMax="640" yMax="933">
      <contour>
        <pt x="156" y="0" on="1"/>
        <pt x="286" y="641" on="1"/>
        <pt x="54" y="641" on="1"/>
        <pt x="72" y="730" on="1"/>
        <pt x="640" y="730" on="1"/>
        <pt x="622" y="641" on="1"/>
        <pt x="388" y="641" on="1"/>
        <pt x="258" y="0" on="1"/>
      </contour>
      <contour>
        <pt x="369" y="802" on="1"/>
        <pt x="338" y="802" on="0"/>
        <pt x="321" y="823" on="1"/>
        <pt x="224" y="933" on="1"/>
        <pt x="321" y="933" on="1"/>
        <pt x="377" y="867" on="1"/>
        <pt x="463" y="933" on="1"/>
        <pt x="566" y="933" on="1"/>
        <pt x="425" y="823" on="1"/>
        <pt x="399" y="802" on="0"/>
      </contour>
    </TTGlyph>
    <TTGlyph name="Theta" xMin="62" yMin="-10" xMax="606" yMax="749">
      <contour>
        <pt x="270" y="-10" on="1"/>
        <pt x="165" y="-10" on="0"/>
        <pt x="62" y="103" on="0"/>
        <pt x="79" y="202" on="1"/>
        <pt x="135" y="536" on="1"/>
        <pt x="152" y="636" on="0"/>
        <pt x="292" y="749" on="0"/>
        <pt x="397" y="749" on="1"/>
        <pt x="502" y="749" on="0"/>
        <pt x="606" y="637" on="0"/>
        <pt x="589" y="537" on="1"/>
        <pt x="533" y="202" on="1"/>
        <pt x="516" y="103" on="0"/>
        <pt x="375" y="-10" on="0"/>
      </contour>
      <contour>
        <pt x="284" y="72" on="1"/>
        <pt x="347" y="72" on="0"/>
        <pt x="426" y="140" on="0"/>
        <pt x="437" y="202" on="1"/>
        <pt x="492" y="536" on="1"/>
        <pt x="503" y="599" on="0"/>
        <pt x="446" y="667" on="0"/>
        <pt x="383" y="667" on="1"/>
        <pt x="321" y="667" on="0"/>
        <pt x="242" y="599" on="0"/>
        <pt x="231" y="536" on="1"/>
        <pt x="176" y="202" on="1"/>
        <pt x="165" y="140" on="0"/>
        <pt x="222" y="72" on="0"/>
      </contour>
      <contour>
        <pt x="230" y="329" on="1"/>
        <pt x="244" y="412" on="1"/>
        <pt x="437" y="412" on="1"/>
        <pt x="423" y="329" on="1"/>
      </contour>
    </TTGlyph>
    <TTGlyph name="Thorn" xMin="54" yMin="-9" xMax="640" yMax="729">
      <contour>
        <pt x="54" y="-9" on="1"/>
        <pt x="206" y="729" on="1"/>
        <pt x="298" y="729" on="1"/>
        <pt x="266" y="574" on="1"/>
        <pt x="401" y="574" on="1"/>
        <pt x="472" y="574" on="0"/>
        <pt x="579" y="545" on="0"/>
        <pt x="640" y="477" on="0"/>
        <pt x="640" y="418" on="1"/>
        <pt x="640" y="404" on="0"/>
        <pt x="637" y="370" on="0"/>
        <pt x="632" y="352" on="1"/>
        <pt x="607" y="248" on="0"/>
        <pt x="454" y="171" on="0"/>
        <pt x="319" y="171" on="1"/>
        <pt x="184" y="171" on="1"/>
        <pt x="146" y="-9" on="1"/>
      </contour>
      <contour>
        <pt x="202" y="261" on="1"/>
        <pt x="347" y="261" on="1"/>
        <pt x="438" y="261" on="0"/>
        <pt x="516" y="318" on="0"/>
        <pt x="525" y="355" on="1"/>
        <pt x="531" y="384" on="0"/>
        <pt x="531" y="405" on="1"/>
        <pt x="531" y="446" on="0"/>
        <pt x="469" y="485" on="0"/>
        <pt x="391" y="485" on="1"/>
        <pt x="248" y="485" on="1"/>
      </contour>
    </TTGlyph>
    <TTGlyph name="U" xMin="54" yMin="-13" xMax="640" yMax="739">
      <contour>
        <pt x="262" y="-13" on="1"/>
        <pt x="158" y="-13" on="0"/>
        <pt x="54" y="86" on="0"/>
        <pt x="54" y="193" on="1"/>
        <pt x="54" y="219" on="0"/>
        <pt x="61" y="277" on="0"/>
        <pt x="66" y="310" on="1"/>
        <pt x="143" y="739" on="1"/>
        <pt x="231" y="739" on="1"/>
        <pt x="154" y="301" on="1"/>
        <pt x="149" y="273" on="0"/>
        <pt x="144" y="226" on="0"/>
        <pt x="144" y="205" on="1"/>
        <pt x="144" y="139" on="0"/>
        <pt x="202" y="76" on="0"/>
        <pt x="266" y="76" on="1"/>
        <pt x="323" y="76" on="0"/>
        <pt x="404" y="116" on="0"/>
        <pt x="457" y="215" on="0"/>
        <pt x="474" y="301" on="1"/>
        <pt x="552" y="739" on="1"/>
        <pt x="640" y="739" on="1"/>
        <pt x="563" y="310" on="1"/>
        <pt x="544" y="199" on="0"/>
        <pt x="478" y="69" on="0"/>
        <pt x="395" y="5" on="0"/>
        <pt x="304" y="-13" on="0"/>
      </contour>
    </TTGlyph>
    <TTGlyph name="Uacute" xMin="54" yMin="-13" xMax="640" yMax="944">
      <contour>
        <pt x="262" y="-13" on="1"/>
        <pt x="158" y="-13" on="0"/>
        <pt x="54" y="85" on="0"/>
        <pt x="54" y="191" on="1"/>
        <pt x="54" y="216" on="0"/>
        <pt x="61" y="274" on="0"/>
        <pt x="66" y="306" on="1"/>
        <pt x="143" y="730" on="1"/>
        <pt x="231" y="730" on="1"/>
        <pt x="154" y="297" on="1"/>
        <pt x="149" y="270" on="0"/>
        <pt x="144" y="223" on="0"/>
        <pt x="144" y="203" on="1"/>
        <pt x="144" y="137" on="0"/>
        <pt x="202" y="75" on="0"/>
        <pt x="266" y="75" on="1"/>
        <pt x="323" y="75" on="0"/>
        <pt x="404" y="115" on="0"/>
        <pt x="457" y="212" on="0"/>
        <pt x="474" y="297" on="1"/>
        <pt x="552" y="730" on="1"/>
        <pt x="640" y="730" on="1"/>
        <pt x="563" y="306" on="1"/>
        <pt x="544" y="197" on="0"/>
        <pt x="478" y="68" on="0"/>
        <pt x="395" y="5" on="0"/>
        <pt x="304" y="-13" on="0"/>
      </contour>
      <contour>
        <pt x="334" y="813" on="1"/>
        <pt x="338" y="816" on="0"/>
        <pt x="372" y="850" on="0"/>
        <pt x="416" y="893" on="0"/>
        <pt x="453" y="929" on="0"/>
        <pt x="460" y="934" on="1"/>
        <pt x="472" y="944" on="0"/>
        <pt x="484" y="944" on="1"/>
        <pt x="497" y="944" on="0"/>
        <pt x="517" y="921" on="0"/>
        <pt x="517" y="905" on="1"/>
        <pt x="517" y="891" on="0"/>
        <pt x="506" y="873" on="0"/>
        <pt x="499" y="868" on="1"/>
        <pt x="494" y="863" on="0"/>
        <pt x="468" y="847" on="0"/>
        <pt x="437" y="829" on="0"/>
        <pt x="413" y="815" on="0"/>
        <pt x="409" y="813" on="1"/>
      </contour>
    </TTGlyph>
    <TTGlyph name="Ubreve" xMin="54" yMin="-13" xMax="640" yMax="950">
      <component glyphName="U" x="0" y="0" flags="0x204"/>
      <component glyphName="uni0306.case" x="223" y="0" flags="0x4"/>
    </TTGlyph>
    <TTGlyph name="Ucircumflex" xMin="54" yMin="-13" xMax="640" yMax="947">
      <contour>
        <pt x="262" y="-13" on="1"/>
        <pt x="158" y="-13" on="0"/>
        <pt x="54" y="85" on="0"/>
        <pt x="54" y="191" on="1"/>
        <pt x="54" y="216" on="0"/>
        <pt x="61" y="274" on="0"/>
        <pt x="66" y="306" on="1"/>
        <pt x="143" y="730" on="1"/>
        <pt x="231" y="730" on="1"/>
        <pt x="154" y="297" on="1"/>
        <pt x="149" y="270" on="0"/>
        <pt x="144" y="223" on="0"/>
        <pt x="144" y="203" on="1"/>
        <pt x="144" y="137" on="0"/>
        <pt x="202" y="75" on="0"/>
        <pt x="266" y="75" on="1"/>
        <pt x="323" y="75" on="0"/>
        <pt x="404" y="115" on="0"/>
        <pt x="457" y="212" on="0"/>
        <pt x="474" y="297" on="1"/>
        <pt x="552" y="730" on="1"/>
        <pt x="640" y="730" on="1"/>
        <pt x="563" y="306" on="1"/>
        <pt x="544" y="197" on="0"/>
        <pt x="478" y="68" on="0"/>
        <pt x="395" y="5" on="0"/>
        <pt x="304" y="-13" on="0"/>
      </contour>
      <contour>
        <pt x="247" y="816" on="1"/>
        <pt x="370" y="927" on="1"/>
        <pt x="391" y="947" on="0"/>
        <pt x="419" y="947" on="1"/>
        <pt x="445" y="947" on="0"/>
        <pt x="461" y="927" on="1"/>
        <pt x="544" y="816" on="1"/>
        <pt x="460" y="816" on="1"/>
        <pt x="409" y="883" on="1"/>
        <pt x="336" y="816" on="1"/>
      </contour>
    </TTGlyph>
    <TTGlyph name="Udieresis" xMin="54" yMin="-13" xMax="640" yMax="926">
      <contour>
        <pt x="262" y="-13" on="1"/>
        <pt x="158" y="-13" on="0"/>
        <pt x="54" y="85" on="0"/>
        <pt x="54" y="191" on="1"/>
        <pt x="54" y="216" on="0"/>
        <pt x="61" y="274" on="0"/>
        <pt x="66" y="306" on="1"/>
        <pt x="143" y="730" on="1"/>
        <pt x="231" y="730" on="1"/>
        <pt x="154" y="297" on="1"/>
        <pt x="149" y="270" on="0"/>
        <pt x="144" y="223" on="0"/>
        <pt x="144" y="203" on="1"/>
        <pt x="144" y="137" on="0"/>
        <pt x="202" y="75" on="0"/>
        <pt x="266" y="75" on="1"/>
        <pt x="323" y="75" on="0"/>
        <pt x="404" y="115" on="0"/>
        <pt x="457" y="212" on="0"/>
        <pt x="474" y="297" on="1"/>
        <pt x="552" y="730" on="1"/>
        <pt x="640" y="730" on="1"/>
        <pt x="563" y="306" on="1"/>
        <pt x="544" y="197" on="0"/>
        <pt x="478" y="68" on="0"/>
        <pt x="395" y="5" on="0"/>
        <pt x="304" y="-13" on="0"/>
      </contour>
      <contour>
        <pt x="308" y="809" on="1"/>
        <pt x="287" y="809" on="0"/>
        <pt x="257" y="844" on="0"/>
        <pt x="257" y="868" on="1"/>
        <pt x="257" y="892" on="0"/>
        <pt x="287" y="926" on="0"/>
        <pt x="308" y="926" on="1"/>
        <pt x="329" y="926" on="0"/>
        <pt x="357" y="892" on="0"/>
        <pt x="357" y="868" on="1"/>
        <pt x="357" y="844" on="0"/>
        <pt x="329" y="809" on="0"/>
      </contour>
      <contour>
        <pt x="502" y="809" on="1"/>
        <pt x="482" y="809" on="0"/>
        <pt x="453" y="844" on="0"/>
        <pt x="453" y="868" on="1"/>
        <pt x="453" y="892" on="0"/>
        <pt x="482" y="926" on="0"/>
        <pt x="502" y="926" on="1"/>
        <pt x="524" y="926" on="0"/>
        <pt x="552" y="892" on="0"/>
        <pt x="552" y="868" on="1"/>
        <pt x="552" y="844" on="0"/>
        <pt x="524" y="809" on="0"/>
      </contour>
    </TTGlyph>
    <TTGlyph name="Ugrave" xMin="54" yMin="-13" xMax="640" yMax="944">
      <contour>
        <pt x="262" y="-13" on="1"/>
        <pt x="158" y="-13" on="0"/>
        <pt x="54" y="85" on="0"/>
        <pt x="54" y="191" on="1"/>
        <pt x="54" y="216" on="0"/>
        <pt x="61" y="274" on="0"/>
        <pt x="66" y="306" on="1"/>
        <pt x="143" y="730" on="1"/>
        <pt x="231" y="730" on="1"/>
        <pt x="154" y="297" on="1"/>
        <pt x="149" y="270" on="0"/>
        <pt x="144" y="223" on="0"/>
        <pt x="144" y="203" on="1"/>
        <pt x="144" y="137" on="0"/>
        <pt x="202" y="75" on="0"/>
        <pt x="266" y="75" on="1"/>
        <pt x="323" y="75" on="0"/>
        <pt x="404" y="115" on="0"/>
        <pt x="457" y="212" on="0"/>
        <pt x="474" y="297" on="1"/>
        <pt x="552" y="730" on="1"/>
        <pt x="640" y="730" on="1"/>
        <pt x="563" y="306" on="1"/>
        <pt x="544" y="197" on="0"/>
        <pt x="478" y="68" on="0"/>
        <pt x="395" y="5" on="0"/>
        <pt x="304" y="-13" on="0"/>
      </contour>
      <contour>
        <pt x="389" y="813" on="1"/>
        <pt x="357" y="840" on="0"/>
        <pt x="338" y="860" on="1"/>
        <pt x="315" y="882" on="0"/>
        <pt x="315" y="905" on="1"/>
        <pt x="315" y="915" on="0"/>
        <pt x="330" y="944" on="0"/>
        <pt x="348" y="944" on="1"/>
        <pt x="364" y="944" on="0"/>
        <pt x="377" y="927" on="1"/>
        <pt x="394" y="903" on="0"/>
        <pt x="437" y="841" on="0"/>
        <pt x="456" y="813" on="1"/>
      </contour>
    </TTGlyph>
    <TTGlyph name="Uhorn" xMin="54" yMin="-13" xMax="665" yMax="840">
      <component glyphName="U" x="0" y="0" flags="0x204"/>
      <component glyphName="uni031B" x="401" y="180" flags="0x4"/>
    </TTGlyph>
    <TTGlyph name="Uhungarumlaut" xMin="54" yMin="-13" xMax="640" yMax="962">
      <contour>
        <pt x="262" y="-13" on="1"/>
        <pt x="158" y="-13" on="0"/>
        <pt x="54" y="85" on="0"/>
        <pt x="54" y="191" on="1"/>
        <pt x="54" y="216" on="0"/>
        <pt x="61" y="274" on="0"/>
        <pt x="66" y="306" on="1"/>
        <pt x="143" y="730" on="1"/>
        <pt x="231" y="730" on="1"/>
        <pt x="154" y="297" on="1"/>
        <pt x="149" y="270" on="0"/>
        <pt x="144" y="223" on="0"/>
        <pt x="144" y="203" on="1"/>
        <pt x="144" y="137" on="0"/>
        <pt x="202" y="75" on="0"/>
        <pt x="266" y="75" on="1"/>
        <pt x="323" y="75" on="0"/>
        <pt x="404" y="115" on="0"/>
        <pt x="457" y="212" on="0"/>
        <pt x="474" y="297" on="1"/>
        <pt x="552" y="730" on="1"/>
        <pt x="640" y="730" on="1"/>
        <pt x="563" y="306" on="1"/>
        <pt x="544" y="197" on="0"/>
        <pt x="478" y="68" on="0"/>
        <pt x="395" y="5" on="0"/>
        <pt x="304" y="-13" on="0"/>
      </contour>
      <contour>
        <pt x="291" y="813" on="1"/>
        <pt x="291" y="813" on="0"/>
        <pt x="310" y="837" on="0"/>
        <pt x="339" y="874" on="0"/>
        <pt x="371" y="915" on="0"/>
        <pt x="397" y="946" on="0"/>
        <pt x="402" y="952" on="1"/>
        <pt x="413" y="962" on="0"/>
        <pt x="425" y="962" on="1"/>
        <pt x="443" y="962" on="0"/>
        <pt x="451" y="949" on="1"/>
        <pt x="460" y="938" on="0"/>
        <pt x="460" y="921" on="1"/>
        <pt x="460" y="903" on="0"/>
        <pt x="449" y="890" on="1"/>
        <pt x="443" y="882" on="0"/>
        <pt x="413" y="857" on="0"/>
        <pt x="380" y="831" on="0"/>
        <pt x="358" y="813" on="0"/>
        <pt x="358" y="813" on="1"/>
      </contour>
      <contour>
        <pt x="424" y="813" on="1"/>
        <pt x="424" y="813" on="0"/>
        <pt x="453" y="850" on="0"/>
        <pt x="493" y="900" on="0"/>
        <pt x="529" y="945" on="0"/>
        <pt x="537" y="952" on="1"/>
        <pt x="547" y="962" on="0"/>
        <pt x="560" y="962" on="1"/>
        <pt x="576" y="962" on="0"/>
        <pt x="585" y="949" on="1"/>
        <pt x="593" y="935" on="0"/>
        <pt x="593" y="920" on="1"/>
        <pt x="593" y="902" on="0"/>
        <pt x="583" y="890" on="1"/>
        <pt x="576" y="882" on="0"/>
        <pt x="546" y="857" on="0"/>
        <pt x="514" y="831" on="0"/>
        <pt x="492" y="813" on="0"/>
        <pt x="492" y="813" on="1"/>
      </contour>
    </TTGlyph>
    <TTGlyph name="Umacron" xMin="54" yMin="-13" xMax="640" yMax="906">
      <contour>
        <pt x="262" y="-13" on="1"/>
        <pt x="158" y="-13" on="0"/>
        <pt x="54" y="85" on="0"/>
        <pt x="54" y="191" on="1"/>
        <pt x="54" y="216" on="0"/>
        <pt x="61" y="274" on="0"/>
        <pt x="66" y="306" on="1"/>
        <pt x="143" y="730" on="1"/>
        <pt x="231" y="730" on="1"/>
        <pt x="154" y="297" on="1"/>
        <pt x="149" y="270" on="0"/>
        <pt x="144" y="223" on="0"/>
        <pt x="144" y="203" on="1"/>
        <pt x="144" y="137" on="0"/>
        <pt x="202" y="75" on="0"/>
        <pt x="266" y="75" on="1"/>
        <pt x="323" y="75" on="0"/>
        <pt x="404" y="115" on="0"/>
        <pt x="457" y="212" on="0"/>
        <pt x="474" y="297" on="1"/>
        <pt x="552" y="730" on="1"/>
        <pt x="640" y="730" on="1"/>
        <pt x="563" y="306" on="1"/>
        <pt x="544" y="197" on="0"/>
        <pt x="478" y="68" on="0"/>
        <pt x="395" y="5" on="0"/>
        <pt x="304" y="-13" on="0"/>
      </contour>
      <contour>
        <pt x="271" y="833" on="1"/>
        <pt x="284" y="906" on="1"/>
        <pt x="539" y="906" on="1"/>
        <pt x="526" y="833" on="1"/>
      </contour>
    </TTGlyph>
    <TTGlyph name="Uogonek" xMin="54" yMin="-191" xMax="640" yMax="739">
      <contour>
        <pt x="262" y="-13" on="1"/>
        <pt x="158" y="-13" on="0"/>
        <pt x="54" y="86" on="0"/>
        <pt x="54" y="193" on="1"/>
        <pt x="54" y="219" on="0"/>
        <pt x="61" y="277" on="0"/>
        <pt x="66" y="310" on="1"/>
        <pt x="143" y="739" on="1"/>
        <pt x="231" y="739" on="1"/>
        <pt x="154" y="301" on="1"/>
        <pt x="149" y="273" on="0"/>
        <pt x="144" y="226" on="0"/>
        <pt x="144" y="205" on="1"/>
        <pt x="144" y="139" on="0"/>
        <pt x="202" y="76" on="0"/>
        <pt x="266" y="76" on="1"/>
        <pt x="323" y="76" on="0"/>
        <pt x="404" y="116" on="0"/>
        <pt x="457" y="215" on="0"/>
        <pt x="474" y="301" on="1"/>
        <pt x="552" y="739" on="1"/>
        <pt x="640" y="739" on="1"/>
        <pt x="563" y="310" on="1"/>
        <pt x="544" y="199" on="0"/>
        <pt x="478" y="69" on="0"/>
        <pt x="395" y="5" on="0"/>
        <pt x="304" y="-13" on="0"/>
      </contour>
      <contour>
        <pt x="230" y="-191" on="1"/>
        <pt x="191" y="-191" on="0"/>
        <pt x="151" y="-148" on="0"/>
        <pt x="151" y="-117" on="1"/>
        <pt x="151" y="-80" on="0"/>
        <pt x="205" y="-15" on="0"/>
        <pt x="250" y="0" on="1"/>
        <pt x="323" y="0" on="1"/>
        <pt x="279" y="-19" on="0"/>
        <pt x="223" y="-70" on="0"/>
        <pt x="223" y="-98" on="1"/>
        <pt x="223" y="-111" on="0"/>
        <pt x="243" y="-129" on="0"/>
        <pt x="261" y="-129" on="1"/>
        <pt x="279" y="-129" on="0"/>
        <pt x="301" y="-118" on="1"/>
        <pt x="291" y="-178" on="1"/>
        <pt x="255" y="-191" on="0"/>
      </contour>
    </TTGlyph>
    <TTGlyph name="Upsilon" xMin="81" yMin="0" xMax="667" yMax="739">
      <component glyphName="Y" x="27" y="0" flags="0x4"/>
    </TTGlyph>
    <TTGlyph name="Upsilondieresis" xMin="54" yMin="0" xMax="640" yMax="945">
      <component glyphName="Y" x="0" y="0" flags="0x204"/>
      <component glyphName="uni0308.case" x="201" y="0" flags="0x4"/>
    </TTGlyph>
    <TTGlyph name="Upsilontonos" xMin="-37" yMin="0" xMax="640" yMax="739">
      <component glyphName="tonos.case" x="-128" y="0" flags="0x4"/>
      <component glyphName="Y" x="0" y="0" flags="0x204"/>
    </TTGlyph>
    <TTGlyph name="Uring" xMin="54" yMin="-13" xMax="640" yMax="967">
      <contour>
        <pt x="262" y="-13" on="1"/>
        <pt x="158" y="-13" on="0"/>
        <pt x="54" y="85" on="0"/>
        <pt x="54" y="191" on="1"/>
        <pt x="54" y="216" on="0"/>
        <pt x="61" y="274" on="0"/>
        <pt x="66" y="306" on="1"/>
        <pt x="143" y="730" on="1"/>
        <pt x="231" y="730" on="1"/>
        <pt x="154" y="297" on="1"/>
        <pt x="149" y="270" on="0"/>
        <pt x="144" y="223" on="0"/>
        <pt x="144" y="203" on="1"/>
        <pt x="144" y="137" on="0"/>
        <pt x="202" y="75" on="0"/>
        <pt x="266" y="75" on="1"/>
        <pt x="323" y="75" on="0"/>
        <pt x="404" y="115" on="0"/>
        <pt x="457" y="212" on="0"/>
        <pt x="474" y="297" on="1"/>
        <pt x="552" y="730" on="1"/>
        <pt x="640" y="730" on="1"/>
        <pt x="563" y="306" on="1"/>
        <pt x="544" y="197" on="0"/>
        <pt x="478" y="68" on="0"/>
        <pt x="395" y="5" on="0"/>
        <pt x="304" y="-13" on="0"/>
      </contour>
      <contour>
        <pt x="404" y="729" on="1"/>
        <pt x="375" y="729" on="0"/>
        <pt x="329" y="762" on="0"/>
        <pt x="301" y="816" on="0"/>
        <pt x="301" y="848" on="1"/>
        <pt x="301" y="881" on="0"/>
        <pt x="329" y="934" on="0"/>
        <pt x="375" y="967" on="0"/>
        <pt x="404" y="967" on="1"/>
        <pt x="446" y="967" on="0"/>
        <pt x="502" y="896" on="0"/>
        <pt x="502" y="848" on="1"/>
        <pt x="502" y="800" on="0"/>
        <pt x="446" y="729" on="0"/>
      </contour>
      <contour>
        <pt x="402" y="792" on="1"/>
        <pt x="422" y="792" on="0"/>
        <pt x="450" y="825" on="0"/>
        <pt x="450" y="848" on="1"/>
        <pt x="450" y="871" on="0"/>
        <pt x="422" y="904" on="0"/>
        <pt x="402" y="904" on="1"/>
        <pt x="382" y="904" on="0"/>
        <pt x="354" y="871" on="0"/>
        <pt x="354" y="848" on="1"/>
        <pt x="354" y="825" on="0"/>
        <pt x="382" y="792" on="0"/>
      </contour>
    </TTGlyph>
    <TTGlyph name="Utilde" xMin="54" yMin="-13" xMax="640" yMax="945">
      <component glyphName="U" x="0" y="0" flags="0x204"/>
      <component glyphName="tildecomb.case" x="212" y="0" flags="0x4"/>
    </TTGlyph>
    <TTGlyph name="V" xMin="54" yMin="0" xMax="640" yMax="739">
      <contour>
        <pt x="144" y="0" on="1"/>
        <pt x="54" y="739" on="1"/>
        <pt x="156" y="739" on="1"/>
        <pt x="219" y="121" on="1"/>
        <pt x="527" y="739" on="1"/>
        <pt x="640" y="739" on="1"/>
        <pt x="260" y="0" on="1"/>
      </contour>
    </TTGlyph>
    <TTGlyph name="W" xMin="75" yMin="0" xMax="648" yMax="739">
      <contour>
        <pt x="93" y="0" on="1"/>
        <pt x="75" y="739" on="1"/>
        <pt x="145" y="739" on="1"/>
        <pt x="152" y="142" on="1"/>
        <pt x="315" y="739" on="1"/>
        <pt x="394" y="739" on="1"/>
        <pt x="398" y="130" on="1"/>
        <pt x="571" y="739" on="1"/>
        <pt x="648" y="739" on="1"/>
        <pt x="432" y="0" on="1"/>
        <pt x="348" y="0" on="1"/>
        <pt x="340" y="609" on="1"/>
        <pt x="170" y="0" on="1"/>
      </contour>
    </TTGlyph>
    <TTGlyph name="Wacute" xMin="75" yMin="0" xMax="648" yMax="950">
      <component glyphName="W" x="0" y="0" flags="0x204"/>
      <component glyphName="acutecomb.case" x="304" y="0" flags="0x4"/>
    </TTGlyph>
    <TTGlyph name="Wcircumflex" xMin="75" yMin="0" xMax="648" yMax="950">
      <component glyphName="W" x="0" y="0" flags="0x204"/>
      <component glyphName="uni0302.case" x="202" y="0" flags="0x4"/>
    </TTGlyph>
    <TTGlyph name="Wdieresis" xMin="75" yMin="0" xMax="648" yMax="945">
      <component glyphName="W" x="0" y="0" flags="0x204"/>
      <component glyphName="uni0308.case" x="215" y="0" flags="0x4"/>
    </TTGlyph>
    <TTGlyph name="Wgrave" xMin="75" yMin="0" xMax="648" yMax="950">
      <component glyphName="W" x="0" y="0" flags="0x204"/>
      <component glyphName="gravecomb.case" x="223" y="0" flags="0x4"/>
    </TTGlyph>
    <TTGlyph name="X" xMin="54" yMin="0" xMax="640" yMax="739">
      <contour>
        <pt x="54" y="0" on="1"/>
        <pt x="311" y="389" on="1"/>
        <pt x="187" y="739" on="1"/>
        <pt x="267" y="739" on="1"/>
        <pt x="362" y="468" on="1"/>
        <pt x="542" y="739" on="1"/>
        <pt x="640" y="739" on="1"/>
        <pt x="398" y="371" on="1"/>
        <pt x="530" y="0" on="1"/>
        <pt x="450" y="0" on="1"/>
        <pt x="345" y="292" on="1"/>
        <pt x="153" y="0" on="1"/>
      </contour>
    </TTGlyph>
    <TTGlyph name="Xi" xMin="50" yMin="0" xMax="644" yMax="739">
      <contour>
        <pt x="160" y="656" on="1"/>
        <pt x="174" y="739" on="1"/>
        <pt x="644" y="739" on="1"/>
        <pt x="631" y="656" on="1"/>
      </contour>
      <contour>
        <pt x="137" y="333" on="1"/>
        <pt x="151" y="416" on="1"/>
        <pt x="558" y="416" on="1"/>
        <pt x="544" y="333" on="1"/>
      </contour>
      <contour>
        <pt x="50" y="0" on="1"/>
        <pt x="63" y="83" on="1"/>
        <pt x="534" y="83" on="1"/>
        <pt x="520" y="0" on="1"/>
      </contour>
    </TTGlyph>
    <TTGlyph name="Y" xMin="54" yMin="0" xMax="640" yMax="739">
      <contour>
        <pt x="142" y="0" on="1"/>
        <pt x="195" y="265" on="1"/>
        <pt x="54" y="739" on="1"/>
        <pt x="151" y="739" on="1"/>
        <pt x="257" y="366" on="1"/>
        <pt x="525" y="739" on="1"/>
        <pt x="640" y="739" on="1"/>
        <pt x="293" y="265" on="1"/>
        <pt x="240" y="0" on="1"/>
      </contour>
    </TTGlyph>
    <TTGlyph name="Yacute" xMin="54" yMin="0" xMax="640" yMax="944">
      <contour>
        <pt x="142" y="0" on="1"/>
        <pt x="195" y="262" on="1"/>
        <pt x="54" y="730" on="1"/>
        <pt x="151" y="730" on="1"/>
        <pt x="257" y="362" on="1"/>
        <pt x="525" y="730" on="1"/>
        <pt x="640" y="730" on="1"/>
        <pt x="293" y="262" on="1"/>
        <pt x="240" y="0" on="1"/>
      </contour>
      <contour>
        <pt x="279" y="813" on="1"/>
        <pt x="283" y="816" on="0"/>
        <pt x="321" y="850" on="0"/>
        <pt x="369" y="893" on="0"/>
        <pt x="410" y="929" on="0"/>
        <pt x="417" y="934" on="1"/>
        <pt x="432" y="944" on="0"/>
        <pt x="444" y="944" on="1"/>
        <pt x="459" y="944" on="0"/>
        <pt x="480" y="921" on="0"/>
        <pt x="480" y="905" on="1"/>
        <pt x="480" y="891" on="0"/>
        <pt x="468" y="873" on="0"/>
        <pt x="461" y="868" on="1"/>
        <pt x="454" y="863" on="0"/>
        <pt x="426" y="847" on="0"/>
        <pt x="392" y="829" on="0"/>
        <pt x="365" y="815" on="0"/>
        <pt x="361" y="813" on="1"/>
      </contour>
    </TTGlyph>
    <TTGlyph name="Ycircumflex" xMin="54" yMin="0" xMax="640" yMax="950">
      <component glyphName="Y" x="0" y="0" flags="0x204"/>
      <component glyphName="uni0302.case" x="188" y="0" flags="0x4"/>
    </TTGlyph>
    <TTGlyph name="Ydieresis" xMin="54" yMin="0" xMax="640" yMax="926">
      <contour>
        <pt x="142" y="0" on="1"/>
        <pt x="195" y="262" on="1"/>
        <pt x="54" y="730" on="1"/>
        <pt x="151" y="730" on="1"/>
        <pt x="257" y="362" on="1"/>
        <pt x="525" y="730" on="1"/>
        <pt x="640" y="730" on="1"/>
        <pt x="293" y="262" on="1"/>
        <pt x="240" y="0" on="1"/>
      </contour>
      <contour>
        <pt x="250" y="809" on="1"/>
        <pt x="227" y="809" on="0"/>
        <pt x="195" y="844" on="0"/>
        <pt x="195" y="868" on="1"/>
        <pt x="195" y="892" on="0"/>
        <pt x="227" y="926" on="0"/>
        <pt x="250" y="926" on="1"/>
        <pt x="273" y="926" on="0"/>
        <pt x="304" y="892" on="0"/>
        <pt x="304" y="868" on="1"/>
        <pt x="304" y="844" on="0"/>
        <pt x="273" y="809" on="0"/>
      </contour>
      <contour>
        <pt x="464" y="809" on="1"/>
        <pt x="441" y="809" on="0"/>
        <pt x="410" y="844" on="0"/>
        <pt x="410" y="868" on="1"/>
        <pt x="410" y="892" on="0"/>
        <pt x="441" y="926" on="0"/>
        <pt x="464" y="926" on="1"/>
        <pt x="487" y="926" on="0"/>
        <pt x="518" y="892" on="0"/>
        <pt x="518" y="868" on="1"/>
        <pt x="518" y="844" on="0"/>
        <pt x="487" y="809" on="0"/>
      </contour>
    </TTGlyph>
    <TTGlyph name="Ygrave" xMin="54" yMin="0" xMax="640" yMax="950">
      <component glyphName="Y" x="0" y="0" flags="0x204"/>
      <component glyphName="gravecomb.case" x="209" y="0" flags="0x4"/>
    </TTGlyph>
    <TTGlyph name="Z" xMin="54" yMin="0" xMax="640" yMax="739">
      <contour>
        <pt x="54" y="0" on="1"/>
        <pt x="69" y="90" on="1"/>
        <pt x="515" y="649" on="1"/>
        <pt x="185" y="649" on="1"/>
        <pt x="200" y="739" on="1"/>
        <pt x="640" y="739" on="1"/>
        <pt x="625" y="649" on="1"/>
        <pt x="179" y="90" on="1"/>
        <pt x="537" y="90" on="1"/>
        <pt x="521" y="0" on="1"/>
      </contour>
    </TTGlyph>
    <TTGlyph name="Zacute" xMin="54" yMin="0" xMax="640" yMax="944">
      <contour>
        <pt x="54" y="0" on="1"/>
        <pt x="69" y="89" on="1"/>
        <pt x="515" y="641" on="1"/>
        <pt x="185" y="641" on="1"/>
        <pt x="200" y="730" on="1"/>
        <pt x="640" y="730" on="1"/>
        <pt x="625" y="641" on="1"/>
        <pt x="179" y="89" on="1"/>
        <pt x="537" y="89" on="1"/>
        <pt x="521" y="0" on="1"/>
      </contour>
      <contour>
        <pt x="371" y="813" on="1"/>
        <pt x="375" y="816" on="0"/>
        <pt x="408" y="850" on="0"/>
        <pt x="450" y="893" on="0"/>
        <pt x="486" y="929" on="0"/>
        <pt x="493" y="934" on="1"/>
        <pt x="505" y="944" on="0"/>
        <pt x="515" y="944" on="1"/>
        <pt x="529" y="944" on="0"/>
        <pt x="547" y="921" on="0"/>
        <pt x="547" y="905" on="1"/>
        <pt x="547" y="891" on="0"/>
        <pt x="537" y="873" on="0"/>
        <pt x="531" y="868" on="1"/>
        <pt x="526" y="863" on="0"/>
        <pt x="500" y="847" on="0"/>
        <pt x="470" y="829" on="0"/>
        <pt x="447" y="815" on="0"/>
        <pt x="444" y="813" on="1"/>
      </contour>
    </TTGlyph>
    <TTGlyph name="Zcaron" xMin="54" yMin="0" xMax="640" yMax="933">
      <contour>
        <pt x="54" y="0" on="1"/>
        <pt x="69" y="89" on="1"/>
        <pt x="515" y="641" on="1"/>
        <pt x="185" y="641" on="1"/>
        <pt x="200" y="730" on="1"/>
        <pt x="640" y="730" on="1"/>
        <pt x="625" y="641" on="1"/>
        <pt x="179" y="89" on="1"/>
        <pt x="537" y="89" on="1"/>
        <pt x="521" y="0" on="1"/>
      </contour>
      <contour>
        <pt x="430" y="802" on="1"/>
        <pt x="403" y="802" on="0"/>
        <pt x="388" y="823" on="1"/>
        <pt x="308" y="933" on="1"/>
        <pt x="388" y="933" on="1"/>
        <pt x="436" y="867" on="1"/>
        <pt x="509" y="933" on="1"/>
        <pt x="596" y="933" on="1"/>
        <pt x="477" y="823" on="1"/>
        <pt x="454" y="802" on="0"/>
      </contour>
    </TTGlyph>
    <TTGlyph name="Zdotaccent" xMin="54" yMin="0" xMax="640" yMax="943">
      <contour>
        <pt x="54" y="0" on="1"/>
        <pt x="69" y="89" on="1"/>
        <pt x="515" y="641" on="1"/>
        <pt x="185" y="641" on="1"/>
        <pt x="200" y="730" on="1"/>
        <pt x="640" y="730" on="1"/>
        <pt x="625" y="641" on="1"/>
        <pt x="179" y="89" on="1"/>
        <pt x="537" y="89" on="1"/>
        <pt x="521" y="0" on="1"/>
      </contour>
      <contour>
        <pt x="443" y="825" on="1"/>
        <pt x="423" y="825" on="0"/>
        <pt x="394" y="860" on="0"/>
        <pt x="394" y="884" on="1"/>
        <pt x="394" y="909" on="0"/>
        <pt x="423" y="943" on="0"/>
        <pt x="443" y="943" on="1"/>
        <pt x="463" y="943" on="0"/>
        <pt x="491" y="909" on="0"/>
        <pt x="491" y="884" on="1"/>
        <pt x="491" y="860" on="0"/>
        <pt x="463" y="825" on="0"/>
      </contour>
    </TTGlyph>
    <TTGlyph name="Zeta" xMin="81" yMin="0" xMax="667" yMax="739">
      <component glyphName="Z" x="27" y="0" flags="0x4"/>
    </TTGlyph>
    <TTGlyph name="a" xMin="54" yMin="-14" xMax="543" yMax="584">
      <contour>
        <pt x="214" y="-14" on="1"/>
        <pt x="145" y="-14" on="0"/>
        <pt x="54" y="67" on="0"/>
        <pt x="54" y="136" on="1"/>
        <pt x="54" y="193" on="0"/>
        <pt x="111" y="270" on="0"/>
        <pt x="202" y="316" on="0"/>
        <pt x="308" y="340" on="0"/>
        <pt x="408" y="352" on="0"/>
        <pt x="445" y="357" on="1"/>
        <pt x="448" y="373" on="0"/>
        <pt x="452" y="401" on="0"/>
        <pt x="452" y="413" on="1"/>
        <pt x="452" y="505" on="0"/>
        <pt x="354" y="505" on="1"/>
        <pt x="305" y="505" on="0"/>
        <pt x="236" y="458" on="0"/>
        <pt x="218" y="416" on="1"/>
        <pt x="138" y="442" on="1"/>
        <pt x="166" y="508" on="0"/>
        <pt x="273" y="584" on="0"/>
        <pt x="350" y="584" on="1"/>
        <pt x="443" y="584" on="0"/>
        <pt x="543" y="502" on="0"/>
        <pt x="543" y="419" on="1"/>
        <pt x="543" y="399" on="0"/>
        <pt x="538" y="359" on="0"/>
        <pt x="524" y="287" on="0"/>
        <pt x="510" y="217" on="1"/>
        <pt x="496" y="146" on="0"/>
        <pt x="487" y="40" on="0"/>
        <pt x="486" y="0" on="1"/>
        <pt x="401" y="0" on="1"/>
        <pt x="397" y="73" on="1"/>
        <pt x="361" y="30" on="0"/>
        <pt x="277" y="-14" on="0"/>
      </contour>
      <contour>
        <pt x="243" y="66" on="1"/>
        <pt x="315" y="66" on="0"/>
        <pt x="419" y="172" on="0"/>
        <pt x="433" y="260" on="1"/>
        <pt x="436" y="279" on="1"/>
        <pt x="348" y="270" on="0"/>
        <pt x="221" y="246" on="0"/>
        <pt x="155" y="195" on="0"/>
        <pt x="155" y="145" on="1"/>
        <pt x="155" y="105" on="0"/>
        <pt x="206" y="66" on="0"/>
      </contour>
    </TTGlyph>
    <TTGlyph name="aacute" xMin="54" yMin="-14" xMax="543" yMax="773">
      <contour>
        <pt x="214" y="-14" on="1"/>
        <pt x="145" y="-14" on="0"/>
        <pt x="54" y="67" on="0"/>
        <pt x="54" y="136" on="1"/>
        <pt x="54" y="193" on="0"/>
        <pt x="111" y="270" on="0"/>
        <pt x="202" y="316" on="0"/>
        <pt x="308" y="340" on="0"/>
        <pt x="408" y="352" on="0"/>
        <pt x="445" y="357" on="1"/>
        <pt x="448" y="373" on="0"/>
        <pt x="452" y="401" on="0"/>
        <pt x="452" y="413" on="1"/>
        <pt x="452" y="505" on="0"/>
        <pt x="354" y="505" on="1"/>
        <pt x="305" y="505" on="0"/>
        <pt x="236" y="458" on="0"/>
        <pt x="218" y="416" on="1"/>
        <pt x="138" y="442" on="1"/>
        <pt x="166" y="508" on="0"/>
        <pt x="273" y="584" on="0"/>
        <pt x="350" y="584" on="1"/>
        <pt x="443" y="584" on="0"/>
        <pt x="543" y="502" on="0"/>
        <pt x="543" y="419" on="1"/>
        <pt x="543" y="399" on="0"/>
        <pt x="538" y="359" on="0"/>
        <pt x="524" y="287" on="0"/>
        <pt x="510" y="217" on="1"/>
        <pt x="496" y="146" on="0"/>
        <pt x="487" y="40" on="0"/>
        <pt x="486" y="0" on="1"/>
        <pt x="401" y="0" on="1"/>
        <pt x="397" y="73" on="1"/>
        <pt x="361" y="30" on="0"/>
        <pt x="277" y="-14" on="0"/>
      </contour>
      <contour>
        <pt x="243" y="66" on="1"/>
        <pt x="315" y="66" on="0"/>
        <pt x="419" y="172" on="0"/>
        <pt x="433" y="260" on="1"/>
        <pt x="436" y="279" on="1"/>
        <pt x="348" y="270" on="0"/>
        <pt x="221" y="246" on="0"/>
        <pt x="155" y="195" on="0"/>
        <pt x="155" y="145" on="1"/>
        <pt x="155" y="105" on="0"/>
        <pt x="206" y="66" on="0"/>
      </contour>
      <contour>
        <pt x="339" y="625" on="1"/>
        <pt x="339" y="625" on="0"/>
        <pt x="372" y="662" on="0"/>
        <pt x="419" y="713" on="0"/>
        <pt x="461" y="756" on="0"/>
        <pt x="468" y="763" on="1"/>
        <pt x="480" y="773" on="0"/>
        <pt x="495" y="773" on="1"/>
        <pt x="513" y="773" on="0"/>
        <pt x="526" y="760" on="1"/>
        <pt x="536" y="749" on="0"/>
        <pt x="536" y="731" on="1"/>
        <pt x="536" y="713" on="0"/>
        <pt x="523" y="700" on="1"/>
        <pt x="515" y="694" on="0"/>
        <pt x="481" y="669" on="0"/>
        <pt x="444" y="643" on="0"/>
        <pt x="418" y="625" on="0"/>
        <pt x="418" y="625" on="1"/>
      </contour>
    </TTGlyph>
    <TTGlyph name="abreve" xMin="54" yMin="-14" xMax="582" yMax="745">
      <contour>
        <pt x="214" y="-14" on="1"/>
        <pt x="145" y="-14" on="0"/>
        <pt x="54" y="67" on="0"/>
        <pt x="54" y="136" on="1"/>
        <pt x="54" y="193" on="0"/>
        <pt x="111" y="270" on="0"/>
        <pt x="202" y="316" on="0"/>
        <pt x="308" y="340" on="0"/>
        <pt x="408" y="352" on="0"/>
        <pt x="445" y="357" on="1"/>
        <pt x="448" y="373" on="0"/>
        <pt x="452" y="401" on="0"/>
        <pt x="452" y="413" on="1"/>
        <pt x="452" y="505" on="0"/>
        <pt x="354" y="505" on="1"/>
        <pt x="305" y="505" on="0"/>
        <pt x="236" y="458" on="0"/>
        <pt x="218" y="416" on="1"/>
        <pt x="138" y="442" on="1"/>
        <pt x="166" y="508" on="0"/>
        <pt x="273" y="584" on="0"/>
        <pt x="350" y="584" on="1"/>
        <pt x="443" y="584" on="0"/>
        <pt x="543" y="502" on="0"/>
        <pt x="543" y="419" on="1"/>
        <pt x="543" y="399" on="0"/>
        <pt x="538" y="359" on="0"/>
        <pt x="524" y="287" on="0"/>
        <pt x="510" y="217" on="1"/>
        <pt x="496" y="146" on="0"/>
        <pt x="487" y="40" on="0"/>
        <pt x="486" y="0" on="1"/>
        <pt x="401" y="0" on="1"/>
        <pt x="397" y="73" on="1"/>
        <pt x="361" y="30" on="0"/>
        <pt x="277" y="-14" on="0"/>
      </contour>
      <contour>
        <pt x="243" y="66" on="1"/>
        <pt x="315" y="66" on="0"/>
        <pt x="419" y="172" on="0"/>
        <pt x="433" y="260" on="1"/>
        <pt x="436" y="279" on="1"/>
        <pt x="348" y="270" on="0"/>
        <pt x="221" y="246" on="0"/>
        <pt x="155" y="195" on="0"/>
        <pt x="155" y="145" on="1"/>
        <pt x="155" y="105" on="0"/>
        <pt x="206" y="66" on="0"/>
      </contour>
      <contour>
        <pt x="405" y="614" on="1"/>
        <pt x="360" y="614" on="0"/>
        <pt x="298" y="655" on="0"/>
        <pt x="267" y="716" on="0"/>
        <pt x="267" y="745" on="1"/>
        <pt x="341" y="745" on="1"/>
        <pt x="345" y="725" on="0"/>
        <pt x="378" y="687" on="0"/>
        <pt x="413" y="687" on="1"/>
        <pt x="447" y="687" on="0"/>
        <pt x="494" y="723" on="0"/>
        <pt x="508" y="745" on="1"/>
        <pt x="582" y="745" on="1"/>
        <pt x="569" y="714" on="0"/>
        <pt x="521" y="652" on="0"/>
        <pt x="451" y="614" on="0"/>
      </contour>
    </TTGlyph>
    <TTGlyph name="acircumflex" xMin="54" yMin="-14" xMax="572" yMax="760">
      <contour>
        <pt x="214" y="-14" on="1"/>
        <pt x="145" y="-14" on="0"/>
        <pt x="54" y="67" on="0"/>
        <pt x="54" y="136" on="1"/>
        <pt x="54" y="193" on="0"/>
        <pt x="111" y="270" on="0"/>
        <pt x="202" y="316" on="0"/>
        <pt x="308" y="340" on="0"/>
        <pt x="408" y="352" on="0"/>
        <pt x="445" y="357" on="1"/>
        <pt x="448" y="373" on="0"/>
        <pt x="452" y="401" on="0"/>
        <pt x="452" y="413" on="1"/>
        <pt x="452" y="505" on="0"/>
        <pt x="354" y="505" on="1"/>
        <pt x="305" y="505" on="0"/>
        <pt x="236" y="458" on="0"/>
        <pt x="218" y="416" on="1"/>
        <pt x="138" y="442" on="1"/>
        <pt x="166" y="508" on="0"/>
        <pt x="273" y="584" on="0"/>
        <pt x="350" y="584" on="1"/>
        <pt x="443" y="584" on="0"/>
        <pt x="543" y="502" on="0"/>
        <pt x="543" y="419" on="1"/>
        <pt x="543" y="399" on="0"/>
        <pt x="538" y="359" on="0"/>
        <pt x="524" y="287" on="0"/>
        <pt x="510" y="217" on="1"/>
        <pt x="496" y="146" on="0"/>
        <pt x="487" y="40" on="0"/>
        <pt x="486" y="0" on="1"/>
        <pt x="401" y="0" on="1"/>
        <pt x="397" y="73" on="1"/>
        <pt x="361" y="30" on="0"/>
        <pt x="277" y="-14" on="0"/>
      </contour>
      <contour>
        <pt x="243" y="66" on="1"/>
        <pt x="315" y="66" on="0"/>
        <pt x="419" y="172" on="0"/>
        <pt x="433" y="260" on="1"/>
        <pt x="436" y="279" on="1"/>
        <pt x="348" y="270" on="0"/>
        <pt x="221" y="246" on="0"/>
        <pt x="155" y="195" on="0"/>
        <pt x="155" y="145" on="1"/>
        <pt x="155" y="105" on="0"/>
        <pt x="206" y="66" on="0"/>
      </contour>
      <contour>
        <pt x="227" y="628" on="1"/>
        <pt x="369" y="739" on="1"/>
        <pt x="395" y="760" on="0"/>
        <pt x="427" y="760" on="1"/>
        <pt x="457" y="760" on="0"/>
        <pt x="475" y="739" on="1"/>
        <pt x="572" y="628" on="1"/>
        <pt x="474" y="628" on="1"/>
        <pt x="415" y="695" on="1"/>
        <pt x="329" y="628" on="1"/>
      </contour>
    </TTGlyph>
    <TTGlyph name="acknowledgecontrol" xMin="30" yMin="241" xMax="633" yMax="493">
      <component glyphName="A" x="12" y="245" scale="0.33" flags="0x4"/>
      <component glyphName="C" x="211" y="245" scale="0.33" flags="0x4"/>
      <component glyphName="K" x="422" y="245" scale="0.33" flags="0x4"/>
    </TTGlyph>
    <TTGlyph name="acute" xMin="369" yMin="645" xMax="576" yMax="785">
      <contour>
        <pt x="369" y="645" on="1"/>
        <pt x="477" y="785" on="1"/>
        <pt x="576" y="785" on="1"/>
        <pt x="462" y="645" on="1"/>
      </contour>
    </TTGlyph>
    <TTGlyph name="acute.case" xMin="345" yMin="810" xMax="580" yMax="950">
      <component glyphName="acutecomb.case" x="274" y="0" flags="0x4"/>
    </TTGlyph>
    <TTGlyph name="acutecomb" xMin="71" yMin="645" xMax="305" yMax="785">
      <contour>
        <pt x="71" y="645" on="1"/>
        <pt x="201" y="785" on="1"/>
        <pt x="305" y="785" on="1"/>
        <pt x="170" y="645" on="1"/>
      </contour>
    </TTGlyph>
    <TTGlyph name="acutecomb.case" xMin="71" yMin="810" xMax="306" yMax="950">
      <contour>
        <pt x="71" y="810" on="1"/>
        <pt x="202" y="950" on="1"/>
        <pt x="306" y="950" on="1"/>
        <pt x="170" y="810" on="1"/>
      </contour>
    </TTGlyph>
    <TTGlyph name="adieresis" xMin="54" yMin="-14" xMax="572" yMax="762">
      <contour>
        <pt x="214" y="-14" on="1"/>
        <pt x="145" y="-14" on="0"/>
        <pt x="54" y="67" on="0"/>
        <pt x="54" y="136" on="1"/>
        <pt x="54" y="193" on="0"/>
        <pt x="111" y="270" on="0"/>
        <pt x="202" y="316" on="0"/>
        <pt x="308" y="340" on="0"/>
        <pt x="408" y="352" on="0"/>
        <pt x="445" y="357" on="1"/>
        <pt x="448" y="373" on="0"/>
        <pt x="452" y="401" on="0"/>
        <pt x="452" y="413" on="1"/>
        <pt x="452" y="505" on="0"/>
        <pt x="354" y="505" on="1"/>
        <pt x="305" y="505" on="0"/>
        <pt x="236" y="458" on="0"/>
        <pt x="218" y="416" on="1"/>
        <pt x="138" y="442" on="1"/>
        <pt x="166" y="508" on="0"/>
        <pt x="273" y="584" on="0"/>
        <pt x="350" y="584" on="1"/>
        <pt x="443" y="584" on="0"/>
        <pt x="543" y="502" on="0"/>
        <pt x="543" y="419" on="1"/>
        <pt x="543" y="399" on="0"/>
        <pt x="538" y="359" on="0"/>
        <pt x="524" y="287" on="0"/>
        <pt x="510" y="217" on="1"/>
        <pt x="496" y="146" on="0"/>
        <pt x="487" y="40" on="0"/>
        <pt x="486" y="0" on="1"/>
        <pt x="401" y="0" on="1"/>
        <pt x="397" y="73" on="1"/>
        <pt x="361" y="30" on="0"/>
        <pt x="277" y="-14" on="0"/>
      </contour>
      <contour>
        <pt x="243" y="66" on="1"/>
        <pt x="315" y="66" on="0"/>
        <pt x="419" y="172" on="0"/>
        <pt x="433" y="260" on="1"/>
        <pt x="436" y="279" on="1"/>
        <pt x="348" y="270" on="0"/>
        <pt x="221" y="246" on="0"/>
        <pt x="155" y="195" on="0"/>
        <pt x="155" y="145" on="1"/>
        <pt x="155" y="105" on="0"/>
        <pt x="206" y="66" on="0"/>
      </contour>
      <contour>
        <pt x="289" y="645" on="1"/>
        <pt x="265" y="645" on="0"/>
        <pt x="231" y="680" on="0"/>
        <pt x="231" y="704" on="1"/>
        <pt x="231" y="728" on="0"/>
        <pt x="265" y="762" on="0"/>
        <pt x="289" y="762" on="1"/>
        <pt x="313" y="762" on="0"/>
        <pt x="346" y="728" on="0"/>
        <pt x="346" y="704" on="1"/>
        <pt x="346" y="680" on="0"/>
        <pt x="313" y="645" on="0"/>
      </contour>
      <contour>
        <pt x="514" y="645" on="1"/>
        <pt x="491" y="645" on="0"/>
        <pt x="458" y="680" on="0"/>
        <pt x="458" y="704" on="1"/>
        <pt x="458" y="728" on="0"/>
        <pt x="491" y="762" on="0"/>
        <pt x="514" y="762" on="1"/>
        <pt x="539" y="762" on="0"/>
        <pt x="572" y="728" on="0"/>
        <pt x="572" y="704" on="1"/>
        <pt x="572" y="680" on="0"/>
        <pt x="539" y="645" on="0"/>
      </contour>
    </TTGlyph>
    <TTGlyph name="ae" xMin="34" yMin="-14" xMax="620" yMax="584">
      <contour>
        <pt x="146" y="-14" on="1"/>
        <pt x="96" y="-14" on="0"/>
        <pt x="34" y="63" on="0"/>
        <pt x="34" y="137" on="1"/>
        <pt x="34" y="201" on="0"/>
        <pt x="73" y="282" on="0"/>
        <pt x="141" y="323" on="0"/>
        <pt x="234" y="338" on="0"/>
        <pt x="289" y="338" on="1"/>
        <pt x="292" y="360" on="0"/>
        <pt x="296" y="399" on="0"/>
        <pt x="296" y="413" on="1"/>
        <pt x="296" y="459" on="0"/>
        <pt x="265" y="504" on="0"/>
        <pt x="232" y="504" on="1"/>
        <pt x="200" y="504" on="0"/>
        <pt x="154" y="457" on="0"/>
        <pt x="143" y="414" on="1"/>
        <pt x="89" y="442" on="1"/>
        <pt x="107" y="507" on="0"/>
        <pt x="179" y="584" on="0"/>
        <pt x="228" y="584" on="1"/>
        <pt x="275" y="584" on="0"/>
        <pt x="332" y="540" on="0"/>
        <pt x="344" y="500" on="1"/>
        <pt x="398" y="584" on="0"/>
        <pt x="479" y="584" on="1"/>
        <pt x="526" y="584" on="0"/>
        <pt x="588" y="520" on="0"/>
        <pt x="620" y="412" on="0"/>
        <pt x="620" y="347" on="1"/>
        <pt x="620" y="304" on="0"/>
        <pt x="614" y="261" on="1"/>
        <pt x="342" y="261" on="1"/>
        <pt x="342" y="252" on="0"/>
        <pt x="342" y="236" on="0"/>
        <pt x="342" y="229" on="1"/>
        <pt x="342" y="170" on="0"/>
        <pt x="370" y="101" on="0"/>
        <pt x="413" y="72" on="0"/>
        <pt x="436" y="72" on="1"/>
        <pt x="465" y="72" on="0"/>
        <pt x="508" y="103" on="0"/>
        <pt x="523" y="128" on="1"/>
        <pt x="578" y="101" on="1"/>
        <pt x="554" y="50" on="0"/>
        <pt x="479" y="-14" on="0"/>
        <pt x="429" y="-14" on="1"/>
        <pt x="381" y="-14" on="0"/>
        <pt x="316" y="57" on="0"/>
        <pt x="299" y="116" on="1"/>
        <pt x="280" y="67" on="0"/>
        <pt x="228" y="11" on="0"/>
        <pt x="172" y="-14" on="0"/>
      </contour>
      <contour>
        <pt x="352" y="338" on="1"/>
        <pt x="557" y="338" on="1"/>
        <pt x="558" y="345" on="0"/>
        <pt x="558" y="354" on="0"/>
        <pt x="558" y="359" on="1"/>
        <pt x="558" y="394" on="0"/>
        <pt x="540" y="459" on="0"/>
        <pt x="502" y="500" on="0"/>
        <pt x="471" y="500" on="1"/>
        <pt x="445" y="500" on="0"/>
        <pt x="395" y="462" on="0"/>
        <pt x="358" y="390" on="0"/>
      </contour>
      <contour>
        <pt x="153" y="65" on="1"/>
        <pt x="203" y="66" on="0"/>
        <pt x="272" y="173" on="0"/>
        <pt x="283" y="260" on="1"/>
        <pt x="248" y="260" on="0"/>
        <pt x="182" y="252" on="0"/>
        <pt x="130" y="228" on="0"/>
        <pt x="100" y="179" on="0"/>
        <pt x="100" y="139" on="1"/>
        <pt x="100" y="109" on="0"/>
        <pt x="126" y="65" on="0"/>
      </contour>
    </TTGlyph>
    <TTGlyph name="aeacute" xMin="34" yMin="-14" xMax="620" yMax="787">
      <component glyphName="ae" x="0" y="0" flags="0x204"/>
      <component glyphName="acutecomb" x="244" y="2" flags="0x4"/>
    </TTGlyph>
    <TTGlyph name="agrave" xMin="54" yMin="-14" xMax="543" yMax="773">
      <contour>
        <pt x="214" y="-14" on="1"/>
        <pt x="145" y="-14" on="0"/>
        <pt x="54" y="67" on="0"/>
        <pt x="54" y="136" on="1"/>
        <pt x="54" y="193" on="0"/>
        <pt x="111" y="270" on="0"/>
        <pt x="202" y="316" on="0"/>
        <pt x="308" y="340" on="0"/>
        <pt x="408" y="352" on="0"/>
        <pt x="445" y="357" on="1"/>
        <pt x="448" y="373" on="0"/>
        <pt x="452" y="401" on="0"/>
        <pt x="452" y="413" on="1"/>
        <pt x="452" y="505" on="0"/>
        <pt x="354" y="505" on="1"/>
        <pt x="305" y="505" on="0"/>
        <pt x="236" y="458" on="0"/>
        <pt x="218" y="416" on="1"/>
        <pt x="138" y="442" on="1"/>
        <pt x="166" y="508" on="0"/>
        <pt x="273" y="584" on="0"/>
        <pt x="350" y="584" on="1"/>
        <pt x="443" y="584" on="0"/>
        <pt x="543" y="502" on="0"/>
        <pt x="543" y="419" on="1"/>
        <pt x="543" y="399" on="0"/>
        <pt x="538" y="359" on="0"/>
        <pt x="524" y="287" on="0"/>
        <pt x="510" y="217" on="1"/>
        <pt x="496" y="146" on="0"/>
        <pt x="487" y="40" on="0"/>
        <pt x="486" y="0" on="1"/>
        <pt x="401" y="0" on="1"/>
        <pt x="397" y="73" on="1"/>
        <pt x="361" y="30" on="0"/>
        <pt x="277" y="-14" on="0"/>
      </contour>
      <contour>
        <pt x="243" y="66" on="1"/>
        <pt x="315" y="66" on="0"/>
        <pt x="419" y="172" on="0"/>
        <pt x="433" y="260" on="1"/>
        <pt x="436" y="279" on="1"/>
        <pt x="348" y="270" on="0"/>
        <pt x="221" y="246" on="0"/>
        <pt x="155" y="195" on="0"/>
        <pt x="155" y="145" on="1"/>
        <pt x="155" y="105" on="0"/>
        <pt x="206" y="66" on="0"/>
      </contour>
      <contour>
        <pt x="360" y="624" on="1"/>
        <pt x="360" y="624" on="0"/>
        <pt x="330" y="656" on="0"/>
        <pt x="295" y="695" on="0"/>
        <pt x="287" y="707" on="1"/>
        <pt x="279" y="718" on="0"/>
        <pt x="279" y="731" on="1"/>
        <pt x="279" y="754" on="0"/>
        <pt x="295" y="765" on="1"/>
        <pt x="306" y="773" on="0"/>
        <pt x="320" y="773" on="1"/>
        <pt x="341" y="773" on="0"/>
        <pt x="352" y="756" on="1"/>
        <pt x="358" y="747" on="0"/>
        <pt x="385" y="705" on="0"/>
        <pt x="413" y="658" on="0"/>
        <pt x="433" y="624" on="0"/>
        <pt x="433" y="624" on="1"/>
      </contour>
    </TTGlyph>
    <TTGlyph name="alpha" xMin="35" yMin="-14" xMax="524" yMax="584">
      <component glyphName="a" x="-19" y="0" flags="0x4"/>
    </TTGlyph>
    <TTGlyph name="alphatonos" xMin="54" yMin="-14" xMax="543" yMax="787">
      <component glyphName="tonos" x="212" y="2" flags="0x4"/>
      <component glyphName="a" x="0" y="0" flags="0x204"/>
    </TTGlyph>
    <TTGlyph name="amacron" xMin="54" yMin="-14" xMax="568" yMax="730">
      <contour>
        <pt x="214" y="-14" on="1"/>
        <pt x="145" y="-14" on="0"/>
        <pt x="54" y="67" on="0"/>
        <pt x="54" y="136" on="1"/>
        <pt x="54" y="193" on="0"/>
        <pt x="111" y="270" on="0"/>
        <pt x="202" y="316" on="0"/>
        <pt x="308" y="340" on="0"/>
        <pt x="408" y="352" on="0"/>
        <pt x="445" y="357" on="1"/>
        <pt x="448" y="373" on="0"/>
        <pt x="452" y="401" on="0"/>
        <pt x="452" y="413" on="1"/>
        <pt x="452" y="505" on="0"/>
        <pt x="354" y="505" on="1"/>
        <pt x="305" y="505" on="0"/>
        <pt x="236" y="458" on="0"/>
        <pt x="218" y="416" on="1"/>
        <pt x="138" y="442" on="1"/>
        <pt x="166" y="508" on="0"/>
        <pt x="273" y="584" on="0"/>
        <pt x="350" y="584" on="1"/>
        <pt x="443" y="584" on="0"/>
        <pt x="543" y="502" on="0"/>
        <pt x="543" y="419" on="1"/>
        <pt x="543" y="399" on="0"/>
        <pt x="538" y="359" on="0"/>
        <pt x="524" y="287" on="0"/>
        <pt x="510" y="217" on="1"/>
        <pt x="496" y="146" on="0"/>
        <pt x="487" y="40" on="0"/>
        <pt x="486" y="0" on="1"/>
        <pt x="401" y="0" on="1"/>
        <pt x="397" y="73" on="1"/>
        <pt x="361" y="30" on="0"/>
        <pt x="277" y="-14" on="0"/>
      </contour>
      <contour>
        <pt x="243" y="66" on="1"/>
        <pt x="315" y="66" on="0"/>
        <pt x="419" y="172" on="0"/>
        <pt x="433" y="260" on="1"/>
        <pt x="436" y="279" on="1"/>
        <pt x="348" y="270" on="0"/>
        <pt x="221" y="246" on="0"/>
        <pt x="155" y="195" on="0"/>
        <pt x="155" y="145" on="1"/>
        <pt x="155" y="105" on="0"/>
        <pt x="206" y="66" on="0"/>
      </contour>
      <contour>
        <pt x="258" y="657" on="1"/>
        <pt x="273" y="730" on="1"/>
        <pt x="568" y="730" on="1"/>
        <pt x="553" y="657" on="1"/>
      </contour>
    </TTGlyph>
    <TTGlyph name="ampersand" xMin="46" yMin="-10" xMax="622" yMax="740">
      <contour>
        <pt x="214" y="-10" on="1"/>
        <pt x="128" y="-10" on="0"/>
        <pt x="46" y="78" on="0"/>
        <pt x="59" y="155" on="1"/>
        <pt x="79" y="280" on="1"/>
        <pt x="87" y="333" on="0"/>
        <pt x="158" y="406" on="0"/>
        <pt x="214" y="421" on="1"/>
        <pt x="208" y="431" on="1"/>
        <pt x="159" y="512" on="0"/>
        <pt x="171" y="581" on="1"/>
        <pt x="182" y="653" on="0"/>
        <pt x="301" y="740" on="0"/>
        <pt x="385" y="740" on="1"/>
        <pt x="476" y="740" on="0"/>
        <pt x="568" y="648" on="0"/>
        <pt x="554" y="569" on="1"/>
        <pt x="460" y="569" on="1"/>
        <pt x="468" y="613" on="0"/>
        <pt x="421" y="662" on="0"/>
        <pt x="373" y="662" on="1"/>
        <pt x="330" y="662" on="0"/>
        <pt x="271" y="617" on="0"/>
        <pt x="265" y="579" on="1"/>
        <pt x="261" y="554" on="0"/>
        <pt x="273" y="496" on="0"/>
        <pt x="288" y="470" on="1"/>
        <pt x="429" y="233" on="1"/>
        <pt x="524" y="360" on="1"/>
        <pt x="622" y="360" on="1"/>
        <pt x="471" y="161" on="1"/>
        <pt x="567" y="0" on="1"/>
        <pt x="464" y="0" on="1"/>
        <pt x="412" y="87" on="1"/>
        <pt x="319" y="-10" on="0"/>
      </contour>
      <contour>
        <pt x="233" y="70" on="1"/>
        <pt x="268" y="70" on="0"/>
        <pt x="342" y="115" on="0"/>
        <pt x="372" y="155" on="1"/>
        <pt x="251" y="358" on="1"/>
        <pt x="185" y="347" on="0"/>
        <pt x="173" y="280" on="1"/>
        <pt x="153" y="155" on="1"/>
        <pt x="146" y="115" on="0"/>
        <pt x="188" y="70" on="0"/>
      </contour>
    </TTGlyph>
    <TTGlyph name="anoteleia" xMin="0" yMin="265" xMax="175" yMax="431">
      <component glyphName="period" x="-32" y="275" flags="0x4"/>
    </TTGlyph>
    <TTGlyph name="aogonek" xMin="54" yMin="-200" xMax="543" yMax="584">
      <contour>
        <pt x="214" y="-14" on="1"/>
        <pt x="145" y="-14" on="0"/>
        <pt x="54" y="67" on="0"/>
        <pt x="54" y="136" on="1"/>
        <pt x="54" y="193" on="0"/>
        <pt x="111" y="270" on="0"/>
        <pt x="202" y="316" on="0"/>
        <pt x="308" y="340" on="0"/>
        <pt x="408" y="352" on="0"/>
        <pt x="445" y="357" on="1"/>
        <pt x="448" y="373" on="0"/>
        <pt x="452" y="401" on="0"/>
        <pt x="452" y="413" on="1"/>
        <pt x="452" y="505" on="0"/>
        <pt x="354" y="505" on="1"/>
        <pt x="305" y="505" on="0"/>
        <pt x="236" y="458" on="0"/>
        <pt x="218" y="416" on="1"/>
        <pt x="138" y="442" on="1"/>
        <pt x="166" y="508" on="0"/>
        <pt x="273" y="584" on="0"/>
        <pt x="350" y="584" on="1"/>
        <pt x="443" y="584" on="0"/>
        <pt x="543" y="502" on="0"/>
        <pt x="543" y="419" on="1"/>
        <pt x="543" y="399" on="0"/>
        <pt x="538" y="359" on="0"/>
        <pt x="524" y="287" on="0"/>
        <pt x="510" y="217" on="1"/>
        <pt x="496" y="146" on="0"/>
        <pt x="487" y="40" on="0"/>
        <pt x="486" y="0" on="1"/>
        <pt x="401" y="0" on="1"/>
        <pt x="397" y="73" on="1"/>
        <pt x="361" y="30" on="0"/>
        <pt x="277" y="-14" on="0"/>
      </contour>
      <contour>
        <pt x="243" y="66" on="1"/>
        <pt x="315" y="66" on="0"/>
        <pt x="419" y="172" on="0"/>
        <pt x="433" y="260" on="1"/>
        <pt x="436" y="279" on="1"/>
        <pt x="348" y="270" on="0"/>
        <pt x="221" y="246" on="0"/>
        <pt x="155" y="195" on="0"/>
        <pt x="155" y="145" on="1"/>
        <pt x="155" y="105" on="0"/>
        <pt x="206" y="66" on="0"/>
      </contour>
      <contour>
        <pt x="377" y="-200" on="1"/>
        <pt x="334" y="-200" on="0"/>
        <pt x="288" y="-155" on="0"/>
        <pt x="288" y="-123" on="1"/>
        <pt x="288" y="-84" on="0"/>
        <pt x="350" y="-16" on="0"/>
        <pt x="401" y="0" on="1"/>
        <pt x="486" y="0" on="1"/>
        <pt x="435" y="-20" on="0"/>
        <pt x="370" y="-73" on="0"/>
        <pt x="370" y="-103" on="1"/>
        <pt x="370" y="-117" on="0"/>
        <pt x="395" y="-135" on="0"/>
        <pt x="414" y="-135" on="1"/>
        <pt x="435" y="-135" on="0"/>
        <pt x="461" y="-124" on="1"/>
        <pt x="449" y="-187" on="1"/>
        <pt x="407" y="-200" on="0"/>
      </contour>
    </TTGlyph>
    <TTGlyph name="approxequal" xMin="58" yMin="105" xMax="532" yMax="555">
      <contour>
        <pt x="58" y="355" on="1"/>
        <pt x="58" y="425" on="1"/>
        <pt x="58" y="484" on="0"/>
        <pt x="132" y="555" on="0"/>
        <pt x="192" y="555" on="1"/>
        <pt x="230" y="555" on="0"/>
        <pt x="282" y="529" on="0"/>
        <pt x="317" y="490" on="0"/>
        <pt x="344" y="451" on="0"/>
        <pt x="375" y="425" on="0"/>
        <pt x="396" y="425" on="1"/>
        <pt x="444" y="425" on="0"/>
        <pt x="444" y="480" on="1"/>
        <pt x="444" y="550" on="1"/>
        <pt x="532" y="550" on="1"/>
        <pt x="532" y="480" on="1"/>
        <pt x="532" y="422" on="0"/>
        <pt x="459" y="350" on="0"/>
        <pt x="398" y="350" on="1"/>
        <pt x="360" y="350" on="0"/>
        <pt x="308" y="376" on="0"/>
        <pt x="273" y="415" on="0"/>
        <pt x="246" y="454" on="0"/>
        <pt x="215" y="480" on="0"/>
        <pt x="194" y="480" on="1"/>
        <pt x="146" y="480" on="0"/>
        <pt x="146" y="425" on="1"/>
        <pt x="146" y="355" on="1"/>
      </contour>
      <contour>
        <pt x="58" y="110" on="1"/>
        <pt x="58" y="180" on="1"/>
        <pt x="58" y="239" on="0"/>
        <pt x="132" y="310" on="0"/>
        <pt x="192" y="310" on="1"/>
        <pt x="230" y="310" on="0"/>
        <pt x="282" y="284" on="0"/>
        <pt x="317" y="245" on="0"/>
        <pt x="344" y="206" on="0"/>
        <pt x="375" y="180" on="0"/>
        <pt x="396" y="180" on="1"/>
        <pt x="444" y="180" on="0"/>
        <pt x="444" y="235" on="1"/>
        <pt x="444" y="305" on="1"/>
        <pt x="532" y="305" on="1"/>
        <pt x="532" y="235" on="1"/>
        <pt x="532" y="177" on="0"/>
        <pt x="459" y="105" on="0"/>
        <pt x="398" y="105" on="1"/>
        <pt x="360" y="105" on="0"/>
        <pt x="308" y="131" on="0"/>
        <pt x="273" y="170" on="0"/>
        <pt x="246" y="209" on="0"/>
        <pt x="215" y="235" on="0"/>
        <pt x="194" y="235" on="1"/>
        <pt x="146" y="235" on="0"/>
        <pt x="146" y="180" on="1"/>
        <pt x="146" y="110" on="1"/>
      </contour>
    </TTGlyph>
    <TTGlyph name="aring" xMin="54" yMin="-14" xMax="543" yMax="841">
      <contour>
        <pt x="214" y="-14" on="1"/>
        <pt x="145" y="-14" on="0"/>
        <pt x="54" y="67" on="0"/>
        <pt x="54" y="136" on="1"/>
        <pt x="54" y="193" on="0"/>
        <pt x="111" y="270" on="0"/>
        <pt x="202" y="316" on="0"/>
        <pt x="308" y="340" on="0"/>
        <pt x="408" y="352" on="0"/>
        <pt x="445" y="357" on="1"/>
        <pt x="448" y="373" on="0"/>
        <pt x="452" y="401" on="0"/>
        <pt x="452" y="413" on="1"/>
        <pt x="452" y="505" on="0"/>
        <pt x="354" y="505" on="1"/>
        <pt x="305" y="505" on="0"/>
        <pt x="236" y="458" on="0"/>
        <pt x="218" y="416" on="1"/>
        <pt x="138" y="442" on="1"/>
        <pt x="166" y="508" on="0"/>
        <pt x="273" y="584" on="0"/>
        <pt x="350" y="584" on="1"/>
        <pt x="443" y="584" on="0"/>
        <pt x="543" y="502" on="0"/>
        <pt x="543" y="419" on="1"/>
        <pt x="543" y="399" on="0"/>
        <pt x="538" y="359" on="0"/>
        <pt x="524" y="287" on="0"/>
        <pt x="510" y="217" on="1"/>
        <pt x="496" y="146" on="0"/>
        <pt x="487" y="40" on="0"/>
        <pt x="486" y="0" on="1"/>
        <pt x="401" y="0" on="1"/>
        <pt x="397" y="73" on="1"/>
        <pt x="361" y="30" on="0"/>
        <pt x="277" y="-14" on="0"/>
      </contour>
      <contour>
        <pt x="243" y="66" on="1"/>
        <pt x="315" y="66" on="0"/>
        <pt x="419" y="172" on="0"/>
        <pt x="433" y="260" on="1"/>
        <pt x="436" y="279" on="1"/>
        <pt x="348" y="270" on="0"/>
        <pt x="221" y="246" on="0"/>
        <pt x="155" y="195" on="0"/>
        <pt x="155" y="145" on="1"/>
        <pt x="155" y="105" on="0"/>
        <pt x="206" y="66" on="0"/>
      </contour>
      <contour>
        <pt x="421" y="603" on="1"/>
        <pt x="388" y="603" on="0"/>
        <pt x="335" y="636" on="0"/>
        <pt x="303" y="691" on="0"/>
        <pt x="303" y="722" on="1"/>
        <pt x="303" y="755" on="0"/>
        <pt x="335" y="809" on="0"/>
        <pt x="388" y="841" on="0"/>
        <pt x="421" y="841" on="1"/>
        <pt x="471" y="841" on="0"/>
        <pt x="536" y="770" on="0"/>
        <pt x="536" y="722" on="1"/>
        <pt x="536" y="674" on="0"/>
        <pt x="471" y="603" on="0"/>
      </contour>
      <contour>
        <pt x="419" y="667" on="1"/>
        <pt x="443" y="667" on="0"/>
        <pt x="475" y="699" on="0"/>
        <pt x="475" y="722" on="1"/>
        <pt x="475" y="745" on="0"/>
        <pt x="443" y="778" on="0"/>
        <pt x="419" y="778" on="1"/>
        <pt x="396" y="778" on="0"/>
        <pt x="364" y="745" on="0"/>
        <pt x="364" y="722" on="1"/>
        <pt x="364" y="699" on="0"/>
        <pt x="396" y="667" on="0"/>
      </contour>
    </TTGlyph>
    <TTGlyph name="arrowboth" xMin="0" yMin="35" xMax="782" yMax="625">
      <contour>
        <pt x="239" y="35" on="1"/>
        <pt x="0" y="330" on="1"/>
        <pt x="238" y="625" on="1"/>
        <pt x="347" y="625" on="1"/>
        <pt x="180" y="420" on="1"/>
        <pt x="170" y="407" on="0"/>
        <pt x="143" y="382" on="0"/>
        <pt x="134" y="375" on="1"/>
        <pt x="134" y="366" on="1"/>
        <pt x="147" y="368" on="0"/>
        <pt x="189" y="370" on="0"/>
        <pt x="206" y="370" on="1"/>
        <pt x="576" y="370" on="1"/>
        <pt x="594" y="370" on="0"/>
        <pt x="635" y="367" on="0"/>
        <pt x="649" y="365" on="1"/>
        <pt x="649" y="374" on="1"/>
        <pt x="641" y="380" on="0"/>
        <pt x="616" y="406" on="0"/>
        <pt x="602" y="421" on="1"/>
        <pt x="435" y="625" on="1"/>
        <pt x="543" y="625" on="1"/>
        <pt x="782" y="330" on="1"/>
        <pt x="544" y="35" on="1"/>
        <pt x="435" y="35" on="1"/>
        <pt x="602" y="240" on="1"/>
        <pt x="612" y="253" on="0"/>
        <pt x="639" y="278" on="0"/>
        <pt x="649" y="285" on="1"/>
        <pt x="649" y="294" on="1"/>
        <pt x="635" y="293" on="0"/>
        <pt x="594" y="290" on="0"/>
        <pt x="576" y="290" on="1"/>
        <pt x="206" y="290" on="1"/>
        <pt x="189" y="290" on="0"/>
        <pt x="147" y="294" on="0"/>
        <pt x="134" y="295" on="1"/>
        <pt x="134" y="286" on="1"/>
        <pt x="141" y="280" on="0"/>
        <pt x="166" y="254" on="0"/>
        <pt x="180" y="239" on="1"/>
        <pt x="347" y="35" on="1"/>
      </contour>
    </TTGlyph>
    <TTGlyph name="arrowdblboth" xMin="0" yMin="35" xMax="782" yMax="625">
      <contour>
        <pt x="238" y="35" on="1"/>
        <pt x="0" y="330" on="1"/>
        <pt x="239" y="625" on="1"/>
        <pt x="347" y="625" on="1"/>
        <pt x="238" y="490" on="1"/>
        <pt x="544" y="490" on="1"/>
        <pt x="435" y="625" on="1"/>
        <pt x="543" y="625" on="1"/>
        <pt x="782" y="330" on="1"/>
        <pt x="544" y="35" on="1"/>
        <pt x="435" y="35" on="1"/>
        <pt x="544" y="170" on="1"/>
        <pt x="238" y="170" on="1"/>
        <pt x="347" y="35" on="1"/>
      </contour>
      <contour>
        <pt x="173" y="250" on="1"/>
        <pt x="609" y="250" on="1"/>
        <pt x="674" y="330" on="1"/>
        <pt x="609" y="410" on="1"/>
        <pt x="173" y="410" on="1"/>
        <pt x="108" y="330" on="1"/>
      </contour>
    </TTGlyph>
    <TTGlyph name="arrowdbldown" xMin="24" yMin="-190" xMax="662" yMax="829">
      <contour>
        <pt x="410" y="829" on="1"/>
        <pt x="410" y="-190" on="1"/>
        <pt x="662" y="48" on="1"/>
        <pt x="662" y="113" on="1"/>
        <pt x="461" y="-76" on="1"/>
        <pt x="461" y="829" on="1"/>
      </contour>
      <contour>
        <pt x="225" y="829" on="1"/>
        <pt x="225" y="-76" on="1"/>
        <pt x="24" y="113" on="1"/>
        <pt x="24" y="48" on="1"/>
        <pt x="276" y="-190" on="1"/>
        <pt x="276" y="829" on="1"/>
      </contour>
    </TTGlyph>
    <TTGlyph name="arrowdblright" xMin="0" yMin="35" xMax="782" yMax="625">
      <contour>
        <pt x="435" y="35" on="1"/>
        <pt x="544" y="170" on="1"/>
        <pt x="0" y="170" on="1"/>
        <pt x="0" y="250" on="1"/>
        <pt x="609" y="250" on="1"/>
        <pt x="674" y="330" on="1"/>
        <pt x="609" y="410" on="1"/>
        <pt x="0" y="410" on="1"/>
        <pt x="0" y="490" on="1"/>
        <pt x="544" y="490" on="1"/>
        <pt x="435" y="625" on="1"/>
        <pt x="543" y="625" on="1"/>
        <pt x="782" y="330" on="1"/>
        <pt x="544" y="35" on="1"/>
      </contour>
    </TTGlyph>
    <TTGlyph name="arrowdblup" xMin="5" yMin="-180" xMax="643" yMax="839">
      <contour>
        <pt x="391" y="-180" on="1"/>
        <pt x="391" y="839" on="1"/>
        <pt x="643" y="601" on="1"/>
        <pt x="643" y="536" on="1"/>
        <pt x="442" y="725" on="1"/>
        <pt x="442" y="-180" on="1"/>
      </contour>
      <contour>
        <pt x="206" y="-180" on="1"/>
        <pt x="206" y="725" on="1"/>
        <pt x="5" y="536" on="1"/>
        <pt x="5" y="601" on="1"/>
        <pt x="257" y="839" on="1"/>
        <pt x="257" y="-180" on="1"/>
      </contour>
    </TTGlyph>
    <TTGlyph name="arrowdown" xMin="21" yMin="-10" xMax="619" yMax="730">
      <contour>
        <pt x="319" y="-10" on="1"/>
        <pt x="21" y="236" on="1"/>
        <pt x="21" y="341" on="1"/>
        <pt x="213" y="183" on="1"/>
        <pt x="236" y="164" on="0"/>
        <pt x="264" y="136" on="0"/>
        <pt x="269" y="130" on="1"/>
        <pt x="279" y="130" on="1"/>
        <pt x="278" y="143" on="0"/>
        <pt x="274" y="188" on="0"/>
        <pt x="274" y="210" on="1"/>
        <pt x="274" y="730" on="1"/>
        <pt x="366" y="730" on="1"/>
        <pt x="366" y="210" on="1"/>
        <pt x="366" y="188" on="0"/>
        <pt x="363" y="143" on="0"/>
        <pt x="361" y="130" on="1"/>
        <pt x="372" y="130" on="1"/>
        <pt x="382" y="145" on="0"/>
        <pt x="428" y="184" on="1"/>
        <pt x="619" y="342" on="1"/>
        <pt x="619" y="237" on="1"/>
      </contour>
    </TTGlyph>
    <TTGlyph name="arrowleft" xMin="42" yMin="35" xMax="588" yMax="625">
      <contour>
        <pt x="281" y="35" on="1"/>
        <pt x="42" y="330" on="1"/>
        <pt x="280" y="625" on="1"/>
        <pt x="389" y="625" on="1"/>
        <pt x="222" y="420" on="1"/>
        <pt x="212" y="407" on="0"/>
        <pt x="185" y="382" on="0"/>
        <pt x="176" y="375" on="1"/>
        <pt x="176" y="366" on="1"/>
        <pt x="189" y="368" on="0"/>
        <pt x="232" y="370" on="0"/>
        <pt x="248" y="370" on="1"/>
        <pt x="588" y="370" on="1"/>
        <pt x="588" y="290" on="1"/>
        <pt x="248" y="290" on="1"/>
        <pt x="232" y="290" on="0"/>
        <pt x="189" y="294" on="0"/>
        <pt x="176" y="295" on="1"/>
        <pt x="176" y="286" on="1"/>
        <pt x="183" y="280" on="0"/>
        <pt x="209" y="254" on="0"/>
        <pt x="222" y="239" on="1"/>
        <pt x="389" y="35" on="1"/>
      </contour>
    </TTGlyph>
    <TTGlyph name="arrowright" xMin="42" yMin="35" xMax="588" yMax="625">
      <contour>
        <pt x="241" y="35" on="1"/>
        <pt x="408" y="240" on="1"/>
        <pt x="418" y="253" on="0"/>
        <pt x="445" y="278" on="0"/>
        <pt x="454" y="285" on="1"/>
        <pt x="454" y="294" on="1"/>
        <pt x="441" y="293" on="0"/>
        <pt x="400" y="290" on="0"/>
        <pt x="382" y="290" on="1"/>
        <pt x="42" y="290" on="1"/>
        <pt x="42" y="370" on="1"/>
        <pt x="382" y="370" on="1"/>
        <pt x="400" y="370" on="0"/>
        <pt x="441" y="367" on="0"/>
        <pt x="454" y="365" on="1"/>
        <pt x="454" y="374" on="1"/>
        <pt x="447" y="380" on="0"/>
        <pt x="421" y="406" on="0"/>
        <pt x="408" y="421" on="1"/>
        <pt x="241" y="625" on="1"/>
        <pt x="349" y="625" on="1"/>
        <pt x="588" y="330" on="1"/>
        <pt x="350" y="35" on="1"/>
      </contour>
    </TTGlyph>
    <TTGlyph name="arrowup" xMin="21" yMin="0" xMax="619" yMax="740">
      <contour>
        <pt x="274" y="0" on="1"/>
        <pt x="274" y="520" on="1"/>
        <pt x="274" y="542" on="0"/>
        <pt x="278" y="587" on="0"/>
        <pt x="279" y="600" on="1"/>
        <pt x="269" y="600" on="1"/>
        <pt x="258" y="585" on="0"/>
        <pt x="212" y="546" on="1"/>
        <pt x="21" y="388" on="1"/>
        <pt x="21" y="493" on="1"/>
        <pt x="321" y="740" on="1"/>
        <pt x="619" y="494" on="1"/>
        <pt x="619" y="389" on="1"/>
        <pt x="427" y="547" on="1"/>
        <pt x="404" y="566" on="0"/>
        <pt x="377" y="594" on="0"/>
        <pt x="372" y="600" on="1"/>
        <pt x="361" y="600" on="1"/>
        <pt x="363" y="587" on="0"/>
        <pt x="366" y="542" on="0"/>
        <pt x="366" y="520" on="1"/>
        <pt x="366" y="0" on="1"/>
      </contour>
    </TTGlyph>
    <TTGlyph name="arrowupdn" xMin="21" yMin="-170" xMax="619" yMax="900">
      <contour>
        <pt x="320" y="-170" on="1"/>
        <pt x="21" y="76" on="1"/>
        <pt x="21" y="181" on="1"/>
        <pt x="213" y="23" on="1"/>
        <pt x="236" y="4" on="0"/>
        <pt x="264" y="-24" on="0"/>
        <pt x="269" y="-30" on="1"/>
        <pt x="279" y="-30" on="1"/>
        <pt x="278" y="-17" on="0"/>
        <pt x="274" y="28" on="0"/>
        <pt x="274" y="50" on="1"/>
        <pt x="274" y="680" on="1"/>
        <pt x="274" y="702" on="0"/>
        <pt x="278" y="747" on="0"/>
        <pt x="279" y="760" on="1"/>
        <pt x="269" y="760" on="1"/>
        <pt x="258" y="745" on="0"/>
        <pt x="212" y="706" on="1"/>
        <pt x="21" y="548" on="1"/>
        <pt x="21" y="653" on="1"/>
        <pt x="320" y="900" on="1"/>
        <pt x="619" y="654" on="1"/>
        <pt x="619" y="549" on="1"/>
        <pt x="427" y="707" on="1"/>
        <pt x="404" y="726" on="0"/>
        <pt x="377" y="754" on="0"/>
        <pt x="372" y="760" on="1"/>
        <pt x="361" y="760" on="1"/>
        <pt x="363" y="747" on="0"/>
        <pt x="366" y="702" on="0"/>
        <pt x="366" y="680" on="1"/>
        <pt x="366" y="50" on="1"/>
        <pt x="366" y="28" on="0"/>
        <pt x="363" y="-17" on="0"/>
        <pt x="361" y="-30" on="1"/>
        <pt x="372" y="-30" on="1"/>
        <pt x="382" y="-15" on="0"/>
        <pt x="428" y="24" on="1"/>
        <pt x="619" y="182" on="1"/>
        <pt x="619" y="77" on="1"/>
      </contour>
    </TTGlyph>
    <TTGlyph name="asciicircum" xMin="57" yMin="340" xMax="511" yMax="730">
      <contour>
        <pt x="57" y="340" on="1"/>
        <pt x="242" y="730" on="1"/>
        <pt x="328" y="730" on="1"/>
        <pt x="511" y="340" on="1"/>
        <pt x="427" y="340" on="1"/>
        <pt x="312" y="598" on="1"/>
        <pt x="304" y="618" on="0"/>
        <pt x="290" y="655" on="0"/>
        <pt x="287" y="665" on="1"/>
        <pt x="283" y="655" on="0"/>
        <pt x="269" y="618" on="0"/>
        <pt x="259" y="598" on="1"/>
        <pt x="141" y="340" on="1"/>
      </contour>
    </TTGlyph>
    <TTGlyph name="asciitilde" xMin="58" yMin="250" xMax="532" yMax="455">
      <contour>
        <pt x="58" y="255" on="1"/>
        <pt x="58" y="325" on="1"/>
        <pt x="58" y="384" on="0"/>
        <pt x="132" y="455" on="0"/>
        <pt x="192" y="455" on="1"/>
        <pt x="230" y="455" on="0"/>
        <pt x="282" y="429" on="0"/>
        <pt x="317" y="390" on="0"/>
        <pt x="344" y="351" on="0"/>
        <pt x="375" y="325" on="0"/>
        <pt x="396" y="325" on="1"/>
        <pt x="444" y="325" on="0"/>
        <pt x="444" y="380" on="1"/>
        <pt x="444" y="450" on="1"/>
        <pt x="532" y="450" on="1"/>
        <pt x="532" y="380" on="1"/>
        <pt x="532" y="322" on="0"/>
        <pt x="459" y="250" on="0"/>
        <pt x="398" y="250" on="1"/>
        <pt x="360" y="250" on="0"/>
        <pt x="308" y="276" on="0"/>
        <pt x="273" y="315" on="0"/>
        <pt x="246" y="354" on="0"/>
        <pt x="215" y="380" on="0"/>
        <pt x="194" y="380" on="1"/>
        <pt x="146" y="380" on="0"/>
        <pt x="146" y="325" on="1"/>
        <pt x="146" y="255" on="1"/>
      </contour>
    </TTGlyph>
    <TTGlyph name="asterisk" xMin="0" yMin="94" xMax="545" yMax="610">
      <contour>
        <pt x="103" y="94" on="1"/>
        <pt x="37" y="144" on="1"/>
        <pt x="105" y="222" on="1"/>
        <pt x="129" y="250" on="0"/>
        <pt x="198" y="305" on="0"/>
        <pt x="224" y="323" on="1"/>
        <pt x="222" y="330" on="1"/>
        <pt x="193" y="332" on="0"/>
        <pt x="115" y="344" on="0"/>
        <pt x="85" y="355" on="1"/>
        <pt x="0" y="387" on="1"/>
        <pt x="44" y="470" on="1"/>
        <pt x="129" y="438" on="1"/>
        <pt x="160" y="427" on="0"/>
        <pt x="224" y="384" on="0"/>
        <pt x="245" y="367" on="1"/>
        <pt x="251" y="371" on="1"/>
        <pt x="248" y="399" on="0"/>
        <pt x="244" y="481" on="0"/>
        <pt x="249" y="515" on="1"/>
        <pt x="264" y="610" on="1"/>
        <pt x="355" y="610" on="1"/>
        <pt x="339" y="515" on="1"/>
        <pt x="334" y="481" on="0"/>
        <pt x="302" y="399" on="0"/>
        <pt x="289" y="371" on="1"/>
        <pt x="293" y="367" on="1"/>
        <pt x="320" y="384" on="0"/>
        <pt x="397" y="427" on="0"/>
        <pt x="431" y="438" on="1"/>
        <pt x="528" y="470" on="1"/>
        <pt x="545" y="387" on="1"/>
        <pt x="449" y="355" on="1"/>
        <pt x="416" y="344" on="0"/>
        <pt x="334" y="332" on="0"/>
        <pt x="304" y="330" on="1"/>
        <pt x="299" y="322" on="1"/>
        <pt x="320" y="304" on="0"/>
        <pt x="369" y="249" on="0"/>
        <pt x="385" y="222" on="1"/>
        <pt x="429" y="144" on="1"/>
        <pt x="347" y="94" on="1"/>
        <pt x="302" y="172" on="1"/>
        <pt x="287" y="199" on="0"/>
        <pt x="267" y="273" on="0"/>
        <pt x="262" y="300" on="1"/>
        <pt x="255" y="300" on="1"/>
        <pt x="241" y="273" on="0"/>
        <pt x="194" y="200" on="0"/>
        <pt x="171" y="172" on="1"/>
      </contour>
    </TTGlyph>
    <TTGlyph name="at" xMin="22" yMin="-180" xMax="657" yMax="740">
      <contour>
        <pt x="281" y="-180" on="1"/>
        <pt x="192" y="-180" on="0"/>
        <pt x="72" y="-109" on="0"/>
        <pt x="22" y="22" on="0"/>
        <pt x="36" y="110" on="1"/>
        <pt x="93" y="450" on="1"/>
        <pt x="108" y="540" on="0"/>
        <pt x="197" y="670" on="0"/>
        <pt x="335" y="740" on="0"/>
        <pt x="423" y="740" on="1"/>
        <pt x="542" y="740" on="0"/>
        <pt x="657" y="609" on="0"/>
        <pt x="638" y="495" on="1"/>
        <pt x="567" y="65" on="1"/>
        <pt x="486" y="65" on="1"/>
        <pt x="497" y="130" on="1"/>
        <pt x="494" y="130" on="1"/>
        <pt x="485" y="96" on="0"/>
        <pt x="419" y="55" on="0"/>
        <pt x="372" y="55" on="1"/>
        <pt x="304" y="55" on="0"/>
        <pt x="244" y="134" on="0"/>
        <pt x="257" y="210" on="1"/>
        <pt x="277" y="330" on="1"/>
        <pt x="289" y="406" on="0"/>
        <pt x="375" y="485" on="0"/>
        <pt x="443" y="485" on="1"/>
        <pt x="490" y="485" on="0"/>
        <pt x="541" y="444" on="0"/>
        <pt x="540" y="410" on="1"/>
        <pt x="544" y="410" on="1"/>
        <pt x="555" y="490" on="1"/>
        <pt x="555" y="495" on="1"/>
        <pt x="569" y="580" on="0"/>
        <pt x="495" y="670" on="0"/>
        <pt x="411" y="670" on="1"/>
        <pt x="317" y="670" on="0"/>
        <pt x="194" y="554" on="0"/>
        <pt x="176" y="450" on="1"/>
        <pt x="120" y="110" on="1"/>
        <pt x="103" y="10" on="0"/>
        <pt x="196" y="-105" on="0"/>
        <pt x="293" y="-105" on="1"/>
        <pt x="367" y="-105" on="1"/>
        <pt x="354" y="-180" on="1"/>
      </contour>
      <contour>
        <pt x="409" y="118" on="1"/>
        <pt x="493" y="118" on="0"/>
        <pt x="510" y="220" on="1"/>
        <pt x="527" y="331" on="1"/>
        <pt x="536" y="378" on="0"/>
        <pt x="502" y="422" on="0"/>
        <pt x="460" y="422" on="1"/>
        <pt x="376" y="422" on="0"/>
        <pt x="360" y="330" on="1"/>
        <pt x="340" y="210" on="1"/>
        <pt x="325" y="118" on="0"/>
      </contour>
    </TTGlyph>
    <TTGlyph name="atilde" xMin="54" yMin="-14" xMax="602" yMax="743">
      <contour>
        <pt x="214" y="-14" on="1"/>
        <pt x="145" y="-14" on="0"/>
        <pt x="54" y="67" on="0"/>
        <pt x="54" y="136" on="1"/>
        <pt x="54" y="193" on="0"/>
        <pt x="111" y="270" on="0"/>
        <pt x="202" y="316" on="0"/>
        <pt x="308" y="340" on="0"/>
        <pt x="408" y="352" on="0"/>
        <pt x="445" y="357" on="1"/>
        <pt x="448" y="373" on="0"/>
        <pt x="452" y="401" on="0"/>
        <pt x="452" y="413" on="1"/>
        <pt x="452" y="505" on="0"/>
        <pt x="354" y="505" on="1"/>
        <pt x="305" y="505" on="0"/>
        <pt x="236" y="458" on="0"/>
        <pt x="218" y="416" on="1"/>
        <pt x="138" y="442" on="1"/>
        <pt x="166" y="508" on="0"/>
        <pt x="273" y="584" on="0"/>
        <pt x="350" y="584" on="1"/>
        <pt x="443" y="584" on="0"/>
        <pt x="543" y="502" on="0"/>
        <pt x="543" y="419" on="1"/>
        <pt x="543" y="399" on="0"/>
        <pt x="538" y="359" on="0"/>
        <pt x="524" y="287" on="0"/>
        <pt x="510" y="217" on="1"/>
        <pt x="496" y="146" on="0"/>
        <pt x="487" y="40" on="0"/>
        <pt x="486" y="0" on="1"/>
        <pt x="401" y="0" on="1"/>
        <pt x="397" y="73" on="1"/>
        <pt x="361" y="30" on="0"/>
        <pt x="277" y="-14" on="0"/>
      </contour>
      <contour>
        <pt x="243" y="66" on="1"/>
        <pt x="315" y="66" on="0"/>
        <pt x="419" y="172" on="0"/>
        <pt x="433" y="260" on="1"/>
        <pt x="436" y="279" on="1"/>
        <pt x="348" y="270" on="0"/>
        <pt x="221" y="246" on="0"/>
        <pt x="155" y="195" on="0"/>
        <pt x="155" y="145" on="1"/>
        <pt x="155" y="105" on="0"/>
        <pt x="206" y="66" on="0"/>
      </contour>
      <contour>
        <pt x="487" y="628" on="1"/>
        <pt x="456" y="628" on="0"/>
        <pt x="415" y="651" on="0"/>
        <pt x="376" y="674" on="0"/>
        <pt x="349" y="674" on="1"/>
        <pt x="302" y="674" on="0"/>
        <pt x="282" y="631" on="1"/>
        <pt x="213" y="631" on="1"/>
        <pt x="234" y="688" on="0"/>
        <pt x="307" y="743" on="0"/>
        <pt x="350" y="743" on="1"/>
        <pt x="385" y="743" on="0"/>
        <pt x="429" y="720" on="0"/>
        <pt x="465" y="697" on="0"/>
        <pt x="487" y="697" on="1"/>
        <pt x="507" y="697" on="0"/>
        <pt x="531" y="718" on="0"/>
        <pt x="541" y="729" on="1"/>
        <pt x="555" y="743" on="0"/>
        <pt x="570" y="743" on="1"/>
        <pt x="584" y="743" on="0"/>
        <pt x="602" y="723" on="0"/>
        <pt x="602" y="709" on="1"/>
        <pt x="602" y="699" on="0"/>
        <pt x="597" y="691" on="1"/>
        <pt x="583" y="669" on="0"/>
        <pt x="531" y="628" on="0"/>
      </contour>
    </TTGlyph>
    <TTGlyph name="b" xMin="54" yMin="-13" xMax="591" yMax="730">
      <contour>
        <pt x="331" y="-13" on="1"/>
        <pt x="271" y="-13" on="0"/>
        <pt x="191" y="43" on="0"/>
        <pt x="166" y="90" on="1"/>
        <pt x="122" y="0" on="1"/>
        <pt x="54" y="0" on="1"/>
        <pt x="206" y="730" on="1"/>
        <pt x="298" y="730" on="1"/>
        <pt x="243" y="470" on="1"/>
        <pt x="279" y="518" on="0"/>
        <pt x="359" y="551" on="0"/>
        <pt x="393" y="551" on="1"/>
        <pt x="469" y="551" on="0"/>
        <pt x="554" y="483" on="0"/>
        <pt x="591" y="377" on="0"/>
        <pt x="591" y="320" on="1"/>
        <pt x="591" y="261" on="0"/>
        <pt x="558" y="144" on="0"/>
        <pt x="492" y="46" on="0"/>
        <pt x="395" y="-13" on="0"/>
      </contour>
      <contour>
        <pt x="321" y="66" on="1"/>
        <pt x="367" y="66" on="0"/>
        <pt x="432" y="115" on="0"/>
        <pt x="474" y="191" on="0"/>
        <pt x="495" y="279" on="0"/>
        <pt x="495" y="318" on="1"/>
        <pt x="495" y="386" on="0"/>
        <pt x="437" y="472" on="0"/>
        <pt x="375" y="472" on="1"/>
        <pt x="331" y="472" on="0"/>
        <pt x="263" y="427" on="0"/>
        <pt x="217" y="355" on="0"/>
        <pt x="194" y="270" on="0"/>
        <pt x="194" y="231" on="1"/>
        <pt x="194" y="188" on="0"/>
        <pt x="222" y="113" on="0"/>
        <pt x="278" y="66" on="0"/>
      </contour>
    </TTGlyph>
    <TTGlyph name="backslash" xMin="36" yMin="-110" xMax="347" yMax="830">
      <contour>
        <pt x="254" y="-110" on="1"/>
        <pt x="36" y="830" on="1"/>
        <pt x="129" y="830" on="1"/>
        <pt x="347" y="-110" on="1"/>
      </contour>
    </TTGlyph>
    <TTGlyph name="backspacecontrol" xMin="60" yMin="241" xMax="451" yMax="493">
      <component glyphName="B" x="42" y="245" scale="0.33" flags="0x4"/>
      <component glyphName="S" x="245" y="245" scale="0.33" flags="0x4"/>
    </TTGlyph>
    <TTGlyph name="bar" xMin="125" yMin="-110" xMax="225" yMax="830">
      <contour>
        <pt x="165" y="-110" on="1"/>
        <pt x="185" y="-110" on="1"/>
        <pt x="225" y="-110" on="0"/>
        <pt x="225" y="-70" on="1"/>
        <pt x="225" y="790" on="1"/>
        <pt x="225" y="830" on="0"/>
        <pt x="185" y="830" on="1"/>
        <pt x="165" y="830" on="1"/>
        <pt x="125" y="830" on="0"/>
        <pt x="125" y="790" on="1"/>
        <pt x="125" y="-70" on="1"/>
        <pt x="125" y="-110" on="0"/>
      </contour>
    </TTGlyph>
    <TTGlyph name="bellcontrol" xMin="35" yMin="245" xMax="613" yMax="489">
      <component glyphName="B" x="17" y="245" scale="0.33" flags="0x4"/>
      <component glyphName="E" x="222" y="245" scale="0.33" flags="0x4"/>
      <component glyphName="L" x="427" y="245" scale="0.33" flags="0x4"/>
    </TTGlyph>
    <TTGlyph name="beta" xMin="30" yMin="-180" xMax="624" yMax="740">
      <contour>
        <pt x="30" y="-180" on="1"/>
        <pt x="152" y="534" on="1"/>
        <pt x="163" y="596" on="0"/>
        <pt x="234" y="689" on="0"/>
        <pt x="344" y="740" on="0"/>
        <pt x="412" y="740" on="1"/>
        <pt x="515" y="740" on="0"/>
        <pt x="624" y="644" on="0"/>
        <pt x="609" y="554" on="1"/>
        <pt x="599" y="493" on="0"/>
        <pt x="517" y="407" on="0"/>
        <pt x="456" y="391" on="1"/>
        <pt x="519" y="375" on="0"/>
        <pt x="577" y="280" on="0"/>
        <pt x="565" y="208" on="1"/>
        <pt x="555" y="147" on="0"/>
        <pt x="482" y="53" on="0"/>
        <pt x="370" y="0" on="0"/>
        <pt x="300" y="0" on="1"/>
        <pt x="158" y="0" on="1"/>
        <pt x="127" y="-180" on="1"/>
      </contour>
      <contour>
        <pt x="172" y="82" on="1"/>
        <pt x="303" y="82" on="1"/>
        <pt x="367" y="82" on="0"/>
        <pt x="454" y="153" on="0"/>
        <pt x="464" y="211" on="1"/>
        <pt x="474" y="269" on="0"/>
        <pt x="411" y="335" on="0"/>
        <pt x="346" y="335" on="1"/>
        <pt x="299" y="335" on="1"/>
        <pt x="312" y="413" on="1"/>
        <pt x="357" y="413" on="1"/>
        <pt x="417" y="413" on="0"/>
        <pt x="497" y="483" on="0"/>
        <pt x="505" y="536" on="1"/>
        <pt x="515" y="594" on="0"/>
        <pt x="457" y="658" on="0"/>
        <pt x="398" y="658" on="1"/>
        <pt x="340" y="658" on="0"/>
        <pt x="258" y="592" on="0"/>
        <pt x="249" y="534" on="1"/>
      </contour>
    </TTGlyph>
    <TTGlyph name="block" xMin="13" yMin="-300" xMax="631" yMax="1020">
      <contour>
        <pt x="13" y="-300" on="1"/>
        <pt x="13" y="1020" on="1"/>
        <pt x="631" y="1020" on="1"/>
        <pt x="631" y="-300" on="1"/>
      </contour>
    </TTGlyph>
    <TTGlyph name="braceleft" xMin="63" yMin="-110" xMax="596" yMax="830">
      <contour>
        <pt x="394" y="-110" on="1"/>
        <pt x="302" y="-110" on="0"/>
        <pt x="210" y="-23" on="0"/>
        <pt x="228" y="56" on="1"/>
        <pt x="265" y="220" on="1"/>
        <pt x="277" y="273" on="0"/>
        <pt x="246" y="320" on="0"/>
        <pt x="178" y="320" on="1"/>
        <pt x="63" y="320" on="1"/>
        <pt x="75" y="400" on="1"/>
        <pt x="190" y="400" on="1"/>
        <pt x="258" y="400" on="0"/>
        <pt x="306" y="447" on="0"/>
        <pt x="311" y="500" on="1"/>
        <pt x="328" y="664" on="1"/>
        <pt x="336" y="743" on="0"/>
        <pt x="457" y="830" on="0"/>
        <pt x="549" y="830" on="1"/>
        <pt x="596" y="830" on="1"/>
        <pt x="583" y="750" on="1"/>
        <pt x="536" y="750" on="1"/>
        <pt x="487" y="750" on="0"/>
        <pt x="427" y="707" on="0"/>
        <pt x="422" y="664" on="1"/>
        <pt x="405" y="500" on="1"/>
        <pt x="399" y="443" on="0"/>
        <pt x="331" y="369" on="0"/>
        <pt x="278" y="360" on="1"/>
        <pt x="328" y="351" on="0"/>
        <pt x="372" y="276" on="0"/>
        <pt x="359" y="220" on="1"/>
        <pt x="322" y="56" on="1"/>
        <pt x="312" y="13" on="0"/>
        <pt x="357" y="-30" on="0"/>
        <pt x="406" y="-30" on="1"/>
        <pt x="453" y="-30" on="1"/>
        <pt x="441" y="-110" on="1"/>
      </contour>
    </TTGlyph>
    <TTGlyph name="braceright" xMin="63" yMin="-110" xMax="596" yMax="830">
      <contour>
        <pt x="63" y="-110" on="1"/>
        <pt x="75" y="-30" on="1"/>
        <pt x="122" y="-30" on="1"/>
        <pt x="171" y="-30" on="0"/>
        <pt x="232" y="13" on="0"/>
        <pt x="236" y="56" on="1"/>
        <pt x="253" y="220" on="1"/>
        <pt x="258" y="277" on="0"/>
        <pt x="327" y="352" on="0"/>
        <pt x="380" y="360" on="1"/>
        <pt x="330" y="369" on="0"/>
        <pt x="286" y="443" on="0"/>
        <pt x="299" y="500" on="1"/>
        <pt x="336" y="664" on="1"/>
        <pt x="346" y="707" on="0"/>
        <pt x="301" y="750" on="0"/>
        <pt x="252" y="750" on="1"/>
        <pt x="205" y="750" on="1"/>
        <pt x="217" y="830" on="1"/>
        <pt x="264" y="830" on="1"/>
        <pt x="357" y="830" on="0"/>
        <pt x="448" y="743" on="0"/>
        <pt x="430" y="664" on="1"/>
        <pt x="393" y="500" on="1"/>
        <pt x="381" y="447" on="0"/>
        <pt x="413" y="400" on="0"/>
        <pt x="481" y="400" on="1"/>
        <pt x="596" y="400" on="1"/>
        <pt x="583" y="320" on="1"/>
        <pt x="468" y="320" on="1"/>
        <pt x="401" y="320" on="0"/>
        <pt x="352" y="273" on="0"/>
        <pt x="347" y="220" on="1"/>
        <pt x="330" y="56" on="1"/>
        <pt x="322" y="-23" on="0"/>
        <pt x="203" y="-110" on="0"/>
        <pt x="110" y="-110" on="1"/>
      </contour>
    </TTGlyph>
    <TTGlyph name="bracketleft" xMin="38" yMin="-110" xMax="443" yMax="830">
      <contour>
        <pt x="38" y="-110" on="1"/>
        <pt x="191" y="830" on="1"/>
        <pt x="443" y="830" on="1"/>
        <pt x="431" y="750" on="1"/>
        <pt x="271" y="750" on="1"/>
        <pt x="143" y="-30" on="1"/>
        <pt x="303" y="-30" on="1"/>
        <pt x="291" y="-110" on="1"/>
      </contour>
    </TTGlyph>
    <TTGlyph name="bracketright" xMin="38" yMin="-110" xMax="442" yMax="830">
      <contour>
        <pt x="38" y="-110" on="1"/>
        <pt x="50" y="-30" on="1"/>
        <pt x="210" y="-30" on="1"/>
        <pt x="337" y="750" on="1"/>
        <pt x="178" y="750" on="1"/>
        <pt x="190" y="830" on="1"/>
        <pt x="442" y="830" on="1"/>
        <pt x="290" y="-110" on="1"/>
      </contour>
    </TTGlyph>
    <TTGlyph name="breve" xMin="459" yMin="640" xMax="785" yMax="785">
      <contour>
        <pt x="622" y="640" on="1"/>
        <pt x="549" y="640" on="0"/>
        <pt x="459" y="720" on="0"/>
        <pt x="459" y="785" on="1"/>
        <pt x="531" y="785" on="1"/>
        <pt x="531" y="746" on="0"/>
        <pt x="580" y="698" on="0"/>
        <pt x="621" y="698" on="1"/>
        <pt x="663" y="698" on="0"/>
        <pt x="713" y="746" on="0"/>
        <pt x="713" y="785" on="1"/>
        <pt x="785" y="785" on="1"/>
        <pt x="785" y="720" on="0"/>
        <pt x="695" y="640" on="0"/>
      </contour>
    </TTGlyph>
    <TTGlyph name="breve.case" xMin="380" yMin="805" xMax="716" yMax="950">
      <component glyphName="uni0306.case" x="330" y="0" flags="0x4"/>
    </TTGlyph>
</ttFont>
